<svg width="17" height="17" viewBox="0 0 17 17" fill="none" xmlns="http://www.w3.org/2000/svg">
<path d="M8.63281 16.8281C12.9922 16.8281 16.6016 13.2109 16.6016 8.85938C16.6016 4.5 12.9844 0.890625 8.625 0.890625C4.27344 0.890625 0.664062 4.5 0.664062 8.85938C0.664062 13.2109 4.28125 16.8281 8.63281 16.8281ZM6.00781 12.1406C5.64844 12.1406 5.36719 11.8516 5.36719 11.4922C5.36719 11.3203 5.42969 11.1562 5.55469 11.0391L7.71875 8.86719L5.55469 6.70312C5.42969 6.57812 5.36719 6.42188 5.36719 6.25C5.36719 5.88281 5.64844 5.60938 6.00781 5.60938C6.1875 5.60938 6.32812 5.67188 6.45312 5.78906L8.63281 7.96094L10.8281 5.78125C10.9609 5.64844 11.1016 5.59375 11.2734 5.59375C11.6328 5.59375 11.9219 5.875 11.9219 6.23438C11.9219 6.41406 11.8672 6.55469 11.7266 6.69531L9.55469 8.86719L11.7188 11.0312C11.8516 11.1484 11.9141 11.3125 11.9141 11.4922C11.9141 11.8516 11.625 12.1406 11.2578 12.1406C11.0781 12.1406 10.9141 12.0781 10.7969 11.9531L8.63281 9.78125L6.47656 11.9531C6.35156 12.0781 6.1875 12.1406 6.00781 12.1406Z" fill="#3C3C43" fill-opacity="0.6"/>
</svg>
