<svg width="9" height="16" viewBox="0 0 9 16" fill="none" xmlns="http://www.w3.org/2000/svg">
<path fill-rule="evenodd" clip-rule="evenodd" d="M8.1048 1.95898C8.551 1.51278 8.551 0.78085 8.1048 0.33465C7.6586 -0.11155 6.92668 -0.11155 6.48048 0.33465L6.82599 0.680168L6.48048 0.33465L0.838735 5.9764C0.283163 6.53197 4.64124e-05 7.26625 4.63804e-05 7.99999C4.63483e-05 8.73372 0.283164 9.468 0.838734 10.0236L6.48048 15.6654C6.92667 16.1116 7.6586 16.1116 8.1048 15.6654C8.551 15.2192 8.551 14.4872 8.1048 14.041L2.46306 8.39925C2.24298 8.17916 2.24298 7.82081 2.46306 7.60073L8.1048 1.95898Z" fill="#949699"/>
</svg>
