<svg width="22" height="22" viewBox="0 0 22 22" fill="none" xmlns="http://www.w3.org/2000/svg">
<g opacity="0.3">
<path fill-rule="evenodd" clip-rule="evenodd" d="M1 11C1 16.5163 5.48372 21 11 21C16.5163 21 21 16.5163 21 11C21 5.48372 16.5163 1 11 1C5.48372 1 1 5.48372 1 11ZM2.39535 11C2.39535 6.25581 6.25581 2.39535 11 2.39535C15.7442 2.39535 19.6047 6.25581 19.6047 11C19.6047 15.7442 15.7442 19.6047 11 19.6047C6.25581 19.6047 2.39535 15.7442 2.39535 11ZM9.18558 14.1254C9.31581 14.2556 9.49255 14.33 9.6786 14.33C9.86465 14.33 10.0414 14.2556 10.1716 14.1254L15.446 8.85097C15.7158 8.5812 15.7158 8.13469 15.446 7.86492C15.1763 7.59516 14.7298 7.59516 14.46 7.86492L9.6786 12.6463L7.53902 10.5068C7.26925 10.237 6.82274 10.237 6.55297 10.5068C6.28321 10.7766 6.28321 11.2231 6.55297 11.4928L9.18558 14.1254Z" fill="#292D32"/>
<path fill-rule="evenodd" clip-rule="evenodd" d="M11 1.5C5.75986 1.5 1.5 5.75986 1.5 11C1.5 16.2401 5.75986 20.5 11 20.5C16.2401 20.5 20.5 16.2401 20.5 11C20.5 5.75986 16.2401 1.5 11 1.5ZM0.5 11C0.5 5.20758 5.20758 0.5 11 0.5C16.7924 0.5 21.5 5.20758 21.5 11C21.5 16.7924 16.7924 21.5 11 21.5C5.20758 21.5 0.5 16.7924 0.5 11ZM1.89535 11C1.89535 5.97967 5.97967 1.89535 11 1.89535C16.0203 1.89535 20.1047 5.97967 20.1047 11C20.1047 16.0203 16.0203 20.1047 11 20.1047C5.97967 20.1047 1.89535 16.0203 1.89535 11ZM11 2.89535C6.53196 2.89535 2.89535 6.53196 2.89535 11C2.89535 15.468 6.53196 19.1047 11 19.1047C15.468 19.1047 19.1047 15.468 19.1047 11C19.1047 6.53196 15.468 2.89535 11 2.89535ZM15.0925 8.21848C15.018 8.14397 14.8881 8.14397 14.8135 8.21848L9.6786 13.3534L7.18547 10.8603C7.11096 10.7858 6.98103 10.7858 6.90653 10.8603C6.83202 10.9348 6.83202 11.0648 6.90653 11.1393L9.53913 13.7718C9.57666 13.8094 9.62667 13.83 9.6786 13.83C9.73053 13.83 9.78054 13.8094 9.81807 13.7718L15.0925 8.49742C15.167 8.42291 15.167 8.29298 15.0925 8.21848ZM14.1064 7.51137C14.5715 7.04634 15.3346 7.04634 15.7996 7.51137C16.2646 7.9764 16.2646 8.73949 15.7996 9.20452L10.5252 14.4789C10.3022 14.7019 9.99876 14.83 9.6786 14.83C9.35844 14.83 9.05495 14.7019 8.83203 14.4789L6.19942 11.8464C5.73439 11.3814 5.73439 10.6183 6.19942 10.1532C6.66445 9.6882 7.42754 9.6882 7.89257 10.1532L9.6786 11.9392L14.1064 7.51137Z" fill="#292D32"/>
</g>
</svg>
