<svg width="22" height="22" viewBox="0 0 22 22" fill="none" xmlns="http://www.w3.org/2000/svg">
<path d="M11 21C5.48372 21 1 16.5163 1 11C1 5.48372 5.48372 1 11 1C16.5163 1 21 5.48372 21 11C21 16.5163 16.5163 21 11 21ZM11 2.39535C6.25581 2.39535 2.39535 6.25581 2.39535 11C2.39535 15.7442 6.25581 19.6047 11 19.6047C15.7442 19.6047 19.6047 15.7442 19.6047 11C19.6047 6.25581 15.7442 2.39535 11 2.39535Z" fill="#292D32" stroke="#292D32"/>
<path d="M9.67854 14.33C9.49249 14.33 9.31575 14.2556 9.18552 14.1254L6.55291 11.4928C6.28314 11.2231 6.28314 10.7766 6.55291 10.5068C6.82268 10.237 7.26919 10.237 7.53896 10.5068L9.67854 12.6463L14.4599 7.86492C14.7297 7.59516 15.1762 7.59516 15.446 7.86492C15.7157 8.13469 15.7157 8.5812 15.446 8.85097L10.1716 14.1254C10.0413 14.2556 9.86459 14.33 9.67854 14.33Z" fill="#292D32" stroke="#292D32"/>
</svg>
