<svg width="16" height="16" viewBox="0 0 16 16" fill="none" xmlns="http://www.w3.org/2000/svg">
<path fill-rule="evenodd" clip-rule="evenodd" d="M0.376569 0.376569C-0.125523 0.878661 -0.125523 1.69271 0.376569 2.1948L5.83134 7.64958L0.376692 13.1042C-0.1254 13.6063 -0.125399 14.4204 0.376692 14.9225C0.878784 15.4246 1.69284 15.4246 2.19493 14.9225L7.64958 9.46782L13.1042 14.9225C13.6063 15.4245 14.4204 15.4245 14.9225 14.9225C15.4245 14.4204 15.4245 13.6063 14.9225 13.1042L9.46782 7.64958L14.9226 2.19482C15.4247 1.69272 15.4247 0.878672 14.9226 0.37658C14.4205 -0.125512 13.6064 -0.125511 13.1043 0.37658L7.64958 5.83134L2.1948 0.376569C1.69271 -0.125523 0.878661 -0.125523 0.376569 0.376569Z" fill="#949699"/>
</svg>
