<svg width="21" height="20" viewBox="0 0 21 20" fill="none" xmlns="http://www.w3.org/2000/svg">
<path fill-rule="evenodd" clip-rule="evenodd" d="M12.9328 20H7.35139C2.30023 20 0.14209 17.8419 0.14209 12.7907V7.2093C0.14209 2.15814 2.30023 0 7.35139 0H12.9328C17.984 0 20.1421 2.15814 20.1421 7.2093V12.7907C20.1421 17.8419 17.984 20 12.9328 20ZM7.35139 1.39535C3.06302 1.39535 1.53744 2.92093 1.53744 7.2093V12.7907C1.53744 12.8124 1.53748 12.8339 1.53756 12.8555L4.26275 11.2267C5.07151 10.7433 6.07697 10.7293 6.89893 11.1898L7.84377 11.7192C8.2537 11.9489 8.76013 11.9173 9.13831 11.6384L14.5342 7.65931C15.585 6.88438 17.0452 6.99721 17.9645 7.92439L18.7467 8.71334V7.2093C18.7467 2.92093 17.2212 1.39535 12.9328 1.39535H7.35139ZM18.7467 10.7518V12.7907C18.7467 17.0791 17.2212 18.6047 12.9328 18.6047H7.35139C3.67813 18.6047 2.03193 17.4853 1.63525 14.4692L4.99909 12.4587C5.3667 12.239 5.82373 12.2326 6.19735 12.442L7.14219 12.9714C8.04402 13.4767 9.15818 13.4071 9.99017 12.7936L15.386 8.81447C15.8637 8.46223 16.5274 8.51352 16.9453 8.93496L18.7467 10.7518ZM6.60092 5.581C6.07246 5.581 5.64406 6.0094 5.64406 6.53786C5.64406 7.06632 6.07246 7.49472 6.60092 7.49472C7.12938 7.49472 7.55778 7.06632 7.55778 6.53786C7.55778 6.0094 7.12938 5.581 6.60092 5.581ZM4.20876 6.53786C4.20876 5.21671 5.27977 4.1457 6.60092 4.1457C7.92207 4.1457 8.99308 5.21671 8.99308 6.53786C8.99308 7.85901 7.92207 8.93002 6.60092 8.93002C5.27977 8.93002 4.20876 7.85901 4.20876 6.53786Z" fill="#545456"/>
</svg>
