<svg width="20" height="20" viewBox="0 0 20 20" fill="none" xmlns="http://www.w3.org/2000/svg">
<path fill-rule="evenodd" clip-rule="evenodd" d="M7.2093 20H12.7907C17.8419 20 20 17.8419 20 12.7907V7.2093C20 2.15814 17.8419 0 12.7907 0H7.2093C2.15814 0 0 2.15814 0 7.2093V12.7907C0 17.8419 2.15814 20 7.2093 20ZM1.39535 7.2093C1.39535 2.92093 2.92093 1.39535 7.2093 1.39535H12.7907C17.0791 1.39535 18.6047 2.92093 18.6047 7.2093V12.7907C18.6047 17.0791 17.0791 18.6047 12.7907 18.6047H7.2093C2.92093 18.6047 1.39535 17.0791 1.39535 12.7907V7.2093ZM9.34023 4.66641C8.41769 4.66641 7.67045 5.41367 7.67045 6.3362V7.66846H6.06977C5.14721 7.66846 4.4 8.41573 4.4 9.33825V14.6999C4.4 15.0776 4.70614 15.3837 5.08379 15.3837H8.36174C8.39895 15.3837 8.43547 15.3807 8.47106 15.375H11.6323L11.6351 15.375L11.6382 15.375H14.9162C15.2939 15.375 15.6 15.0689 15.6 14.6912V11.7419L15.5999 11.731C15.5855 10.823 14.85 10.0721 13.9302 10.0721H12.316V6.3362C12.316 5.42156 11.5853 4.66641 10.6549 4.66641H9.34023ZM7.67045 9.03604V14.0161H5.76757V9.33825C5.76757 9.17099 5.90254 9.03604 6.06977 9.03604H7.67045ZM9.04553 14.0075H10.9485V6.3362C10.9485 6.16106 10.8143 6.03398 10.6549 6.03398H9.34023C9.17299 6.03398 9.03802 6.16894 9.03802 6.3362V9.18391C9.04297 9.21708 9.04553 9.25104 9.04553 9.28558V14.0075ZM12.322 11.4397V14.0075H14.2324V11.7488C14.2275 11.5691 14.0818 11.4397 13.9302 11.4397H12.322Z" fill="#545456"/>
</svg>
