<svg width="8" height="8" viewBox="0 0 8 8" fill="none" xmlns="http://www.w3.org/2000/svg">
<path fill-rule="evenodd" clip-rule="evenodd" d="M0 4C0 1.7908 1.7908 0 4 0C6.2092 0 8 1.7908 8 4C8 6.2092 6.2092 8 4 8C1.7908 8 0 6.2092 0 4ZM3.4 2.4C3.4 2.24087 3.46321 2.08826 3.57574 1.97574C3.68826 1.86321 3.84087 1.8 4 1.8H4.004C4.16313 1.8 4.31574 1.86321 4.42826 1.97574C4.54079 2.08826 4.604 2.24087 4.604 2.4V2.404C4.604 2.56313 4.54079 2.71574 4.42826 2.82826C4.31574 2.94079 4.16313 3.004 4.004 3.004H4C3.84087 3.004 3.68826 2.94079 3.57574 2.82826C3.46321 2.71574 3.4 2.56313 3.4 2.404V2.4ZM4 3.6C4.10609 3.6 4.20783 3.64214 4.28284 3.71716C4.35786 3.79217 4.4 3.89391 4.4 4V5.6C4.4 5.70609 4.35786 5.80783 4.28284 5.88284C4.20783 5.95786 4.10609 6 4 6C3.89391 6 3.79217 5.95786 3.71716 5.88284C3.64214 5.80783 3.6 5.70609 3.6 5.6V4C3.6 3.89391 3.64214 3.79217 3.71716 3.71716C3.79217 3.64214 3.89391 3.6 4 3.6Z" fill="#545456" fill-opacity="0.5"/>
</svg>
