<svg width="47" height="47" viewBox="0 0 47 47" fill="none" xmlns="http://www.w3.org/2000/svg">
<path d="M31.9444 24.5556H15.0556C14.4785 24.5556 14 24.0771 14 23.5C14 22.923 14.4785 22.4445 15.0556 22.4445H31.9444C32.5215 22.4445 33 22.923 33 23.5C33 24.0771 32.5215 24.5556 31.9444 24.5556Z" fill="#292D32"/>
<path d="M23.4999 33C22.9229 33 22.4443 32.5215 22.4443 31.9444V15.0556C22.4443 14.4785 22.9229 14 23.4999 14C24.0769 14 24.5554 14.4785 24.5554 15.0556V31.9444C24.5554 32.5215 24.0769 33 23.4999 33Z" fill="#292D32"/>
<circle cx="23.5" cy="23.5" r="22.5" stroke="black" stroke-width="2"/>
</svg>
