<svg width="current" height="current" viewBox="0 0 21 21" fill="currentColor" xmlns="http://www.w3.org/2000/svg">
<path fill-rule="evenodd" clip-rule="evenodd" d="M0 10.5C0 4.72291 4.72291 0 10.5 0C16.2771 0 21 4.72291 21 10.5C21 16.2771 16.2771 21 10.5 21C4.72291 21 0 16.2771 0 10.5ZM10.5 1.82609C5.73143 1.82609 1.82609 5.73143 1.82609 10.5C1.82609 15.2686 5.73143 19.1739 10.5 19.1739C15.2686 19.1739 19.1739 15.2686 19.1739 10.5C19.1739 5.73143 15.2686 1.82609 10.5 1.82609Z" fill="current"/>
<path fill-rule="evenodd" clip-rule="evenodd" d="M5.7522 10.5C5.7522 9.99573 6.16098 9.58694 6.66524 9.58694H14.3348C14.8391 9.58694 15.2478 9.99573 15.2478 10.5C15.2478 11.0042 14.8391 11.413 14.3348 11.413H6.66524C6.16098 11.413 5.7522 11.0042 5.7522 10.5Z" fill="current"/>
<path fill-rule="evenodd" clip-rule="evenodd" d="M10.5 5.75217C11.0042 5.75217 11.413 6.16095 11.413 6.66521V14.3348C11.413 14.839 11.0042 15.2478 10.5 15.2478C9.9957 15.2478 9.58691 14.839 9.58691 14.3348V6.66521C9.58691 6.16095 9.9957 5.75217 10.5 5.75217Z" fill="current"/>
</svg>
