<svg width="23" height="23" viewBox="0 0 23 23" fill="none" xmlns="http://www.w3.org/2000/svg">
<path d="M17.173 22H5.84994C3.17074 22 1 19.8195 1 17.1403V9.89471C1 8.56486 1.82136 6.89281 2.8774 6.07144L8.14779 1.96464C9.73184 0.732606 12.2644 0.673937 13.9071 1.82775L19.95 6.06167C21.1136 6.87325 22.0229 8.61375 22.0229 10.0316V17.1501C22.0229 19.8195 19.8522 22 17.173 22ZM9.04738 3.11846L3.77698 7.22526C3.08274 7.77283 2.46671 9.01465 2.46671 9.89471V17.1403C2.46671 19.0079 3.98232 20.5333 5.84994 20.5333H17.173C19.0406 20.5333 20.5562 19.0177 20.5562 17.1501V10.0316C20.5562 9.09288 19.8815 7.79239 19.109 7.26437L13.0662 3.03046C11.9515 2.24821 10.1132 2.28732 9.04738 3.11846Z" fill="#292D32" stroke="#292D32" stroke-width="0.5"/>
<path d="M11.5119 18.0887C11.111 18.0887 10.7786 17.7563 10.7786 17.3554V14.422C10.7786 14.0211 11.111 13.6886 11.5119 13.6886C11.9128 13.6886 12.2453 14.0211 12.2453 14.422V17.3554C12.2453 17.7563 11.9128 18.0887 11.5119 18.0887Z" fill="#292D32" stroke="#292D32" stroke-width="0.5"/>
</svg>
