<svg width="31" height="30" viewBox="0 0 31 30" fill="none" xmlns="http://www.w3.org/2000/svg">
<path d="M23.1043 30H6.92848C3.10105 30 0 26.885 0 23.0576V12.7067C0 10.8069 1.17337 8.41829 2.68199 7.24492L10.2111 1.37806C12.4741 -0.381992 16.092 -0.465804 18.4387 1.1825L27.0714 7.23095C28.7336 8.39036 30.0327 10.8768 30.0327 12.9023V23.0715C30.0327 26.885 26.9317 30 23.1043 30ZM11.4963 3.02637L3.96712 8.89323C2.97534 9.67548 2.09531 11.4495 2.09531 12.7067V23.0576C2.09531 25.7256 4.26046 27.9047 6.92848 27.9047H23.1043C25.7723 27.9047 27.9374 25.7395 27.9374 23.0715V12.9023C27.9374 11.5613 26.9736 9.70341 25.8701 8.9491L17.2374 2.90065C15.645 1.78315 13.0188 1.83903 11.4963 3.02637Z" fill="#292D32"/>
<path d="M15.0159 24.4125C14.4432 24.4125 13.9683 23.9375 13.9683 23.3648V19.1742C13.9683 18.6015 14.4432 18.1266 15.0159 18.1266C15.5886 18.1266 16.0636 18.6015 16.0636 19.1742V23.3648C16.0636 23.9375 15.5886 24.4125 15.0159 24.4125Z" fill="#292D32"/>
</svg>
