<svg width="21" height="21" viewBox="0 0 21 21" fill="current" xmlns="http://www.w3.org/2000/svg">
<path fill-rule="evenodd" clip-rule="evenodd" d="M0.986448 0.986448C1.69742 0.275478 2.6897 0 3.78914 0H5.70654C6.80598 0 7.79826 0.275478 8.50923 0.986448C9.2202 1.69742 9.49568 2.6897 9.49568 3.78914V5.70654C9.49568 6.80598 9.2202 7.79826 8.50923 8.50923C7.79826 9.2202 6.80598 9.49568 5.70654 9.49568H3.78914C2.6897 9.49568 1.69742 9.2202 0.986448 8.50923C0.275478 7.79826 0 6.80598 0 5.70654V3.78914C0 2.6897 0.275478 1.69742 0.986448 0.986448ZM2.27769 2.27769C2.02996 2.52542 1.82609 2.97118 1.82609 3.78914V5.70654C1.82609 6.52449 2.02996 6.97026 2.27769 7.21799C2.52542 7.46571 2.97118 7.66958 3.78914 7.66958H5.70654C6.52449 7.66958 6.97026 7.46571 7.21799 7.21799C7.46571 6.97026 7.66958 6.52449 7.66958 5.70654V3.78914C7.66958 2.97118 7.46571 2.52542 7.21799 2.27769C6.97026 2.02996 6.52449 1.82609 5.70654 1.82609H3.78914C2.97118 1.82609 2.52542 2.02996 2.27769 2.27769Z" fill="current"/>
<path fill-rule="evenodd" clip-rule="evenodd" d="M12.4906 0.986448C13.2016 0.275478 14.1939 0 15.2933 0H17.2107C18.3101 0 19.3024 0.275478 20.0134 0.986448C20.7243 1.69742 20.9998 2.6897 20.9998 3.78914V5.70654C20.9998 6.80598 20.7243 7.79826 20.0134 8.50923C19.3024 9.2202 18.3101 9.49568 17.2107 9.49568H15.2933C14.1939 9.49568 13.2016 9.2202 12.4906 8.50923C11.7796 7.79826 11.5042 6.80598 11.5042 5.70654V3.78914C11.5042 2.6897 11.7796 1.69742 12.4906 0.986448ZM13.7818 2.27769C13.5341 2.52542 13.3302 2.97118 13.3302 3.78914V5.70654C13.3302 6.52449 13.5341 6.97026 13.7818 7.21799C14.0296 7.46571 14.4753 7.66958 15.2933 7.66958H17.2107C18.0286 7.66958 18.4744 7.46571 18.7221 7.21799C18.9699 6.97026 19.1737 6.52449 19.1737 5.70654V3.78914C19.1737 2.97118 18.9699 2.52542 18.7221 2.27769C18.4744 2.02996 18.0286 1.82609 17.2107 1.82609H15.2933C14.4753 1.82609 14.0296 2.02996 13.7818 2.27769Z" fill="current"/>
<path fill-rule="evenodd" clip-rule="evenodd" d="M12.4906 12.4908C13.2016 11.7798 14.1939 11.5044 15.2933 11.5044H17.2107C18.3101 11.5044 19.3024 11.7798 20.0134 12.4908C20.7243 13.2018 20.9998 14.1941 20.9998 15.2935V17.2109C20.9998 18.3103 20.7243 19.3026 20.0134 20.0136C19.3024 20.7246 18.3101 21 17.2107 21H15.2933C14.1939 21 13.2016 20.7246 12.4906 20.0136C11.7796 19.3026 11.5042 18.3103 11.5042 17.2109V15.2935C11.5042 14.1941 11.7796 13.2018 12.4906 12.4908ZM13.7818 13.7821C13.5341 14.0298 13.3302 14.4755 13.3302 15.2935V17.2109C13.3302 18.0289 13.5341 18.4746 13.7818 18.7223C14.0296 18.9701 14.4753 19.1739 15.2933 19.1739H17.2107C18.0286 19.1739 18.4744 18.9701 18.7221 18.7223C18.9699 18.4746 19.1737 18.0289 19.1737 17.2109V15.2935C19.1737 14.4755 18.9699 14.0298 18.7221 13.7821C18.4744 13.5343 18.0286 13.3305 17.2107 13.3305H15.2933C14.4753 13.3305 14.0296 13.5343 13.7818 13.7821Z" fill="current"/>
<path fill-rule="evenodd" clip-rule="evenodd" d="M0.986448 12.4908C1.69742 11.7798 2.6897 11.5044 3.78914 11.5044H5.70654C6.80598 11.5044 7.79826 11.7798 8.50923 12.4908C9.2202 13.2018 9.49568 14.1941 9.49568 15.2935V17.2109C9.49568 18.3103 9.2202 19.3026 8.50923 20.0136C7.79826 20.7246 6.80598 21 5.70654 21H3.78914C2.6897 21 1.69742 20.7246 0.986448 20.0136C0.275478 19.3026 0 18.3103 0 17.2109V15.2935C0 14.1941 0.275478 13.2018 0.986448 12.4908ZM2.27769 13.7821C2.02996 14.0298 1.82609 14.4755 1.82609 15.2935V17.2109C1.82609 18.0289 2.02996 18.4746 2.27769 18.7223C2.52542 18.9701 2.97118 19.1739 3.78914 19.1739H5.70654C6.52449 19.1739 6.97026 18.9701 7.21799 18.7223C7.46571 18.4746 7.66958 18.0289 7.66958 17.2109V15.2935C7.66958 14.4755 7.46571 14.0298 7.21799 13.7821C6.97026 13.5343 6.52449 13.3305 5.70654 13.3305H3.78914C2.97118 13.3305 2.52542 13.5343 2.27769 13.7821Z" fill="current"/>
</svg>
