<svg width="34" height="34" viewBox="0 0 34 34" fill="none" xmlns="http://www.w3.org/2000/svg">
<path d="M6.5 14H9.5C12.5 14 14 12.5 14 9.5V6.5C14 3.5 12.5 2 9.5 2H6.5C3.5 2 2 3.5 2 6.5V9.5C2 12.5 3.5 14 6.5 14Z" stroke="#292D32" stroke-width="2.1403" stroke-miterlimit="10" stroke-linecap="round" stroke-linejoin="round"/>
<path d="M24.5 14H27.5C30.5 14 32 12.5 32 9.5V6.5C32 3.5 30.5 2 27.5 2H24.5C21.5 2 20 3.5 20 6.5V9.5C20 12.5 21.5 14 24.5 14Z" stroke="#292D32" stroke-width="2.1403" stroke-miterlimit="10" stroke-linecap="round" stroke-linejoin="round"/>
<path d="M24.5 32.0001H27.5C30.5 32.0001 32 30.5001 32 27.5001V24.5001C32 21.5001 30.5 20.0001 27.5 20.0001H24.5C21.5 20.0001 20 21.5001 20 24.5001V27.5001C20 30.5001 21.5 32.0001 24.5 32.0001Z" stroke="#292D32" stroke-width="2.1403" stroke-miterlimit="10" stroke-linecap="round" stroke-linejoin="round"/>
<path d="M6.5 32.0001H9.5C12.5 32.0001 14 30.5001 14 27.5001V24.5001C14 21.5001 12.5 20.0001 9.5 20.0001H6.5C3.5 20.0001 2 21.5001 2 24.5001V27.5001C2 30.5001 3.5 32.0001 6.5 32.0001Z" stroke="#292D32" stroke-width="2.1403" stroke-miterlimit="10" stroke-linecap="round" stroke-linejoin="round"/>
</svg>
