<svg width="25" height="30" viewBox="0 0 25 30" fill="none" xmlns="http://www.w3.org/2000/svg">
<path d="M12.1961 26.8374C8.9644 26.8374 5.73276 26.3242 2.66756 25.2978C1.50251 24.8956 0.614852 24.0773 0.226501 23.0093C-0.17572 21.9414 -0.0370229 20.7625 0.600982 19.7084L2.19599 17.0593C2.52887 16.5045 2.834 15.3949 2.834 14.743V10.7347C2.834 5.57519 7.03651 1.37268 12.1961 1.37268C17.3556 1.37268 21.5581 5.57519 21.5581 10.7347V14.743C21.5581 15.381 21.8632 16.5045 22.1961 17.0731L23.7773 19.7084C24.3736 20.707 24.4846 21.9136 24.0824 23.0093C23.6802 24.1051 22.8064 24.9372 21.7107 25.2978C18.6593 26.3242 15.4277 26.8374 12.1961 26.8374ZM12.1961 3.45313C8.1877 3.45313 4.91445 6.71251 4.91445 10.7347V14.743C4.91445 15.7555 4.49836 17.2534 3.98518 18.1272L2.39017 20.7763C2.08504 21.2895 2.00182 21.8304 2.18213 22.2881C2.34856 22.7597 2.76465 23.1203 3.33331 23.3145C9.13083 25.2562 15.2751 25.2562 21.0727 23.3145C21.572 23.148 21.9603 22.7736 22.1406 22.2743C22.3209 21.7749 22.2793 21.234 22.0019 20.7763L20.4069 18.1272C19.8799 17.2257 19.4777 15.7416 19.4777 14.7292V10.7347C19.4777 6.71251 16.2183 3.45313 12.1961 3.45313Z" fill="#292D32"/>
<path d="M14.7753 3.82803C14.6782 3.82803 14.5812 3.81416 14.4841 3.78642C14.0818 3.67546 13.6935 3.59225 13.319 3.53677C12.1401 3.3842 11.0028 3.46742 9.93481 3.78642C9.54646 3.91125 9.13041 3.78642 8.86689 3.49516C8.60337 3.2039 8.52015 2.7878 8.67271 2.41332C9.24137 0.957008 10.6283 0 12.2094 0C13.7906 0 15.1775 0.943138 15.7462 2.41332C15.8849 2.7878 15.8156 3.2039 15.552 3.49516C15.344 3.71707 15.0527 3.82803 14.7753 3.82803Z" fill="#292D32"/>
<path d="M12.1955 30C10.8224 30 9.49088 29.4452 8.52005 28.4743C7.54917 27.5034 6.99438 26.1719 6.99438 24.7988H9.07484C9.07484 25.6171 9.40767 26.4216 9.99019 27.0041C10.5727 27.5866 11.3772 27.9195 12.1955 27.9195C13.9153 27.9195 15.3161 26.5187 15.3161 24.7988H17.3966C17.3966 27.6699 15.0665 30 12.1955 30Z" fill="#292D32"/>
</svg>
