<svg width="15" height="12" viewBox="0 0 15 12" fill="none" xmlns="http://www.w3.org/2000/svg">
<path d="M4.80942 8.30717L12.7466 0.369955C12.9933 0.123318 13.3072 0 13.6883 0C14.0695 0 14.3834 0.123318 14.63 0.369955C14.8767 0.616591 15 0.930492 15 1.31166C15 1.69282 14.8767 2.00673 14.63 2.25336L5.75112 11.1323C5.48206 11.4013 5.16816 11.5359 4.80942 11.5359C4.45067 11.5359 4.13677 11.4013 3.86771 11.1323L0.369955 7.63453C0.123318 7.38789 0 7.07399 0 6.69282C0 6.31166 0.123318 5.99776 0.369955 5.75112C0.616591 5.50448 0.930493 5.38117 1.31166 5.38117C1.69282 5.38117 2.00673 5.50448 2.25336 5.75112L4.80942 8.30717Z" fill="#292D32" fill-opacity="0.3"/>
</svg>
