<svg width="25" height="28" viewBox="0 0 25 28" fill="none" xmlns="http://www.w3.org/2000/svg">
<path d="M18.335 2H6.66499C4.09999 2 2 4.09999 2 6.66499V23.705C2 25.88 3.56 26.81 5.465 25.745L11.36 22.46C11.99 22.115 13.01 22.115 13.625 22.46L19.52 25.745C21.425 26.81 22.985 25.88 22.985 23.705V6.66499C23 4.09999 20.9 2 18.335 2Z" fill="#292D32" stroke="#292D32" stroke-width="2.5" stroke-linecap="round" stroke-linejoin="round"/>
<path d="M23 6.66499V23.705C23 25.88 21.44 26.795 19.535 25.745L13.64 22.46C13.01 22.115 11.99 22.115 11.36 22.46L5.465 25.745C3.56 26.795 2 25.88 2 23.705V6.66499C2 4.09999 4.09999 2 6.66499 2H18.335C20.9 2 23 4.09999 23 6.66499Z" fill="#292D32" stroke="#292D32" stroke-width="2.5" stroke-linecap="round" stroke-linejoin="round"/>
</svg>
