<svg width="18" height="20" viewBox="0 0 18 20" fill="none" xmlns="http://www.w3.org/2000/svg">
<path d="M12.8059 2H5.08596C3.38917 2 2 3.38917 2 5.08596V16.3582C2 17.797 3.03196 18.4122 4.29215 17.7077L8.19178 15.5346C8.60853 15.3064 9.28329 15.3064 9.69012 15.5346L13.5898 17.7077C14.8499 18.4122 15.8819 17.797 15.8819 16.3582V5.08596C15.8918 3.38917 14.5026 2 12.8059 2Z" fill="#292D32" stroke="#292D32" stroke-width="2.5" stroke-linecap="round" stroke-linejoin="round"/>
<path d="M15.8918 5.08596V16.3582C15.8918 17.797 14.8599 18.4023 13.5997 17.7077L9.70005 15.5346C9.2833 15.3064 8.60853 15.3064 8.19178 15.5346L4.29215 17.7077C3.03196 18.4023 2 17.797 2 16.3582V5.08596C2 3.38917 3.38917 2 5.08596 2H12.8059C14.5026 2 15.8918 3.38917 15.8918 5.08596Z" fill="#292D32" stroke="#292D32" stroke-width="2.5" stroke-linecap="round" stroke-linejoin="round"/>
</svg>
