<svg width="9" height="17" viewBox="0 0 9 17" fill="none" xmlns="http://www.w3.org/2000/svg">
<path fill-rule="evenodd" clip-rule="evenodd" d="M8.1048 2.45898C8.551 2.01278 8.551 1.28085 8.1048 0.83465C7.6586 0.38845 6.92668 0.38845 6.48048 0.83465L6.82599 1.18017L6.48048 0.83465L0.838735 6.4764C0.283163 7.03197 4.64124e-05 7.76625 4.63804e-05 8.49999C4.63483e-05 9.23372 0.283164 9.968 0.838734 10.5236L6.48048 16.1654C6.92667 16.6116 7.6586 16.6116 8.1048 16.1654C8.551 15.7192 8.551 14.9872 8.1048 14.541L2.46306 8.89925C2.24298 8.67916 2.24298 8.32081 2.46306 8.10073L8.1048 2.45898Z" fill="#292D32"/>
</svg>
