<svg width="20" height="20" viewBox="0 0 20 20" fill="none" xmlns="http://www.w3.org/2000/svg">
<path fill-rule="evenodd" clip-rule="evenodd" d="M18 10C18 12.1804 17.1277 14.157 15.7131 15.6C15.4875 15.3722 15.2288 15.1603 14.94 14.97C12.23 13.15 7.79 13.15 5.06 14.97C4.77024 15.161 4.51517 15.3736 4.28909 15.6023C2.87317 14.1591 2 12.1815 2 10C2 5.58172 5.58172 2 10 2C14.4183 2 18 5.58172 18 10ZM10 20C10.3262 20 10.6487 19.9844 10.9668 19.9539L11.01 19.95C11.0313 19.95 11.0525 19.9472 11.0738 19.943C13.2582 19.7098 15.2324 18.7732 16.7654 17.3642L16.77 17.36V17.3599C18.7558 15.5324 20 12.9115 20 10C20 4.47715 15.5228 0 10 0C4.47715 0 0 4.47715 0 10C0 12.9089 1.24207 15.5278 3.22481 17.3551L3.22 17.36C3.2781 17.4181 3.34296 17.4695 3.40671 17.5199L3.40673 17.5199L3.42115 17.5314C3.75371 17.8221 4.10569 18.0912 4.4749 18.3364L4.48 18.34C4.59282 18.4172 4.70917 18.4909 4.82904 18.561C4.97509 18.6494 5.12357 18.7342 5.27438 18.8152L5.3 18.83C5.42513 18.8988 5.55418 18.9637 5.68714 19.0247C5.8152 19.086 5.94477 19.1447 6.07577 19.2006C6.10427 19.2136 6.13276 19.2257 6.16125 19.2367C6.71197 19.4658 7.28758 19.6471 7.8829 19.7755C7.91308 19.783 7.94403 19.7899 7.97649 19.7952C8.30237 19.8621 8.63403 19.9132 8.97063 19.9477L8.98 19.95C9.02451 19.9539 9.06903 19.9577 9.11354 19.9612C9.40561 19.9869 9.70127 20 10 20ZM6.25 8.6797C6.25 6.60969 7.93 4.92969 10 4.92969C12.07 4.92969 13.75 6.60969 13.75 8.6797C13.74 10.7097 12.15 12.3497 10.13 12.4197H10.11H10.04H9.95C7.84 12.3597 6.25 10.7097 6.25 8.6797Z" fill="#1B1E26" fill-opacity="0.5"/>
</svg>
