<svg width="16" height="16" viewBox="0 0 16 16" fill="none" xmlns="http://www.w3.org/2000/svg">
<path fill-rule="evenodd" clip-rule="evenodd" d="M0.376648 0.376556C-0.125549 0.878632 -0.125549 1.69272 0.376648 2.19479L5.83124 7.64957L0.376648 13.1042C-0.125305 13.6063 -0.125305 14.4204 0.376648 14.9225C0.878845 15.4245 1.69281 15.4245 2.19501 14.9225L7.6496 9.4678L13.1042 14.9225C13.6064 15.4245 14.4203 15.4245 14.9225 14.9225C15.4245 14.4204 15.4245 13.6063 14.9225 13.1042L9.46796 7.64957L14.9225 2.19479C15.4247 1.69272 15.4247 0.878632 14.9225 0.376556C14.4206 -0.125519 13.6064 -0.125519 13.1044 0.376556L7.6496 5.83133L2.19476 0.376556C1.69281 -0.125519 0.878601 -0.125519 0.376648 0.376556Z" fill="#949699"/>
</svg>
