<svg width="78" height="78" viewBox="0 0 78 78" fill="none" xmlns="http://www.w3.org/2000/svg">
<path d="M53 28.4646V68.2247C53 73.2997 49.36 75.4347 44.915 72.9847L31.16 65.3197C29.69 64.5147 27.31 64.5147 25.84 65.3197L12.085 72.9847C7.64 75.4347 4 73.2997 4 68.2247V28.4646C4 22.4796 8.89997 17.5797 14.885 17.5797H42.115C48.1 17.5797 53 22.4796 53 28.4646Z" stroke="#292D32" stroke-width="6.20783" stroke-linecap="round" stroke-linejoin="round"/>
<path opacity="0.4" d="M74 14.885V54.645C74 59.72 70.36 61.855 65.915 59.405L53 52.195V28.465C53 22.48 48.1 17.58 42.115 17.58H25V14.885C25 8.89997 29.9 4 35.885 4H63.115C69.1 4 74 8.89997 74 14.885Z" stroke="#292D32" stroke-width="6.20783" stroke-linecap="round" stroke-linejoin="round"/>
<path d="M21.5 39H35.5" stroke="#292D32" stroke-width="6.20783" stroke-linecap="round" stroke-linejoin="round"/>
<path d="M28.5 46V32" stroke="#292D32" stroke-width="6.20783" stroke-linecap="round" stroke-linejoin="round"/>
</svg>
