<svg width="76" height="76" viewBox="0 0 76 76" fill="none" xmlns="http://www.w3.org/2000/svg">
<path opacity="0.4" d="M34.1094 3.8692H27.1962C9.9132 3.8692 3 10.7824 3 28.0654V48.805C3 66.088 9.9132 73.0012 27.1962 73.0012H47.9358C65.2188 73.0012 72.132 66.088 72.132 48.805V41.8918" stroke="#292D32" stroke-width="5.25324" stroke-linecap="round" stroke-linejoin="round"/>
<path d="M51.5304 7.39413L24.2924 34.6323C23.2554 35.6692 22.2184 37.7086 22.011 39.195L20.5247 49.5993C19.9716 53.367 22.6332 55.994 26.4009 55.4755L36.8053 53.9892C38.2571 53.7818 40.2965 52.7448 41.368 51.7078L68.606 24.4697C73.307 19.7687 75.5192 14.3073 68.606 7.39413C61.6928 0.480933 56.2314 2.69316 51.5304 7.39413Z" stroke="#292D32" stroke-width="5.25324" stroke-miterlimit="10" stroke-linecap="round" stroke-linejoin="round"/>
<path opacity="0.4" d="M47.6252 11.3005C49.9412 19.5618 56.405 26.0256 64.7008 28.3761" stroke="#292D32" stroke-width="5.25324" stroke-miterlimit="10" stroke-linecap="round" stroke-linejoin="round"/>
</svg>
