<svg width="current" height="current" viewBox="0 0 306 106" fill="none" xmlns="http://www.w3.org/2000/svg">
<path fill-rule="evenodd" clip-rule="evenodd" d="M46.4 71.7002C45.1009 69.3247 43.7605 66.7288 42.4708 64.0352C42.2755 63.6274 42.0814 63.2173 41.8887 62.8054C41.1332 61.1898 40.4004 59.5462 39.7097 57.9005C38.6463 55.3666 37.6826 52.8275 36.889 50.377C36.8876 50.3727 36.8863 50.3685 36.8849 50.3642C36.8564 50.2761 36.8281 50.1881 36.8 50.1002C36.3209 48.2796 34.0974 48.6626 34.4401 50.7212C34.447 50.7623 34.4548 50.8041 34.4638 50.8465C34.4743 50.8968 34.4864 50.948 34.5 51.0002C35.2388 53.7708 36.1293 56.2002 37.218 58.7786C37.8976 60.388 38.6545 62.0555 39.5 63.9002C39.3058 68.172 39.0279 71.983 38.6661 75.9297C38.6656 75.9355 38.6651 75.9413 38.6645 75.9471C38.6051 76.5956 38.5433 77.2477 38.4793 77.9062C38.3316 79.4263 38.1718 80.9801 38 82.6002C37.3 90.1002 33.1 96.0002 24.8 96.0002C16.3 96.0002 12.2 90.1002 11.5 82.6002C9.5 63.6002 9.5 42.7002 11.5 23.8002C12.2 16.4002 16.3 10.5002 24.8 10.5002C29.6 10.5002 33 12.4002 35.2 15.4002C39.3185 21.294 43.3867 29.2551 47.0821 37.0995C47.3469 37.6615 47.6098 38.223 47.8706 38.783C48.818 40.8172 49.7385 42.8328 50.6266 44.7915C50.6789 44.9068 50.7311 45.0219 50.7832 45.1368C50.9906 45.5947 51.1962 46.0493 51.4 46.5002C52.1 47.8002 53.1 47.8002 53.8 46.5002L53.8251 46.4447C54.0206 46.0121 54.2176 45.5761 54.4162 45.1371C54.4681 45.0223 54.5201 44.9073 54.5723 44.7921C55.4595 42.8312 56.3765 40.8132 57.3193 38.7767C57.5794 38.2149 57.8414 37.6517 58.1054 37.0879C61.7761 29.2473 65.8125 21.2911 70 15.4002C72.1 12.4002 75.6 10.5002 80.4 10.5002C88.9 10.5002 92.9 16.4002 93.7 23.8002C95.6 42.7002 95.6 63.6002 93.7 82.6002C92.9 90.1002 88.9 96.0002 80.4 96.0002C72.1 96.0002 67.9 90.1002 67.2 82.6002C67.0282 80.9801 66.8684 79.4263 66.7207 77.9062C66.6567 77.2477 66.5949 76.5956 66.5355 75.9471C66.5349 75.9413 66.5344 75.9355 66.5339 75.9297C66.1721 71.983 65.8942 68.172 65.7 63.9002C66.5455 62.0555 67.3024 60.388 67.982 58.7786C69.0707 56.2002 69.9612 53.7708 70.7 51.0002C70.7136 50.948 70.7257 50.8968 70.7363 50.8465C70.7452 50.8041 70.753 50.7623 70.7599 50.7212C71.1027 48.6626 68.8791 48.2796 68.4 50.1002C68.3719 50.1881 68.3436 50.2761 68.3151 50.3642C68.3137 50.3685 68.3124 50.3727 68.311 50.377C67.5174 52.8275 66.5537 55.3666 65.4903 57.9005C64.7996 59.5462 64.0668 61.1898 63.3113 62.8054C63.1186 63.2173 62.9245 63.6274 62.7292 64.0352C61.4395 66.7288 60.0991 69.3247 58.8 71.7002C58.1626 72.8612 57.3179 73.7579 56.3603 74.3903C54.0689 75.9035 51.1311 75.9035 48.8397 74.3903C47.8821 73.7579 47.0374 72.8612 46.4 71.7002ZM47.8085 84.8344C50.9311 85.7555 54.2689 85.7555 57.3916 84.8344C58.0421 89.6815 59.848 94.7327 63.5228 98.8087C67.7426 103.489 73.6478 106 80.4 106C87.2024 106 93.1395 103.522 97.3839 98.7874C98.1302 97.9547 98.7973 97.0828 99.392 96.1822C99.8651 96.977 100.387 97.7426 100.96 98.4747C104.653 103.195 110.105 106 116.173 106H165.873C173.267 106 178.703 101.279 181.783 96.7436C185.016 91.9834 186.873 85.8759 186.873 79.5002C186.873 73.1373 185.048 67.1106 181.811 62.3858C179.314 58.742 175.482 55.2543 170.524 53.7998L173.684 50.2162C175.075 48.7221 176.893 46.7391 178.684 44.2849C179.319 45.1441 180.014 45.9669 180.772 46.7482C184.413 50.5047 189.057 52.8602 194.159 53.8137C192.909 62.9082 192.721 71.7569 193.327 80.3064L193.328 80.3212C193.755 86.2346 195.88 92.5843 200.414 97.6107C205.143 102.853 211.927 106 220.102 106C228.356 106 235.137 102.864 239.85 97.5431C244.324 92.4922 246.312 86.1996 246.855 80.5596L246.872 80.3893L246.882 80.2185C247.317 73.2029 247.092 63.5762 245.876 53.8126C249.627 53.1024 253.115 51.6223 256.136 49.41C255.995 60.9441 256.504 72.5671 257.663 83.5929C258.154 88.7551 259.894 94.3531 263.911 98.8087C268.171 103.534 274.126 106 280.913 106C287.665 106 293.571 103.489 297.79 98.8087C301.78 94.3837 303.567 88.8095 304.064 83.5946C306.13 63.9314 306.13 42.369 304.063 22.7983C303.563 17.6111 301.764 12.0633 297.773 7.66C293.558 3.00872 287.663 0.500195 280.913 0.500195C274.128 0.500195 268.184 2.96453 263.928 7.66C262.863 8.83517 261.958 10.0902 261.192 11.3959C260.59 10.615 259.937 9.86574 259.232 9.15153C254.444 4.29868 248.037 1.82099 241.336 1.32723L241.306 1.325L241.276 1.32294C233.759 0.815048 227.013 0.500195 220.302 0.500195C213.582 0.500195 206.727 0.70747 198.748 1.32863C192.106 1.81803 185.654 4.19385 180.818 9.11754C180.79 9.14539 180.763 9.17328 180.736 9.20123C180.539 8.93783 180.335 8.67845 180.124 8.42324C176.326 3.82042 171.085 1.49748 165.773 1.12473L165.766 1.12416L165.758 1.12362C147.802 -0.107613 134.445 -0.107613 116.489 1.12362L116.481 1.12416L116.473 1.12473C111.198 1.49495 105.949 3.78675 102.105 8.32454C101.318 9.25386 100.62 10.2411 100.008 11.2786C99.2635 10.0243 98.3892 8.81617 97.3666 7.68127C93.1267 2.97569 87.2005 0.500195 80.4 0.500195C72.7367 0.500195 66.0145 3.67945 61.8308 9.63264C58.5719 14.2218 55.4531 19.8264 52.5811 25.5404C49.6995 19.83 46.5922 14.2448 43.397 9.6722L43.3316 9.57862L43.2641 9.48656C39.0825 3.78442 32.6163 0.500195 24.8 0.500195C18.0143 0.500195 12.0704 2.96453 7.81513 7.66C3.79706 12.0937 2.0452 17.6648 1.55015 22.7987C-0.516802 42.3687 -0.516331 63.9304 1.54925 83.5929C2.04093 88.7551 3.78085 94.3531 7.7978 98.8087C12.0576 103.534 18.0124 106 24.8 106C31.5522 106 37.4574 103.489 41.6772 98.8087C45.352 94.7327 47.1579 89.6815 47.8085 84.8344ZM105.029 45.3072C105.147 50.13 105.156 54.9828 105.057 59.8149C105.948 58.7776 106.786 57.8654 107.508 57.0808C107.652 56.9247 107.791 56.7737 107.924 56.6278L114.653 48.9485C111.149 48.6135 107.839 47.4085 105.029 45.3072ZM115.373 63.3002C111.073 68.0002 105.773 73.8002 105.773 81.8002C105.773 90.9002 110.473 96.0002 116.173 96.0002H165.873C171.573 96.0002 176.873 88.5002 176.873 79.5002C176.873 70.5002 171.673 63.4002 165.973 63.1002C164.619 63.0017 163.526 62.9093 162.567 62.8244C162.219 62.7935 161.888 62.7636 161.568 62.7348C159.205 62.5212 157.493 62.3666 153.973 62.3002C153.399 62.8746 152.269 64.1222 151.054 65.4976C149.306 67.4747 147.381 69.7156 146.673 70.6002C146.27 71.0886 145.799 71.4102 145.324 71.5965C145.262 71.6211 145.199 71.6433 145.136 71.6632C143.439 72.2041 141.806 71.0676 143.173 69.7002L166.273 43.5002C168.976 40.5994 172.114 37.0032 173.938 32.5683C174.528 31.1348 174.981 29.6137 175.237 28.0002C175.39 27.0337 175.473 26.0341 175.473 25.0002C175.473 22.9213 175.228 21.0877 174.782 19.491C173.274 14.0986 169.471 11.4088 165.073 11.1002C147.573 9.9002 134.673 9.9002 117.173 11.1002C111.473 11.5002 106.573 15.9002 106.573 25.0002C106.573 34.0002 110.073 38.5002 115.673 39.0002C118.481 39.2634 120.711 39.4688 122.845 39.5997C125.576 39.7672 128.149 39.8125 131.573 39.7002C132.35 38.8304 133.213 37.9124 134.083 37.003C134.562 36.5023 135.042 36.0043 135.511 35.5183C136.931 34.0459 138.244 32.685 139.073 31.7002C139.468 31.282 139.917 31.0366 140.359 30.9224C140.384 30.9158 140.41 30.9096 140.436 30.9038C141.865 30.5825 143.178 31.6198 142.273 32.6002L115.373 63.3002ZM185.138 20.2521C184.493 21.6774 184.04 23.2624 183.801 25.0002C183.669 25.9545 183.602 26.9548 183.602 28.0002C183.602 29.8718 183.836 31.6281 184.284 33.2437C185.853 38.9087 190.041 42.8456 195.918 43.9707C197.052 44.1878 198.249 44.3002 199.502 44.3002H206.102C205.302 47.6646 204.669 50.9987 204.19 54.3002C202.93 62.9705 202.722 71.4165 203.302 79.6002C203.902 87.9002 209.202 96.0002 220.102 96.0002C231.202 96.0002 236.102 87.9002 236.902 79.6002C237.318 72.8744 237.062 63.5625 235.858 54.3002C235.449 51.1496 234.93 48.0048 234.29 44.9694C234.289 44.9638 234.288 44.9581 234.287 44.9525C233.713 42.2301 233.042 39.596 232.266 37.125C232.252 37.0808 232.239 37.0366 232.225 36.9925C232.151 36.7603 232.077 36.5295 232.002 36.3002C231.588 35.2243 233.366 34.5594 234.388 35.3824C234.426 35.413 234.463 35.4456 234.498 35.4803C234.663 35.6404 234.802 35.8452 234.902 36.1002C235.673 38.4137 236.63 41.3776 237.235 44.0066C237.258 44.105 237.28 44.2029 237.302 44.3002H240.602C241.889 44.3002 243.12 44.1752 244.286 43.935C251.719 42.4033 256.502 36.1853 256.502 27.8002C256.502 18.1002 250.102 12.0002 240.602 11.3002C233.202 10.8002 226.702 10.5002 220.302 10.5002C213.802 10.5002 207.202 10.7002 199.502 11.3002C192.705 11.7958 187.562 14.8981 185.138 20.2521ZM294.113 23.8002C293.413 16.4002 289.213 10.5002 280.913 10.5002C272.413 10.5002 268.313 16.4002 267.613 23.8002C265.613 42.7002 265.613 63.6002 267.613 82.6002C268.313 90.1002 272.413 96.0002 280.913 96.0002C289.213 96.0002 293.413 90.1002 294.113 82.6002C296.113 63.6002 296.113 42.7002 294.113 23.8002Z" fill="black"/>
</svg>
