<svg width="117" height="41" viewBox="0 0 117 41" fill="none" xmlns="http://www.w3.org/2000/svg">
<g id="Group 46">
<g id="Group 8">
<g id="MZTI">
<path d="M15.0069 24.201C14.893 26.7085 14.703 28.7981 14.4371 31.3056C14.1711 34.155 12.5754 36.3965 9.42207 36.3965C6.19271 36.3965 4.63503 34.155 4.36908 31.3056C3.60923 24.087 3.60923 16.1466 4.36908 8.96604C4.63503 6.1546 6.19271 3.91305 9.42207 3.91305C11.2457 3.91305 12.5374 4.6349 13.3733 5.77468C15.5768 8.92804 17.7424 13.6391 19.528 17.5903C19.794 18.0842 20.1739 18.0842 20.4399 17.5903C22.2255 13.6391 24.3531 8.92804 26.5946 5.77468C27.3925 4.6349 28.7222 3.91305 30.5458 3.91305C33.7752 3.91305 35.2949 6.1546 35.5988 8.96604C36.3207 16.1466 36.3207 24.087 35.5988 31.3056C35.2949 34.155 33.7752 36.3965 30.5458 36.3965C27.3925 36.3965 25.7968 34.155 25.5308 31.3056C25.2649 28.7981 25.0749 26.7085 24.9609 24.201C25.7968 22.3773 26.4047 21.0096 26.8606 19.3C27.0885 18.4261 26.1767 18.2362 25.9867 18.958C25.1129 21.6935 23.6692 24.7329 22.3395 27.1644C21.2757 29.102 18.6922 29.102 17.6284 27.1644C16.2987 24.7329 14.855 21.6935 13.9812 18.958C13.7912 18.2362 12.8794 18.4261 13.1073 19.3C13.5632 21.0096 14.1711 22.3773 15.0069 24.201Z" fill="white"/>
<path d="M58.4981 23.5931C57.9662 24.125 56.1806 26.1766 55.7247 26.7465C55.0028 27.6203 53.7111 27.0884 54.3949 26.4045L63.1712 16.4505C64.7289 14.7789 66.6665 12.4993 66.6665 9.42194C66.6665 5.96464 64.8808 4.29297 62.7153 4.141C56.0666 3.6851 51.1656 3.6851 44.5169 4.141C42.3514 4.29297 40.4897 5.96464 40.4897 9.42194C40.4897 12.8413 41.8195 14.5509 43.947 14.7409C46.3786 14.9688 47.6703 15.0828 49.9878 15.0068C50.9376 13.943 52.2294 12.6893 52.8373 11.9674C53.4831 11.2836 54.5089 11.8155 54.053 12.3094L43.8331 23.973C42.1994 25.7587 40.1858 27.9622 40.1858 31.0016C40.1858 34.4589 41.9714 36.3965 44.137 36.3965H63.0192C65.1848 36.3965 67.1984 33.5471 67.1984 30.1278C67.1984 26.7085 65.2228 24.011 63.0572 23.897C60.9676 23.7451 60.5117 23.6311 58.4981 23.5931Z" fill="white"/>
<path d="M78.3028 16.7545C77.2011 21.3895 76.9351 25.8726 77.2391 30.1658C77.467 33.3191 79.4806 36.3965 83.6218 36.3965C87.8389 36.3965 89.7006 33.3191 90.0045 30.1658C90.2704 25.8726 89.8145 18.8061 88.1429 13.7151C87.9529 13.2212 88.9787 12.9552 89.2446 13.6391C89.5486 14.5509 89.9285 15.7287 90.1565 16.7545H91.4102C95.0195 16.7545 97.451 14.171 97.451 10.4857C97.451 6.80047 95.0195 4.48293 91.4102 4.21699C88.5988 4.02703 86.1293 3.91305 83.6978 3.91305C81.2282 3.91305 78.7207 3.98903 75.7953 4.21699C72.1481 4.48293 69.7546 6.72448 69.7546 10.5617C69.7546 14.247 72.1481 16.7545 75.7953 16.7545H78.3028Z" fill="white"/>
<path d="M101.673 31.3056C100.913 24.087 100.913 16.1466 101.673 8.96604C101.939 6.1546 103.496 3.91305 106.726 3.91305C109.879 3.91305 111.475 6.1546 111.741 8.96604C112.5 16.1466 112.5 24.087 111.741 31.3056C111.475 34.155 109.879 36.3965 106.726 36.3965C103.496 36.3965 101.939 34.155 101.673 31.3056Z" fill="white"/>
</g>
<path id="MZTI (Stroke)" fill-rule="evenodd" clip-rule="evenodd" d="M17.6285 27.1645C17.1349 26.2621 16.6257 25.2758 16.1357 24.2524C16.0615 24.0975 15.9877 23.9417 15.9145 23.7852C15.6275 23.1714 15.3491 22.547 15.0867 21.9217C14.6826 20.959 14.3165 19.9944 14.015 19.0634C14.0145 19.0617 14.014 19.0601 14.0134 19.0585C14.0026 19.025 13.9919 18.9916 13.9812 18.9582C13.7992 18.2665 12.9544 18.412 13.0846 19.1941C13.0872 19.2097 13.0902 19.2256 13.0936 19.2417C13.0976 19.2608 13.1022 19.2803 13.1074 19.3001C13.3881 20.3527 13.7264 21.2757 14.14 22.2553C14.3982 22.8668 14.6858 23.5003 15.007 24.2011C14.9332 25.8241 14.8276 27.272 14.6902 28.7714C14.69 28.7736 14.6898 28.7758 14.6896 28.7781C14.667 29.0244 14.6435 29.2722 14.6192 29.5224C14.5631 30.0999 14.5024 30.6902 14.4371 31.3057C14.1712 34.1551 12.5755 36.3967 9.42211 36.3967C6.19276 36.3967 4.63507 34.1551 4.36912 31.3057C3.60928 24.0872 3.60928 16.1468 4.36912 8.9662C4.63507 6.15477 6.19276 3.91321 9.42211 3.91321C11.2457 3.91321 12.5375 4.63507 13.3733 5.77484C14.938 8.01403 16.4836 11.0387 17.8876 14.0189C17.9882 14.2324 18.0881 14.4458 18.1872 14.6585C18.5471 15.4313 18.8969 16.1971 19.2343 16.9413C19.2541 16.9851 19.274 17.0288 19.2937 17.0725C19.3725 17.2465 19.4507 17.4192 19.5281 17.5905C19.794 18.0844 20.174 18.0844 20.4399 17.5905L20.4494 17.5694C20.5237 17.405 20.5986 17.2394 20.674 17.0726C20.6937 17.029 20.7135 16.9853 20.7333 16.9415C21.0704 16.1965 21.4188 15.4298 21.777 14.6561C21.8758 14.4427 21.9753 14.2287 22.0756 14.0145C23.4702 11.0357 25.0037 8.01293 26.5947 5.77484C27.3925 4.63507 28.7222 3.91321 30.5459 3.91321C33.7752 3.91321 35.2949 6.15477 35.5989 8.9662C36.3207 16.1468 36.3207 24.0872 35.5989 31.3057C35.2949 34.1551 33.7752 36.3967 30.5459 36.3967C27.3925 36.3967 25.7968 34.1551 25.5309 31.3057C25.4656 30.6902 25.4049 30.0999 25.3488 29.5224C25.3245 29.2722 25.301 29.0244 25.2784 28.7781C25.2782 28.7758 25.278 28.7736 25.2778 28.7714C25.1404 27.272 25.0348 25.8241 24.961 24.2011C25.2822 23.5003 25.5698 22.8668 25.828 22.2553C26.2416 21.2757 26.5799 20.3527 26.8606 19.3001C26.8658 19.2803 26.8704 19.2608 26.8744 19.2417C26.8778 19.2256 26.8808 19.2097 26.8834 19.1941C27.0136 18.412 26.1688 18.2665 25.9868 18.9582C25.9761 18.9916 25.9654 19.025 25.9545 19.0585C25.954 19.0601 25.9535 19.0617 25.953 19.0634C25.6515 19.9944 25.2853 20.959 24.8813 21.9217C24.6189 22.547 24.3405 23.1714 24.0535 23.7852C23.9803 23.9417 23.9065 24.0975 23.8323 24.2524C23.3423 25.2758 22.8331 26.2621 22.3395 27.1645C22.0974 27.6056 21.7764 27.9463 21.4126 28.1866C20.5421 28.7615 19.4259 28.7615 18.5554 28.1866C18.1915 27.9463 17.8706 27.6056 17.6285 27.1645ZM18.1636 32.1545C19.3499 32.5045 20.6181 32.5045 21.8044 32.1545C22.0516 33.9961 22.7377 35.9151 24.1338 37.4637C25.737 39.242 27.9806 40.1959 30.5459 40.1959C33.1303 40.1959 35.3859 39.2546 36.9984 37.4556C37.282 37.1393 37.5354 36.808 37.7614 36.4658C37.9411 36.7678 38.1395 37.0587 38.3571 37.3368C39.7603 39.1303 41.8316 40.1959 44.1371 40.1959H63.0193C65.8281 40.1959 67.8934 38.4024 69.0638 36.6791C70.2921 34.8706 70.9977 32.5502 70.9977 30.128C70.9977 27.7105 70.304 25.4209 69.0742 23.6258C68.1257 22.2414 66.6698 20.9164 64.7862 20.3638L65.9866 19.0023C66.5152 18.4346 67.2059 17.6813 67.8862 16.7488C68.1274 17.0752 68.3917 17.3879 68.6794 17.6847C70.063 19.1119 71.8273 20.0068 73.7656 20.3691C73.2908 23.8243 73.2194 27.1861 73.4493 30.4342L73.4497 30.4399C73.6122 32.6865 74.4193 35.0989 76.1419 37.0086C77.9386 39.0004 80.5163 40.1959 83.6218 40.1959C86.7579 40.1959 89.3342 39.0044 91.1247 36.9829C92.8243 35.0639 93.5797 32.6732 93.7862 30.5304L93.7925 30.4657L93.7965 30.4008C93.9616 27.7355 93.8762 24.0781 93.4143 20.3686C94.8392 20.0988 96.1645 19.5365 97.3122 18.696C97.2587 23.0781 97.4521 27.4939 97.8921 31.6829C98.0789 33.6441 98.74 35.7709 100.266 37.4637C101.884 39.2588 104.147 40.1959 106.726 40.1959C109.291 40.1959 111.534 39.242 113.138 37.4637C114.653 35.7825 115.332 33.6648 115.521 31.6835C116.306 24.213 116.306 16.0209 115.521 8.58556C115.331 6.6148 114.647 4.50706 113.131 2.83416C111.53 1.06703 109.29 0.113977 106.726 0.113977C104.148 0.113977 101.889 1.05024 100.273 2.83416C99.8681 3.28063 99.5239 3.75746 99.2331 4.25351C99.0044 3.95682 98.7562 3.67217 98.4885 3.40082C96.6692 1.55711 94.2353 0.615778 91.6894 0.428188L91.6779 0.427339L91.6664 0.426559C88.8105 0.233597 86.2477 0.113977 83.6978 0.113977C81.1448 0.113977 78.5406 0.192726 75.5089 0.42872C72.9855 0.614653 70.5344 1.51728 68.6969 3.38791C68.6865 3.39849 68.6762 3.40909 68.6658 3.41971C68.5909 3.31964 68.5135 3.22109 68.4334 3.12413C66.9905 1.37541 64.9993 0.492869 62.9813 0.351251L62.9783 0.351038L62.9752 0.350831C56.1535 -0.116944 51.0788 -0.116944 44.2571 0.350831L44.254 0.351038L44.251 0.351251C42.2466 0.491909 40.2524 1.36262 38.7922 3.08663C38.4932 3.4397 38.2279 3.81478 37.9953 4.20895C37.7126 3.73243 37.3804 3.27341 36.9919 2.84224C35.381 1.05448 33.1295 0.113977 30.5459 0.113977C27.6344 0.113977 25.0805 1.32185 23.491 3.58361C22.2529 5.32712 21.0679 7.45646 19.9768 9.62735C18.882 7.45784 17.7015 5.33587 16.4875 3.59864L16.4627 3.56309L16.437 3.52811C14.8484 1.36173 12.3917 0.113977 9.42211 0.113977C6.84407 0.113977 4.58583 1.05024 2.96915 2.83416C1.44259 4.51864 0.77702 6.63522 0.588938 8.58572C-0.196345 16.0208 -0.196166 24.2126 0.588598 31.6829C0.775397 33.6441 1.43643 35.7709 2.96257 37.4637C4.58095 39.2588 6.84335 40.1959 9.42211 40.1959C11.9874 40.1959 14.231 39.242 15.8342 37.4637C17.2303 35.9151 17.9164 33.9961 18.1636 32.1545ZM39.9031 17.1372C39.9479 18.9695 39.9513 20.8132 39.9135 22.6491C40.252 22.2549 40.5707 21.9084 40.8449 21.6103C40.8994 21.551 40.9522 21.4936 41.003 21.4382L43.5594 18.5206C42.2281 18.3934 40.9705 17.9356 39.9031 17.1372ZM43.8331 23.9732C42.1994 25.7588 40.1858 27.9624 40.1858 31.0018C40.1858 34.4591 41.9715 36.3967 44.1371 36.3967H63.0193C65.1848 36.3967 67.1984 33.5473 67.1984 30.128C67.1984 26.7086 65.2228 24.0112 63.0573 23.8972C62.5428 23.8598 62.1273 23.8247 61.7632 23.7924C61.6307 23.7807 61.5049 23.7693 61.3837 23.7584C60.4857 23.6772 59.8354 23.6185 58.4982 23.5933C58.2799 23.8115 57.8507 24.2855 57.3888 24.808C56.7249 25.5592 55.9936 26.4106 55.7247 26.7466C55.5714 26.9322 55.3924 27.0544 55.2121 27.1252C55.1884 27.1345 55.1646 27.1429 55.1408 27.1505C54.496 27.356 53.8755 26.9242 54.395 26.4047L63.1712 16.4507C64.1982 15.3486 65.3902 13.9823 66.0834 12.2974C66.3074 11.7528 66.4793 11.1749 66.5766 10.5619C66.635 10.1947 66.6665 9.8149 66.6665 9.42211C66.6665 8.63228 66.5733 7.93565 66.4037 7.32904C65.8308 5.28033 64.3862 4.25842 62.7153 4.14117C56.0667 3.68526 51.1656 3.68526 44.517 4.14117C42.3514 4.29314 40.4898 5.9648 40.4898 9.42211C40.4898 12.8414 41.8195 14.5511 43.9471 14.741C45.0136 14.841 45.8609 14.9191 46.6716 14.9688C47.7092 15.0324 48.6869 15.0496 49.9879 15.007C50.2829 14.6765 50.611 14.3278 50.9413 13.9823C51.1231 13.792 51.3057 13.6028 51.4838 13.4182C52.0234 12.8588 52.5222 12.3417 52.8373 11.9676C52.9873 11.8087 53.1579 11.7155 53.3256 11.6721C53.3354 11.6696 53.3451 11.6672 53.3549 11.665C53.898 11.543 54.3969 11.937 54.0531 12.3095L43.8331 23.9732ZM70.3384 7.61818C70.0933 8.15971 69.9213 8.76186 69.8303 9.42211C69.7802 9.78466 69.7546 10.1647 69.7546 10.5619C69.7546 11.273 69.8437 11.9402 70.0137 12.554C70.6099 14.7063 72.201 16.202 74.434 16.6295C74.8648 16.7119 75.3194 16.7546 75.7954 16.7546H78.3029C77.999 18.0329 77.7588 19.2996 77.5765 20.5539C77.0978 23.8479 77.019 27.0567 77.2391 30.1659C77.467 33.3193 79.4806 36.3967 83.6218 36.3967C87.839 36.3967 89.7006 33.3193 90.0045 30.1659C90.1628 27.6107 90.0654 24.0728 89.6081 20.5539C89.4525 19.3569 89.2553 18.1621 89.0124 17.0089C89.012 17.0067 89.0115 17.0046 89.0111 17.0025C88.793 15.9682 88.5381 14.9674 88.2435 14.0286C88.2382 14.0118 88.2329 13.995 88.2276 13.9783C88.1998 13.89 88.1715 13.8024 88.1429 13.7152C87.9857 13.3065 88.6612 13.0539 89.0495 13.3666C89.0639 13.3782 89.078 13.3906 89.0915 13.4038C89.1541 13.4646 89.207 13.5424 89.2447 13.6393C89.5377 14.5182 89.9013 15.6443 90.1313 16.6431C90.1399 16.6805 90.1483 16.7177 90.1565 16.7546H91.4102C91.8995 16.7546 92.3672 16.7072 92.81 16.6159C95.6341 16.034 97.451 13.6716 97.451 10.4859C97.451 6.80064 95.0195 4.4831 91.4102 4.21715C88.5988 4.02719 86.1293 3.91321 83.6978 3.91321C81.2283 3.91321 78.7208 3.9892 75.7954 4.21715C73.2131 4.40545 71.2592 5.58407 70.3384 7.61818ZM111.741 8.9662C111.475 6.15477 109.879 3.91321 106.726 3.91321C103.496 3.91321 101.939 6.15477 101.673 8.9662C100.913 16.1468 100.913 24.0872 101.673 31.3057C101.939 34.1551 103.496 36.3967 106.726 36.3967C109.879 36.3967 111.475 34.1551 111.741 31.3057C112.5 24.0872 112.5 16.1468 111.741 8.9662Z" fill="black"/>
</g>
</g>
</svg>
