<svg width="76" height="76" viewBox="0 0 76 76" fill="none" xmlns="http://www.w3.org/2000/svg">
<path d="M73 38C73 18.68 57.32 3 38 3C18.68 3 3 18.68 3 38C3 57.32 18.68 73 38 73" stroke="#292D32" stroke-width="6" stroke-linecap="round" stroke-linejoin="round"/>
<path d="M24.0003 6.5H27.5003C20.6753 26.94 20.6753 49.06 27.5003 69.5H24.0003" stroke="#292D32" stroke-width="6" stroke-linecap="round" stroke-linejoin="round"/>
<path d="M48.5 6.5C51.895 16.72 53.61 27.36 53.61 38" stroke="#292D32" stroke-width="6" stroke-linecap="round" stroke-linejoin="round"/>
<path d="M6.5 52V48.5C16.72 51.895 27.36 53.61 38 53.61" stroke="#292D32" stroke-width="6" stroke-linecap="round" stroke-linejoin="round"/>
<path d="M6.5 27.5003C26.94 20.6753 49.06 20.6753 69.5 27.5003" stroke="#292D32" stroke-width="6" stroke-linecap="round" stroke-linejoin="round"/>
<path d="M59.7 70.9C65.8856 70.9 70.9 65.8856 70.9 59.7C70.9 53.5145 65.8856 48.5 59.7 48.5C53.5145 48.5 48.5 53.5145 48.5 59.7C48.5 65.8856 53.5145 70.9 59.7 70.9Z" stroke="#A9ABAD" stroke-width="6" stroke-linecap="round" stroke-linejoin="round"/>
<path d="M73 73L69.5 69.5" stroke="#A9ABAD" stroke-width="6" stroke-linecap="round" stroke-linejoin="round"/>
</svg>
