<svg width="47" height="47" viewBox="0 0 47 47" fill="none" xmlns="http://www.w3.org/2000/svg">
<circle cx="23.5" cy="23.5" r="22.5" fill="white" stroke="#C5C5C5" stroke-width="2"/>
<path d="M15.543 27.3438H19.9297V28.082H18.1719V33H17.3086V28.082H15.543V27.3438ZM25.9727 30.1719C25.9727 30.763 25.8633 31.2786 25.6445 31.7188C25.4258 32.1562 25.1237 32.4922 24.7383 32.7266C24.3529 32.9609 23.9154 33.0781 23.4258 33.0781C22.9336 33.0781 22.4948 32.9609 22.1094 32.7266C21.7266 32.4922 21.4258 32.1562 21.207 31.7188C20.9883 31.2786 20.8789 30.763 20.8789 30.1719C20.8789 29.5807 20.9883 29.0664 21.207 28.6289C21.4258 28.1888 21.7266 27.8516 22.1094 27.6172C22.4948 27.3828 22.9336 27.2656 23.4258 27.2656C23.9154 27.2656 24.3529 27.3828 24.7383 27.6172C25.1237 27.8516 25.4258 28.1888 25.6445 28.6289C25.8633 29.0664 25.9727 29.5807 25.9727 30.1719ZM25.125 30.1719C25.125 29.724 25.0521 29.3411 24.9062 29.0234C24.7604 28.7031 24.5586 28.4609 24.3008 28.2969C24.0456 28.1328 23.7539 28.0508 23.4258 28.0508C23.0977 28.0508 22.806 28.1328 22.5508 28.2969C22.2956 28.4609 22.0938 28.7031 21.9453 29.0234C21.7995 29.3411 21.7266 29.724 21.7266 30.1719C21.7266 30.6172 21.7995 30.9987 21.9453 31.3164C22.0938 31.6341 22.2956 31.8763 22.5508 32.043C22.806 32.207 23.0977 32.2904 23.4258 32.293C23.7539 32.2904 24.0456 32.207 24.3008 32.043C24.5586 31.8763 24.7604 31.6341 24.9062 31.3164C25.0521 30.9987 25.125 30.6172 25.125 30.1719ZM27.4453 27.3438H29.4609C29.888 27.3438 30.2487 27.4232 30.543 27.582C30.8372 27.7383 31.0573 27.9544 31.2031 28.2305C31.3516 28.5065 31.4258 28.8229 31.4258 29.1797C31.4258 29.5339 31.3516 29.849 31.2031 30.125C31.0547 30.401 30.8333 30.6185 30.5391 30.7773C30.2448 30.9362 29.8841 31.0156 29.457 31.0156H28.0664V30.2852H29.375C29.6458 30.2852 29.8698 30.2383 30.0469 30.1445C30.224 30.0482 30.3529 29.918 30.4336 29.7539C30.5143 29.5898 30.556 29.3984 30.5586 29.1797C30.556 28.9583 30.5143 28.7656 30.4336 28.6016C30.3529 28.4375 30.2227 28.3099 30.043 28.2188C29.8659 28.1276 29.6419 28.082 29.3711 28.082H28.3047V33H27.4453V27.3438Z" fill="black"/>
<path opacity="0.6" d="M14 21L23 12L32 21" stroke="black" stroke-width="2" stroke-linecap="round"/>
</svg>
