<svg width="76" height="73" viewBox="0 0 76 73" fill="none" xmlns="http://www.w3.org/2000/svg">
<path d="M55.5 59.0001H41.5L25.925 69.3601C23.615 70.9001 20.5 69.2551 20.5 66.4551V59.0001C10 59.0001 3 52.0001 3 41.5001V20.5C3 10 10 3 20.5 3H55.5C66 3 73 10 73 20.5V41.5001C73 52.0001 66 59.0001 55.5 59.0001Z" stroke="#292D32" stroke-width="6" stroke-miterlimit="10" stroke-linecap="round" stroke-linejoin="round"/>
<path opacity="0.4" d="M37.9995 34.254V33.519C37.9995 31.139 39.4695 29.879 40.9395 28.864C42.3745 27.884 43.8095 26.624 43.8095 24.314C43.8095 21.094 41.2195 18.5039 37.9995 18.5039C34.7795 18.5039 32.1895 21.094 32.1895 24.314" stroke="#292D32" stroke-width="6" stroke-linecap="round" stroke-linejoin="round"/>
<path opacity="0.4" d="M37.9846 42.6194H38.0161" stroke="#292D32" stroke-width="6" stroke-linecap="round" stroke-linejoin="round"/>
</svg>
