<svg width="22" height="22" viewBox="0 0 22 22" fill="none" xmlns="http://www.w3.org/2000/svg">
<path d="M15 7.98986V19.3499C15 20.7999 13.96 21.4099 12.69 20.7099L8.76001 18.5199C8.34001 18.2899 7.65999 18.2899 7.23999 18.5199L3.31 20.7099C2.04 21.4099 1 20.7999 1 19.3499V7.98986C1 6.27986 2.39999 4.87987 4.10999 4.87987H11.89C13.6 4.87987 15 6.27986 15 7.98986Z" stroke="#292D32" stroke-width="2" stroke-linecap="round" stroke-linejoin="round"/>
<path d="M21 4.10999V15.47C21 16.92 19.96 17.53 18.69 16.83L15 14.77V7.98999C15 6.27999 13.6 4.88 11.89 4.88H7V4.10999C7 2.39999 8.39999 1 10.11 1H17.89C19.6 1 21 2.39999 21 4.10999Z" stroke="#292D32" stroke-width="2" stroke-linecap="round" stroke-linejoin="round"/>
</svg>
