<svg width="22" height="22" viewBox="0 0 22 22" fill="none" xmlns="http://www.w3.org/2000/svg">
<mask id="path-1-inside-1_1203_3112" fill="white">
<path d="M13.9068 22.0004H7.83836C2.34645 22.0004 0 19.654 0 14.1621V8.09367C0 2.60176 2.34645 0.25531 7.83836 0.25531H9.86116C10.2758 0.25531 10.6197 0.599186 10.6197 1.01386C10.6197 1.42854 10.2758 1.77241 9.86116 1.77241H7.83836C3.1758 1.77241 1.5171 3.43111 1.5171 8.09367V14.1621C1.5171 18.8246 3.1758 20.4833 7.83836 20.4833H13.9068C18.5693 20.4833 20.228 18.8246 20.228 14.1621V12.1393C20.228 11.7246 20.5719 11.3807 20.9866 11.3807C21.4012 11.3807 21.7451 11.7246 21.7451 12.1393V14.1621C21.7451 19.654 19.3987 22.0004 13.9068 22.0004Z"/>
</mask>
<path d="M13.9068 22.0004H7.83836C2.34645 22.0004 0 19.654 0 14.1621V8.09367C0 2.60176 2.34645 0.25531 7.83836 0.25531H9.86116C10.2758 0.25531 10.6197 0.599186 10.6197 1.01386C10.6197 1.42854 10.2758 1.77241 9.86116 1.77241H7.83836C3.1758 1.77241 1.5171 3.43111 1.5171 8.09367V14.1621C1.5171 18.8246 3.1758 20.4833 7.83836 20.4833H13.9068C18.5693 20.4833 20.228 18.8246 20.228 14.1621V12.1393C20.228 11.7246 20.5719 11.3807 20.9866 11.3807C21.4012 11.3807 21.7451 11.7246 21.7451 12.1393V14.1621C21.7451 19.654 19.3987 22.0004 13.9068 22.0004Z" fill="#292D32"/>
<path d="M13.9068 20.0004H7.83836V24.0004H13.9068V20.0004ZM7.83836 20.0004C5.32199 20.0004 4.00251 19.4551 3.27393 18.7265C2.54534 17.9979 2 16.6784 2 14.1621H-2C-2 17.1376 -1.37212 19.7373 0.4455 21.5549C2.26312 23.3725 4.86282 24.0004 7.83836 24.0004V20.0004ZM2 14.1621V8.09367H-2V14.1621H2ZM2 8.09367C2 5.5773 2.54534 4.25782 3.27393 3.52924C4.00251 2.80065 5.32199 2.25531 7.83836 2.25531V-1.74469C4.86282 -1.74469 2.26312 -1.11681 0.4455 0.70081C-1.37212 2.51843 -2 5.11813 -2 8.09367H2ZM7.83836 2.25531H9.86116V-1.74469H7.83836V2.25531ZM9.86116 2.25531C9.17126 2.25531 8.61971 1.70376 8.61971 1.01386H12.6197C12.6197 -0.505383 11.3804 -1.74469 9.86116 -1.74469V2.25531ZM8.61971 1.01386C8.61971 0.323966 9.17126 -0.227589 9.86116 -0.227589V3.77241C11.3804 3.77241 12.6197 2.5331 12.6197 1.01386H8.61971ZM9.86116 -0.227589H7.83836V3.77241H9.86116V-0.227589ZM7.83836 -0.227589C5.36597 -0.227589 3.09405 0.191369 1.51506 1.77037C-0.063941 3.34936 -0.482899 5.62128 -0.482899 8.09367H3.5171C3.5171 5.90349 3.92749 5.01478 4.34348 4.59879C4.75947 4.1828 5.64818 3.77241 7.83836 3.77241V-0.227589ZM-0.482899 8.09367V14.1621H3.5171V8.09367H-0.482899ZM-0.482899 14.1621C-0.482899 16.6345 -0.063941 18.9064 1.51506 20.4854C3.09405 22.0644 5.36597 22.4833 7.83836 22.4833V18.4833C5.64818 18.4833 4.75947 18.0729 4.34348 17.6569C3.92749 17.241 3.5171 16.3522 3.5171 14.1621H-0.482899ZM7.83836 22.4833H13.9068V18.4833H7.83836V22.4833ZM13.9068 22.4833C16.3791 22.4833 18.6511 22.0644 20.2301 20.4854C21.8091 18.9064 22.228 16.6345 22.228 14.1621H18.228C18.228 16.3522 17.8176 17.241 17.4016 17.6569C16.9856 18.0729 16.0969 18.4833 13.9068 18.4833V22.4833ZM22.228 14.1621V12.1393H18.228V14.1621H22.228ZM22.228 12.1393C22.228 12.8292 21.6765 13.3807 20.9866 13.3807V9.38072C19.4673 9.38072 18.228 10.62 18.228 12.1393H22.228ZM20.9866 13.3807C20.2967 13.3807 19.7451 12.8292 19.7451 12.1393H23.7451C23.7451 10.62 22.5058 9.38072 20.9866 9.38072V13.3807ZM19.7451 12.1393V14.1621H23.7451V12.1393H19.7451ZM19.7451 14.1621C19.7451 16.6784 19.1998 17.9979 18.4712 18.7265C17.7426 19.4551 16.4231 20.0004 13.9068 20.0004V24.0004C16.8823 24.0004 19.482 23.3725 21.2996 21.5549C23.1172 19.7373 23.7451 17.1376 23.7451 14.1621H19.7451Z" fill="black" mask="url(#path-1-inside-1_1203_3112)"/>
<mask id="path-3-inside-2_1203_3112" fill="white">
<path d="M7.33203 16.8829C6.71508 16.8829 6.14869 16.6603 5.73402 16.2558C5.23843 15.7602 5.02604 15.0421 5.13729 14.2836L5.57219 11.2392C5.6531 10.6526 6.03744 9.89407 6.45211 9.4794L14.4219 1.50952C16.4346 -0.503172 18.4776 -0.503172 20.4903 1.50952C21.5927 2.61194 22.0883 3.7346 21.9872 4.85725C21.8962 5.76751 21.4107 6.65755 20.4903 7.56781L12.5205 15.5377C12.1058 15.9524 11.3472 16.3367 10.7606 16.4176L7.71636 16.8525C7.58488 16.8829 7.4534 16.8829 7.33203 16.8829ZM15.494 2.5816L7.5242 10.5515C7.33203 10.7436 7.10952 11.1887 7.06907 11.4516L6.63416 14.4959C6.59371 14.7893 6.65439 15.032 6.8061 15.1837C6.95781 15.3354 7.20055 15.3961 7.49385 15.3556L10.5381 14.9207C10.8011 14.8803 11.2562 14.6578 11.4383 14.4656L19.4081 6.49572C20.0655 5.83831 20.4094 5.2517 20.46 4.70554C20.5206 4.04813 20.1768 3.35027 19.4081 2.57149C17.7899 0.953246 16.6773 1.40838 15.494 2.5816Z"/>
</mask>
<path d="M7.33203 16.8829C6.71508 16.8829 6.14869 16.6603 5.73402 16.2558C5.23843 15.7602 5.02604 15.0421 5.13729 14.2836L5.57219 11.2392C5.6531 10.6526 6.03744 9.89407 6.45211 9.4794L14.4219 1.50952C16.4346 -0.503172 18.4776 -0.503172 20.4903 1.50952C21.5927 2.61194 22.0883 3.7346 21.9872 4.85725C21.8962 5.76751 21.4107 6.65755 20.4903 7.56781L12.5205 15.5377C12.1058 15.9524 11.3472 16.3367 10.7606 16.4176L7.71636 16.8525C7.58488 16.8829 7.4534 16.8829 7.33203 16.8829ZM15.494 2.5816L7.5242 10.5515C7.33203 10.7436 7.10952 11.1887 7.06907 11.4516L6.63416 14.4959C6.59371 14.7893 6.65439 15.032 6.8061 15.1837C6.95781 15.3354 7.20055 15.3961 7.49385 15.3556L10.5381 14.9207C10.8011 14.8803 11.2562 14.6578 11.4383 14.4656L19.4081 6.49572C20.0655 5.83831 20.4094 5.2517 20.46 4.70554C20.5206 4.04813 20.1768 3.35027 19.4081 2.57149C17.7899 0.953246 16.6773 1.40838 15.494 2.5816Z" fill="#292D32"/>
<path d="M5.73402 16.2558L4.3198 17.67L4.32853 17.6787L4.33737 17.6873L5.73402 16.2558ZM5.13729 14.2836L7.11613 14.5738L7.11719 14.5664L5.13729 14.2836ZM5.57219 11.2392L7.55211 11.5221L7.55343 11.5125L5.57219 11.2392ZM6.45211 9.4794L7.86632 10.8936L7.86633 10.8936L6.45211 9.4794ZM14.4219 1.50952L13.0077 0.0953035L13.0077 0.0953112L14.4219 1.50952ZM20.4903 1.50952L19.0761 2.92373L19.0761 2.92373L20.4903 1.50952ZM21.9872 4.85725L23.9773 5.05626L23.9782 5.04649L23.9791 5.03671L21.9872 4.85725ZM20.4903 7.56781L19.0839 6.14578L19.0761 6.1536L20.4903 7.56781ZM12.5205 15.5377L13.9347 16.9519L13.9347 16.9519L12.5205 15.5377ZM10.7606 16.4176L10.4874 14.4363L10.4778 14.4377L10.7606 16.4176ZM7.71636 16.8525L7.43351 14.8726L7.34942 14.8846L7.26664 14.9037L7.71636 16.8525ZM15.494 2.5816L14.0858 1.16132L14.0798 1.1674L15.494 2.5816ZM7.5242 10.5515L8.93841 11.9657L8.93842 11.9657L7.5242 10.5515ZM7.06907 11.4516L5.09232 11.1475L5.09069 11.1581L5.08917 11.1688L7.06907 11.4516ZM6.63416 14.4959L4.65424 14.2131L4.65292 14.2227L6.63416 14.4959ZM7.49385 15.3556L7.76713 17.3369L7.7767 17.3355L7.49385 15.3556ZM10.5381 14.9207L10.821 16.9006L10.8316 16.8991L10.8422 16.8975L10.5381 14.9207ZM11.4383 14.4656L10.0241 13.0514L10.0049 13.0705L9.98636 13.0901L11.4383 14.4656ZM19.4081 6.49572L17.9939 5.08151L17.9939 5.08151L19.4081 6.49572ZM20.46 4.70554L22.4514 4.88994L22.4515 4.88938L20.46 4.70554ZM19.4081 2.57149L20.8316 1.16652L20.8223 1.15727L19.4081 2.57149ZM7.33203 14.8829C7.20047 14.8829 7.14646 14.8396 7.13066 14.8242L4.33737 17.6873C5.15093 18.4811 6.22968 18.8829 7.33203 18.8829V14.8829ZM7.14823 14.8416C7.14485 14.8382 7.13375 14.8269 7.12334 14.7923C7.11222 14.7553 7.10009 14.6831 7.11612 14.5738L3.15846 13.9933C2.96782 15.2932 3.32032 16.6705 4.3198 17.67L7.14823 14.8416ZM7.11719 14.5664L7.55209 11.5221L3.59229 10.9564L3.15739 14.0007L7.11719 14.5664ZM7.55343 11.5125C7.55318 11.5143 7.5583 11.4805 7.58099 11.4132C7.60275 11.3485 7.63421 11.2722 7.67441 11.1921C7.71458 11.1121 7.75746 11.0403 7.79734 10.9825C7.81687 10.9542 7.83369 10.9321 7.84679 10.9161C7.86009 10.8998 7.867 10.8929 7.86632 10.8936L5.0379 8.06518C4.32294 8.78014 3.73298 9.93625 3.59095 10.966L7.55343 11.5125ZM7.86633 10.8936L15.8361 2.92372L13.0077 0.0953112L5.03789 8.06519L7.86633 10.8936ZM15.8361 2.92373C16.6191 2.14074 17.1543 2 17.4561 2C17.7579 2 18.2931 2.14074 19.0761 2.92373L21.9045 0.0953035C20.6748 -1.13439 19.1822 -2 17.4561 -2C15.73 -2 14.2374 -1.13439 13.0077 0.0953035L15.8361 2.92373ZM19.0761 2.92373C19.9193 3.76693 20.0257 4.3392 19.9952 4.6778L23.9791 5.03671C24.1509 3.12999 23.2662 1.45695 21.9045 0.0953031L19.0761 2.92373ZM19.9971 4.65825C19.9674 4.95508 19.7995 5.43807 19.0839 6.1458L21.8967 8.98981C23.0218 7.87702 23.8249 6.57995 23.9773 5.05626L19.9971 4.65825ZM19.0761 6.1536L11.1062 14.1235L13.9347 16.9519L21.9045 8.98202L19.0761 6.1536ZM11.1063 14.1235C11.1069 14.1228 11.1 14.1297 11.0838 14.143C11.0677 14.1561 11.0457 14.1729 11.0174 14.1925C10.9596 14.2323 10.8877 14.2752 10.8077 14.3154C10.7276 14.3556 10.6514 14.387 10.5867 14.4088C10.5193 14.4315 10.4855 14.4366 10.4874 14.4364L11.0339 18.3989C12.0636 18.2568 13.2197 17.6669 13.9347 16.9519L11.1063 14.1235ZM10.4778 14.4377L7.43351 14.8726L7.99921 18.8324L11.0435 18.3975L10.4778 14.4377ZM7.26664 14.9037C7.34158 14.8864 7.39318 14.8831 7.40297 14.8825C7.40831 14.8822 7.40698 14.8824 7.39465 14.8826C7.3807 14.8828 7.36464 14.8829 7.33203 14.8829V18.8829C7.42298 18.8829 7.77855 18.8907 8.16608 18.8013L7.26664 14.9037ZM14.0798 1.1674L6.10997 9.13728L8.93842 11.9657L16.9082 3.99581L14.0798 1.1674ZM6.10998 9.13727C5.79858 9.44867 5.58168 9.82092 5.45358 10.0752C5.3253 10.3298 5.15799 10.7207 5.09232 11.1475L9.04581 11.7557C9.03685 11.8139 9.02657 11.8545 9.02128 11.8738C9.01559 11.8945 9.01152 11.9058 9.01098 11.9073C9.01047 11.9087 9.01532 11.8958 9.0259 11.8748C9.0365 11.8538 9.04374 11.8427 9.04236 11.8448C9.04118 11.8466 9.03413 11.8571 9.02033 11.8745C9.0074 11.8909 8.98043 11.9237 8.93841 11.9657L6.10998 9.13727ZM5.08917 11.1688L4.65426 14.2131L8.61406 14.7788L9.04896 11.7345L5.08917 11.1688ZM4.65292 14.2227C4.56167 14.8843 4.64416 15.8502 5.39189 16.5979L8.22031 13.7695C8.66462 14.2138 8.62575 14.6942 8.61541 14.7692L4.65292 14.2227ZM5.39189 16.5979C6.13962 17.3456 7.10553 17.4281 7.76713 17.3369L7.22058 13.3744C7.29556 13.364 7.77601 13.3252 8.22031 13.7695L5.39189 16.5979ZM7.7767 17.3355L10.821 16.9006L10.2553 12.9408L7.21101 13.3757L7.7767 17.3355ZM10.8422 16.8975C11.2637 16.8326 11.6542 16.6683 11.913 16.5389C12.1603 16.4152 12.5623 16.1872 12.8902 15.8411L9.98636 13.0901C10.0377 13.036 10.0793 13.0007 10.101 12.9832C10.1241 12.9645 10.1394 12.954 10.1442 12.9508C10.1522 12.9454 10.1448 12.9508 10.1241 12.9612C10.1152 12.9656 10.1067 12.9696 10.0995 12.9727C10.0921 12.9759 10.0885 12.9771 10.0896 12.9767C10.0902 12.9765 10.1003 12.9729 10.1197 12.9676C10.1376 12.9627 10.1769 12.9528 10.234 12.944L10.8422 16.8975ZM12.8525 15.8798L20.8223 7.90993L17.9939 5.08151L10.0241 13.0514L12.8525 15.8798ZM20.8223 7.90994C21.6018 7.13045 22.3369 6.12738 22.4514 4.88994L18.4685 4.52115C18.4761 4.43918 18.4983 4.44168 18.437 4.54616C18.3728 4.65551 18.2419 4.83352 17.9939 5.08151L20.8223 7.90994ZM22.4515 4.88938C22.5935 3.3511 21.7495 2.09657 20.8315 1.16655L17.9847 3.97643C18.2733 4.26888 18.4007 4.46598 18.4511 4.56819C18.4932 4.65365 18.459 4.62404 18.4684 4.52171L22.4515 4.88938ZM20.8223 1.15727C19.8159 0.150821 18.5794 -0.598332 17.1036 -0.461744C15.7408 -0.335605 14.7377 0.515068 14.0859 1.16133L16.9021 4.00187C17.142 3.764 17.3111 3.63123 17.4263 3.56026C17.5323 3.49496 17.5393 3.51503 17.4723 3.52123C17.3903 3.52882 17.3595 3.50216 17.4215 3.53165C17.5049 3.57131 17.6951 3.68694 17.9939 3.9857L20.8223 1.15727Z" fill="black" mask="url(#path-3-inside-2_1203_3112)"/>
<mask id="path-5-inside-3_1203_3112" fill="white">
<path d="M18.8116 8.93289C18.7408 8.93289 18.67 8.92278 18.6093 8.90255C15.9494 8.15411 13.8355 6.04028 13.0871 3.3803C12.9758 2.97574 13.2085 2.56107 13.613 2.4397C14.0176 2.32844 14.4323 2.56107 14.5435 2.96563C15.1504 5.11991 16.8596 6.82918 19.0139 7.43602C19.4185 7.54727 19.6511 7.97206 19.5398 8.37662C19.4488 8.7205 19.1454 8.93289 18.8116 8.93289Z"/>
</mask>
<path d="M18.8116 8.93289C18.7408 8.93289 18.67 8.92278 18.6093 8.90255C15.9494 8.15411 13.8355 6.04028 13.0871 3.3803C12.9758 2.97574 13.2085 2.56107 13.613 2.4397C14.0176 2.32844 14.4323 2.56107 14.5435 2.96563C15.1504 5.11991 16.8596 6.82918 19.0139 7.43602C19.4185 7.54727 19.6511 7.97206 19.5398 8.37662C19.4488 8.7205 19.1454 8.93289 18.8116 8.93289Z" fill="#292D32"/>
<path d="M18.6093 8.90255L19.2418 7.00518L19.1968 6.99017L19.151 6.97731L18.6093 8.90255ZM13.0871 3.3803L11.1587 3.91062L11.1619 3.922L13.0871 3.3803ZM13.613 2.4397L13.0827 0.511287L13.0604 0.51741L13.0383 0.524045L13.613 2.4397ZM14.5435 2.96563L12.6151 3.49595L12.6184 3.5079L14.5435 2.96563ZM19.0139 7.43602L18.4716 9.36114L18.4836 9.36443L19.0139 7.43602ZM19.5398 8.37662L17.6114 7.84631L17.6089 7.85556L17.6064 7.86484L19.5398 8.37662ZM18.8116 6.93289C18.9169 6.93289 19.0647 6.94615 19.2418 7.00518L17.9769 10.7999C18.2754 10.8994 18.5647 10.9329 18.8116 10.9329V6.93289ZM19.151 6.97731C17.1618 6.41758 15.5721 4.8279 15.0123 2.8386L11.1619 3.922C12.099 7.25267 14.737 9.89064 18.0676 10.8278L19.151 6.97731ZM15.0155 2.84999C15.1971 3.51023 14.8068 4.16962 14.1877 4.35535L13.0383 0.524045C11.6101 0.952511 10.7546 2.44125 11.1587 3.91061L15.0155 2.84999ZM14.1433 4.36811C13.4959 4.54616 12.8003 4.16937 12.6151 3.49594L16.4719 2.43531C16.0642 0.952757 14.5393 0.110727 13.0827 0.511287L14.1433 4.36811ZM12.6184 3.5079C13.4141 6.33241 15.6471 8.56546 18.4716 9.3611L19.5562 5.51094C18.0721 5.09289 16.8866 3.90741 16.4686 2.42335L12.6184 3.5079ZM18.4836 9.36443C17.7872 9.17291 17.4398 8.47047 17.6114 7.84631L21.4682 8.90693C21.8624 7.47365 21.0498 5.92163 19.5442 5.50761L18.4836 9.36443ZM17.6064 7.86484C17.761 7.28105 18.2911 6.93289 18.8116 6.93289V10.9329C19.9996 10.9329 21.1367 10.1599 21.4732 8.88841L17.6064 7.86484Z" fill="black" mask="url(#path-5-inside-3_1203_3112)"/>
</svg>
