<svg width="22" height="7" viewBox="0 0 22 7" fill="none" xmlns="http://www.w3.org/2000/svg">
<path d="M3.22222 1C2 1 1 2 1 3.22222C1 4.44444 2 5.44444 3.22222 5.44444C4.44444 5.44444 5.44444 4.44444 5.44444 3.22222C5.44444 2 4.44444 1 3.22222 1Z" stroke="#292D32" stroke-width="2"/>
<path d="M18.7779 1C17.5557 1 16.5557 2 16.5557 3.22222C16.5557 4.44444 17.5557 5.44444 18.7779 5.44444C20.0001 5.44444 21.0001 4.44444 21.0001 3.22222C21.0001 2 20.0001 1 18.7779 1Z" stroke="#292D32" stroke-width="2"/>
<path d="M11.0001 1C9.77783 1 8.77783 2 8.77783 3.22222C8.77783 4.44444 9.77783 5.44444 11.0001 5.44444C12.2223 5.44444 13.2223 4.44444 13.2223 3.22222C13.2223 2 12.2223 1 11.0001 1Z" stroke="#292D32" stroke-width="2"/>
</svg>
