
<svg width="18" height="18" viewBox="0 0 18 18" fill="none" xmlns="http://www.w3.org/2000/svg">
<path d="M17.3401 12.3028C17.3401 15.4587 15.4587 17.3401 12.3028 17.3401H11.2711C10.7942 17.3401 10.4041 16.95 10.4041 16.4731V11.4705C10.4041 11.2364 10.5948 11.037 10.8289 11.037L12.3548 11.011C12.4762 11.0023 12.5803 10.9156 12.6063 10.7942L12.9097 9.13825C12.9357 8.98219 12.8144 8.83479 12.6496 8.83479L10.8029 8.8608C10.5601 8.8608 10.3694 8.67006 10.3607 8.43597L10.326 6.31181C10.326 6.17308 10.4388 6.05171 10.5861 6.05171L12.667 6.01702C12.8144 6.01702 12.9271 5.90432 12.9271 5.75693L12.8924 3.6761C12.8924 3.52871 12.7797 3.416 12.6323 3.416L10.2914 3.45069C8.85213 3.4767 7.70769 4.65582 7.7337 6.09505L7.77705 8.47932C7.78572 8.72208 7.59497 8.91282 7.35221 8.92149L6.31181 8.93884C6.16441 8.93884 6.05171 9.05155 6.05171 9.19894L6.07772 10.8462C6.07772 10.9936 6.19043 11.1064 6.33782 11.1064L7.37822 11.089C7.62099 11.089 7.81173 11.2798 7.8204 11.5138L7.89843 16.4558C7.9071 16.9413 7.51694 17.3401 7.03142 17.3401H5.03731C1.8814 17.3401 0 15.4587 0 12.2941V5.03731C0 1.8814 1.8814 0 5.03731 0H12.3028C15.4587 0 17.3401 1.8814 17.3401 5.03731V12.3028Z" fill="#1B1E26"/>
</svg>
