<svg width="19" height="19" viewBox="0 0 19 19" fill="none" xmlns="http://www.w3.org/2000/svg">
<path fill-rule="evenodd" clip-rule="evenodd" d="M9.67 16.0783C14.4583 16.0783 18.34 12.7029 18.34 8.53913C18.34 4.37538 14.4583 1 9.67 1C4.88169 1 1 4.37538 1 8.53913C1 11.1277 2.50023 13.4115 4.78587 14.769L4.33459 18.34L8.0415 15.9455C8.56896 16.0326 9.11336 16.0783 9.67 16.0783Z" fill="#1B1E26"/>
<path d="M4.78587 14.769L5.28192 14.8317C5.30688 14.6343 5.21233 14.4408 5.0412 14.3392L4.78587 14.769ZM4.33459 18.34L3.83854 18.2773C3.81416 18.4702 3.90381 18.6597 4.06837 18.7632C4.23294 18.8667 4.44259 18.8655 4.6059 18.76L4.33459 18.34ZM8.0415 15.9455L8.12302 15.4522C8.00039 15.4319 7.87461 15.458 7.7702 15.5255L8.0415 15.9455ZM17.84 8.53913C17.84 12.3634 14.2501 15.5783 9.67 15.5783V16.5783C14.6665 16.5783 18.84 13.0424 18.84 8.53913H17.84ZM9.67 1.5C14.2501 1.5 17.84 4.71486 17.84 8.53913H18.84C18.84 4.03591 14.6665 0.5 9.67 0.5V1.5ZM1.5 8.53913C1.5 4.71486 5.08993 1.5 9.67 1.5V0.5C4.67345 0.5 0.5 4.03591 0.5 8.53913H1.5ZM5.0412 14.3392C2.88121 13.0562 1.5 10.9229 1.5 8.53913H0.5C0.5 11.3324 2.11926 13.7668 4.53054 15.1989L5.0412 14.3392ZM4.83065 18.4027L5.28192 14.8317L4.28981 14.7064L3.83854 18.2773L4.83065 18.4027ZM7.7702 15.5255L4.06329 17.92L4.6059 18.76L8.3128 16.3655L7.7702 15.5255ZM9.67 15.5783C9.14069 15.5783 8.62356 15.5349 8.12302 15.4522L7.95998 16.4388C8.51437 16.5304 9.08603 16.5783 9.67 16.5783V15.5783Z" fill="black"/>
</svg>
