<svg width="22" height="23" viewBox="0 0 22 23" fill="none" xmlns="http://www.w3.org/2000/svg">
<path d="M17.4701 15.83L17.8601 18.99C17.9601 19.82 17.0701 20.4 16.3601 19.97L12.1701 17.48C11.7101 17.48 11.2601 17.45 10.8201 17.39C11.5601 16.52 12.0001 15.42 12.0001 14.23C12.0001 11.39 9.54012 9.09 6.50009 9.09C5.34009 9.09 4.27009 9.42 3.38009 10C3.35009 9.75 3.34009 9.5 3.34009 9.24C3.34009 4.68999 7.29009 1 12.1701 1C17.0501 1 21.0001 4.68999 21.0001 9.24C21.0001 11.94 19.6101 14.33 17.4701 15.83Z" stroke="#292D32" stroke-width="2" stroke-linecap="round" stroke-linejoin="round"/>
<path d="M12 14.23C12 15.42 11.56 16.5201 10.82 17.3901C9.83 18.5901 8.26 19.36 6.5 19.36L3.89 20.91C3.45 21.18 2.89 20.81 2.95 20.3L3.2 18.3301C1.86 17.4001 1 15.91 1 14.23C1 12.47 1.94 10.9201 3.38 10.0001C4.27 9.4201 5.34 9.0901 6.5 9.0901C9.54 9.0901 12 11.39 12 14.23Z" stroke="#292D32" stroke-width="2" stroke-linecap="round" stroke-linejoin="round"/>
</svg>
