<svg width="20" height="17" viewBox="0 0 20 17" fill="none" xmlns="http://www.w3.org/2000/svg">
<path d="M13.1132 8.50468C13.1132 10.2992 11.663 11.7494 9.86845 11.7494C8.07389 11.7494 6.62378 10.2992 6.62378 8.50468C6.62378 6.71012 8.07389 5.26001 9.86845 5.26001C11.663 5.26001 13.1132 6.71012 13.1132 8.50468Z" stroke="#545456" stroke-opacity="0.5" stroke-width="2" stroke-linecap="round" stroke-linejoin="round"/>
<path d="M9.86859 16C13.068 16 16.0499 14.1148 18.1254 10.852C18.9411 9.57403 18.9411 7.426 18.1254 6.14803C16.0499 2.88519 13.068 1 9.86859 1C6.66917 1 3.68731 2.88519 1.61178 6.14803C0.796073 7.426 0.796073 9.57403 1.61178 10.852C3.68731 14.1148 6.66917 16 9.86859 16Z" stroke="#545456" stroke-opacity="0.5" stroke-width="2" stroke-linecap="round" stroke-linejoin="round"/>
</svg>
