<svg width="30" height="30" viewBox="0 0 30 30" fill="none" xmlns="http://www.w3.org/2000/svg">
<path d="M15 30C6.72558 30 0 23.2744 0 15C0 6.72558 6.72558 0 15 0C23.2744 0 30 6.72558 30 15C30 23.2744 23.2744 30 15 30ZM15 2.09302C7.88372 2.09302 2.09302 7.88372 2.09302 15C2.09302 22.1163 7.88372 27.907 15 27.907C22.1163 27.907 27.907 22.1163 27.907 15C27.907 7.88372 22.1163 2.09302 15 2.09302Z" fill="#292D32"/>
<path d="M13.0181 19.9955C12.739 19.9955 12.4739 19.8839 12.2785 19.6886L8.32961 15.7397C7.92496 15.3351 7.92496 14.6653 8.32961 14.2607C8.73426 13.856 9.40403 13.856 9.80868 14.2607L13.0181 17.47L20.1901 10.2979C20.5948 9.89322 21.2646 9.89322 21.6692 10.2979C22.0739 10.7025 22.0739 11.3723 21.6692 11.7769L13.7576 19.6886C13.5622 19.8839 13.2971 19.9955 13.0181 19.9955Z" fill="#292D32"/>
</svg>
