<svg width="12" height="12" viewBox="0 0 12 12" fill="none" xmlns="http://www.w3.org/2000/svg">
<path d="M3.72693 9.3959L5.38451 10.6792C5.59839 10.8931 6.07962 11 6.40044 11H8.43231C9.07395 11 9.76906 10.5188 9.92947 9.87713L11.2127 5.97381C11.4801 5.22523 10.9989 4.58357 10.1968 4.58357H8.05802C7.73719 4.58357 7.46984 4.31622 7.52331 3.94193L7.79067 2.23089C7.89761 1.74966 7.57678 1.21496 7.09555 1.05455C6.66779 0.894139 6.13309 1.10802 5.91921 1.42884L3.72693 4.69051" stroke="#A7A7A7" stroke-miterlimit="10"/>
<path d="M1 9.39588V4.15582C1 3.40724 1.32082 3.13989 2.0694 3.13989H2.6041C3.35268 3.13989 3.6735 3.40724 3.6735 4.15582V9.39588C3.6735 10.1445 3.35268 10.4118 2.6041 10.4118H2.0694C1.32082 10.4118 1 10.1445 1 9.39588Z" stroke="#A7A7A7" stroke-linecap="round" stroke-linejoin="round"/>
</svg>
