<svg width="11" height="10" viewBox="0 0 11 10" fill="none" xmlns="http://www.w3.org/2000/svg">
<path d="M3.28479 8.33976V3.11748C3.28479 2.91188 3.34647 2.71142 3.45955 2.5418L4.86277 0.454937C5.0838 0.120834 5.63378 -0.115609 6.10153 0.059153C6.60525 0.228775 6.93935 0.79418 6.83141 1.2979L6.56413 2.9787C6.54357 3.1329 6.58469 3.27168 6.67207 3.37962C6.75945 3.47728 6.88795 3.53897 7.02673 3.53897H9.13929C9.54536 3.53897 9.89488 3.70345 10.1005 3.99128C10.2958 4.26885 10.3318 4.62865 10.2033 4.99359L8.93883 8.84349C8.77949 9.48085 8.08558 10 7.39682 10H5.3922C5.04782 10 4.56465 9.88178 4.34363 9.66076L3.68571 9.15189C3.43385 8.96171 3.28479 8.65845 3.28479 8.33976Z" fill="#A7A7A7"/>
<path d="M1.64996 2.11426H1.12053C0.323823 2.11426 0 2.42266 0 3.18339V8.35427C0 9.115 0.323823 9.4234 1.12053 9.4234H1.64996C2.44666 9.4234 2.77049 9.115 2.77049 8.35427V3.18339C2.77049 2.42266 2.44666 2.11426 1.64996 2.11426Z" fill="#A7A7A7"/>
</svg>
