<svg width="50" height="50" viewBox="0 0 50 50" fill="none" xmlns="http://www.w3.org/2000/svg">
<rect width="50" height="50" fill="#D9D9D9"/>
<path d="M31.758 19C31.148 19 30.588 18.65 30.308 18.11L29.588 16.66C29.128 15.75 27.928 15 26.908 15H24.618C23.588 15 22.388 15.75 21.928 16.66L21.208 18.11C20.928 18.65 20.368 19 19.758 19C17.588 19 15.868 20.83 16.008 22.99L16.528 31.25C16.648 33.31 17.758 35 20.518 35H30.998C33.758 35 34.858 33.31 34.988 31.25L35.508 22.99C35.648 20.83 33.928 19 31.758 19ZM24.258 20.25H27.258C27.668 20.25 28.008 20.59 28.008 21C28.008 21.41 27.668 21.75 27.258 21.75H24.258C23.848 21.75 23.508 21.41 23.508 21C23.508 20.59 23.848 20.25 24.258 20.25ZM25.758 31.12C23.898 31.12 22.378 29.61 22.378 27.74C22.378 25.87 23.888 24.36 25.758 24.36C27.628 24.36 29.138 25.87 29.138 27.74C29.138 29.61 27.618 31.12 25.758 31.12Z" fill="#292D32"/>
</svg>
