<svg width="12" height="12" viewBox="0 0 12 12" fill="none" xmlns="http://www.w3.org/2000/svg">
<path d="M4.24028 9.47458H3.99103C1.99701 9.47458 1 8.97607 1 6.48355V3.99103C1 1.99701 1.99701 1 3.99103 1H7.97906C9.97308 1 10.9701 1.99701 10.9701 3.99103V6.48355C10.9701 8.47757 9.97308 9.47458 7.97906 9.47458H7.72981C7.57528 9.47458 7.42572 9.54935 7.33101 9.67398L6.58325 10.671C6.25424 11.1097 5.71585 11.1097 5.38684 10.671L4.63908 9.67398C4.55932 9.56431 4.37488 9.47458 4.24028 9.47458Z" stroke="#A7A7A7" stroke-miterlimit="10" stroke-linecap="round" stroke-linejoin="round"/>
<path d="M7.97778 5.48657H7.98135" stroke="#A7A7A7" stroke-linecap="round" stroke-linejoin="round"/>
<path d="M5.98254 5.48657H5.98616" stroke="#A7A7A7" stroke-linecap="round" stroke-linejoin="round"/>
<path d="M3.9884 5.48657H3.99201" stroke="#A7A7A7" stroke-linecap="round" stroke-linejoin="round"/>
</svg>
