<svg width="15" height="15" viewBox="0 0 15 15" fill="none" xmlns="http://www.w3.org/2000/svg">
<path d="M12.7946 2.20616C12.008 1.41347 11.0532 0.807379 10.0006 0.432634C8.94809 0.0578891 7.82469 -0.0759333 6.71341 0.0410492C3.26927 0.387842 0.435129 3.18093 0.0503613 6.62074C-0.465791 11.1665 3.05343 15 7.49233 15C8.90951 15 10.2976 14.5984 11.4953 13.8418C12.6931 13.0853 13.6513 12.0048 14.2586 10.726C14.5589 10.098 14.1085 9.37634 13.414 9.37634C13.0668 9.37634 12.7383 9.56379 12.5882 9.87309C12.0433 11.0438 11.1114 11.9913 9.94914 12.5563C8.78691 13.1214 7.46531 13.2694 6.20665 12.9755C4.12327 12.5162 2.44343 10.8197 2.00235 8.73899C1.81694 7.9163 1.81909 7.06251 2.00864 6.24076C2.19818 5.41902 2.57028 4.65035 3.09739 3.9916C3.62451 3.33286 4.29317 2.80089 5.05391 2.43506C5.81465 2.06923 6.648 1.87889 7.49233 1.87811C9.05017 1.87811 10.4391 2.52484 11.4526 3.54647L10.0356 4.96176C9.44433 5.55224 9.85725 6.5645 10.6925 6.5645H14.0615C14.5777 6.5645 15 6.14273 15 5.62722V2.2624C15 1.42822 13.9865 1.00645 13.3952 1.59693L12.7946 2.20616Z" fill="#A9A9AA"/>
</svg>
