<svg width="30" height="30" viewBox="0 0 30 30" fill="none" xmlns="http://www.w3.org/2000/svg">
<path d="M15 30C6.72558 30 0 23.2744 0 15C0 6.72558 6.72558 0 15 0C23.2744 0 30 6.72558 30 15C30 23.2744 23.2744 30 15 30ZM15 2.09302C7.88372 2.09302 2.09302 7.88372 2.09302 15C2.09302 22.1163 7.88372 27.907 15 27.907C22.1163 27.907 27.907 22.1163 27.907 15C27.907 7.88372 22.1163 2.09302 15 2.09302Z" fill="#A5A5A5"/>
<path d="M13.0179 19.9954C12.7389 19.9954 12.4737 19.8838 12.2784 19.6884L8.32949 15.7396C7.92484 15.335 7.92484 14.6652 8.32949 14.2605C8.73414 13.8559 9.40391 13.8559 9.80856 14.2605L13.0179 17.4698L20.19 10.2978C20.5947 9.8931 21.2644 9.8931 21.6691 10.2978C22.0737 10.7024 22.0737 11.3722 21.6691 11.7768L13.7575 19.6884C13.5621 19.8838 13.297 19.9954 13.0179 19.9954Z" fill="#A5A5A5"/>
</svg>
