<svg width="11" height="9" viewBox="0 0 11 9" fill="none" xmlns="http://www.w3.org/2000/svg">
<path d="M9.24538 1.66506L7.22253 3.11141C6.9545 3.30358 6.57016 3.18726 6.45384 2.87878L5.49804 0.329978C5.33621 -0.109993 4.71419 -0.109993 4.55236 0.329978L3.59151 2.87372C3.4752 3.18726 3.09591 3.30358 2.82788 3.10635L0.805026 1.66001C0.400455 1.37681 -0.135602 1.77632 0.0312834 2.24663L2.13505 8.13822C2.20585 8.34051 2.39803 8.47199 2.61043 8.47199H7.42987C7.64227 8.47199 7.83444 8.33545 7.90524 8.13822L10.009 2.24663C10.181 1.77632 9.6449 1.37681 9.24538 1.66506ZM6.28696 6.33282H3.7584C3.55105 6.33282 3.37911 6.16088 3.37911 5.95354C3.37911 5.7462 3.55105 5.57425 3.7584 5.57425H6.28696C6.4943 5.57425 6.66624 5.7462 6.66624 5.95354C6.66624 6.16088 6.4943 6.33282 6.28696 6.33282Z" fill="#292D32"/>
</svg>
