<svg width="23" height="24" viewBox="0 0 23 24" fill="none" xmlns="http://www.w3.org/2000/svg">
<path d="M17.2246 23.7252H5.98492C2.98195 23.7252 1.07292 21.9341 0.901326 18.9419L0.343632 10.0938C0.257833 8.75322 0.719003 7.46623 1.64134 6.49027C2.55296 5.5143 3.83994 4.95661 5.16983 4.95661C5.51303 4.95661 5.8455 4.75284 6.00637 4.43109L6.77856 2.89743C7.41133 1.64262 8.9986 0.666656 10.3821 0.666656H12.8381C14.2216 0.666656 15.7982 1.64262 16.431 2.88671L17.2032 4.45254C17.364 4.75284 17.6858 4.95661 18.0397 4.95661C19.3696 4.95661 20.6566 5.5143 21.5682 6.49027C22.4905 7.47696 22.9517 8.75322 22.8659 10.0938L22.3082 18.9526C22.1152 21.9877 20.2597 23.7252 17.2246 23.7252ZM10.3821 2.27539C9.58849 2.27539 8.58034 2.89743 8.2157 3.616L7.4435 5.16038C6.99306 6.0291 6.12434 6.56534 5.16983 6.56534C4.26894 6.56534 3.43239 6.92999 2.81035 7.58421C2.19904 8.23842 1.88801 9.09641 1.95236 9.98658L2.51006 18.8453C2.63875 21.0118 3.80777 22.1164 5.98492 22.1164H17.2246C19.391 22.1164 20.56 21.0118 20.6995 18.8453L21.2572 9.98658C21.3108 9.09641 21.0105 8.23842 20.3992 7.58421C19.7771 6.92999 18.9406 6.56534 18.0397 6.56534C17.0852 6.56534 16.2165 6.0291 15.766 5.18183L14.9831 3.616C14.6292 2.90816 13.621 2.28611 12.8274 2.28611H10.3821V2.27539Z" fill="white"/>
<path d="M13.2137 8.71033H9.99626C9.55654 8.71033 9.19189 8.34568 9.19189 7.90596C9.19189 7.46624 9.55654 7.10159 9.99626 7.10159H13.2137C13.6534 7.10159 14.0181 7.46624 14.0181 7.90596C14.0181 8.34568 13.6534 8.71033 13.2137 8.71033Z" fill="white"/>
<path d="M11.6049 19.4352C9.2347 19.4352 7.31494 17.5154 7.31494 15.1452C7.31494 12.775 9.2347 10.8553 11.6049 10.8553C13.9751 10.8553 15.8948 12.775 15.8948 15.1452C15.8948 17.5154 13.9751 19.4352 11.6049 19.4352ZM11.6049 12.464C10.1249 12.464 8.92367 13.6652 8.92367 15.1452C8.92367 16.6252 10.1249 17.8264 11.6049 17.8264C13.0849 17.8264 14.2861 16.6252 14.2861 15.1452C14.2861 13.6652 13.0849 12.464 11.6049 12.464Z" fill="white"/>
</svg>
