<svg width="30" height="30" viewBox="0 0 30 30" fill="none" xmlns="http://www.w3.org/2000/svg">
<path d="M18.9638 29.0006H10.6887C7.05898 29.0006 4.70687 28.2213 3.24308 26.7575C1.77929 25.2937 1 22.9416 1 19.3119V11.0368C1 7.40712 1.77929 5.05501 3.24308 3.59122C4.70687 2.12744 7.05898 1.34814 10.6887 1.34814H13.447C13.4491 1.34814 13.4509 1.34839 13.4541 1.34973C13.4579 1.35138 13.4635 1.35475 13.4692 1.3604C13.4748 1.36605 13.4782 1.37164 13.4798 1.3755C13.4812 1.37862 13.4814 1.38049 13.4814 1.38253C13.4814 1.38457 13.4812 1.38644 13.4798 1.38957C13.4782 1.39343 13.4748 1.39902 13.4692 1.40467C13.4635 1.41032 13.4579 1.41369 13.4541 1.41534C13.4509 1.41667 13.4491 1.41692 13.447 1.41692H10.6887C7.4391 1.41692 4.93832 1.98453 3.28735 3.6355C1.63638 5.28647 1.06877 7.78724 1.06877 11.0368V19.3119C1.06877 22.5615 1.63638 25.0623 3.28735 26.7132C4.93832 28.3642 7.4391 28.9318 10.6887 28.9318H18.9638C22.2133 28.9318 24.7141 28.3642 26.3651 26.7132C28.0161 25.0623 28.5837 22.5615 28.5837 19.3119V16.5535C28.5837 16.5515 28.5839 16.5496 28.5852 16.5465C28.5869 16.5427 28.5903 16.5371 28.5959 16.5314C28.6016 16.5258 28.6072 16.5224 28.611 16.5207C28.6141 16.5194 28.616 16.5192 28.6181 16.5192C28.6201 16.5192 28.622 16.5194 28.6251 16.5207C28.6289 16.5224 28.6345 16.5258 28.6402 16.5314C28.6458 16.5371 28.6492 16.5427 28.6509 16.5465C28.6522 16.5496 28.6524 16.5515 28.6524 16.5535V19.3119C28.6524 22.9416 27.8731 25.2937 26.4094 26.7575C24.9456 28.2213 22.5935 29.0006 18.9638 29.0006Z" fill="#292D32" stroke="black" stroke-width="2"/>
<path d="M7.99488 19.6227L7.99541 19.619L8.58846 15.4676L8.58847 15.4677L8.58913 15.4629C8.66891 14.8845 9.09018 14.0489 9.50551 13.6336L8.7984 12.9264L9.50551 13.6336L20.3734 2.76553C21.634 1.50493 22.7773 1 23.8038 1C24.8304 1 25.9737 1.50493 27.2343 2.76554C28.606 4.13726 29.0878 5.39132 28.9871 6.52888C28.8923 7.46208 28.3889 8.47071 27.2382 9.60873L27.2343 9.61263L16.3663 20.4807C15.951 20.896 15.1154 21.3173 14.537 21.397L14.5322 21.3977L10.381 21.9907L10.3389 21.9968L10.2975 22.0063C10.2782 22.0108 10.2472 22.0156 10.1964 22.0186C10.1425 22.0218 10.0852 22.0221 9.99829 22.0221C9.4021 22.0221 8.88769 21.81 8.52194 21.4555C8.10094 21.0316 7.88325 20.3838 7.99488 19.6227ZM20.4242 2.81023L20.4211 2.81326L9.55322 13.6813C9.31455 13.92 9.11656 14.2437 8.97936 14.516C8.84207 14.7886 8.70163 15.1368 8.65133 15.4638L8.65127 15.4638L8.64975 15.4744L8.05669 19.6258L8.05603 19.6306C7.97547 20.2147 8.06912 20.9073 8.57401 21.4121C9.07889 21.917 9.77149 22.0107 10.3556 21.9301L10.3604 21.9295L14.5117 21.3364L14.5117 21.3365L14.5223 21.3348C14.8466 21.2849 15.1968 21.146 15.4726 21.0081C15.7384 20.8752 16.0707 20.6758 16.3124 20.4253L27.1728 9.56491C28.1303 8.6074 28.7948 7.59925 28.8958 6.50885L28.8958 6.50857C29.0192 5.17167 28.3002 3.9417 27.1774 2.8041L27.1774 2.80409L27.1728 2.79947C25.9708 1.59745 24.7629 0.971752 23.4824 1.09027C22.2583 1.20357 21.2611 1.98048 20.4242 2.81023Z" fill="#292D32" stroke="black" stroke-width="2"/>
</svg>
