<svg width="30" height="30" viewBox="0 0 30 30" fill="none" xmlns="http://www.w3.org/2000/svg">
<path d="M8.13122 20.7256C7.62912 20.7256 7.12704 20.6 6.66678 20.335C5.73232 19.8051 5.17442 18.8565 5.17442 17.7965V12.8174C5.17442 12.4548 4.93732 11.8412 4.64443 11.4925L1.12972 7.79646C0.474203 7.15489 0 6.03913 0 5.18835V3.02656C0 1.33895 1.28311 0 2.92887 0H15.3419C16.9597 0 18.2708 1.31105 18.2708 2.92892V4.99311C18.2708 6.08099 17.6431 7.28043 17.0295 7.8941L12.943 11.5064C12.6222 11.7714 12.3572 12.4131 12.3572 12.8873V16.9318C12.3572 17.8942 11.7714 18.9682 11.0043 19.4285L9.72112 20.2652C9.21902 20.572 8.67516 20.7256 8.13122 20.7256ZM2.92887 2.10603C2.45467 2.10603 2.09207 2.51053 2.09207 3.04052V5.20232C2.09207 5.43942 2.32919 6.03914 2.63603 6.34598L6.23433 10.1256C6.76433 10.7812 7.28037 11.8551 7.28037 12.8174V17.7965C7.28037 18.2149 7.54545 18.4243 7.71282 18.508C7.93597 18.6335 8.29853 18.7032 8.60536 18.508L9.90245 17.671C10.0698 17.5734 10.2651 17.183 10.2651 16.9459V12.9011C10.2651 11.7993 10.809 10.5859 11.5761 9.93037L15.5929 6.37386C15.844 6.12281 16.1787 5.43942 16.1787 4.99311V2.92892C16.1787 2.46866 15.8021 2.09207 15.3419 2.09207H2.92887V2.10603Z" fill="#292D32"/>
<path d="M19.1773 30.0001H10.809C3.23574 30.0001 0 26.7644 0 19.1911V15.007C0 14.4351 0.474203 13.9609 1.04604 13.9609C1.61787 13.9609 2.09207 14.4351 2.09207 15.007V19.1911C2.09207 25.6207 4.3794 27.9081 10.809 27.9081H19.1773C25.607 27.9081 27.8943 25.6207 27.8943 19.1911V10.8228C27.8943 6.77813 26.9459 4.43499 24.812 3.22159C24.5888 3.09607 23.8496 2.76136 21.7297 2.42663C21.1578 2.34295 20.7673 1.79898 20.8649 1.22715C20.9626 0.655317 21.5065 0.26481 22.0644 0.36244C23.8915 0.65533 25.1328 0.990048 25.8441 1.39452C28.6614 2.99844 29.9864 5.99709 29.9864 10.8228V19.1911C29.9864 26.7644 26.7506 30.0001 19.1773 30.0001Z" fill="#292D32"/>
<path d="M23.3614 17.4475H16.3878C15.816 17.4475 15.3418 16.9733 15.3418 16.4015C15.3418 15.8297 15.816 15.3555 16.3878 15.3555H23.3614C23.9332 15.3555 24.4074 15.8297 24.4074 16.4015C24.4074 16.9733 23.9332 17.4475 23.3614 17.4475Z" fill="#292D32"/>
<path d="M23.3615 23.0264H13.5985C13.0267 23.0264 12.5525 22.5522 12.5525 21.9804C12.5525 21.4085 13.0267 20.9343 13.5985 20.9343H23.3615C23.9334 20.9343 24.4076 21.4085 24.4076 21.9804C24.4076 22.5522 23.9334 23.0264 23.3615 23.0264Z" fill="#292D32"/>
</svg>
