<svg width="17" height="18" viewBox="0 0 17 18" fill="none" xmlns="http://www.w3.org/2000/svg">
<path d="M2.69981 14.8477C2.19925 14.8477 1.73151 14.6753 1.39507 14.3552C0.968358 13.9531 0.76321 13.3459 0.837064 12.6894L1.14068 10.0307C1.19812 9.53014 1.50174 8.86546 1.8546 8.5044L8.59167 1.37349C10.2739 -0.407195 12.03 -0.45643 13.8106 1.22578C15.5913 2.908 15.6406 4.66407 13.9583 6.44475L7.22128 13.5757C6.87663 13.9449 6.23656 14.2896 5.736 14.3717L3.09369 14.823C2.95419 14.8312 2.8311 14.8477 2.69981 14.8477ZM11.2258 1.21758C10.5939 1.21758 10.0441 1.61146 9.48612 2.20229L2.74904 9.34148C2.58493 9.51381 2.39619 9.92411 2.36337 10.1621L2.05975 12.8207C2.02692 13.0915 2.09257 13.3131 2.24028 13.4526C2.38798 13.5921 2.60954 13.6413 2.88034 13.6003L5.52265 13.149C5.76062 13.108 6.1545 12.8946 6.31862 12.7222L13.0557 5.59134C14.0732 4.50815 14.4425 3.50703 12.9572 2.11202C12.3007 1.48017 11.7345 1.21758 11.2258 1.21758Z" fill="#292D32"/>
<path d="M12.3831 7.81495C12.3667 7.81495 12.342 7.81495 12.3256 7.81495C9.76539 7.56057 7.7057 5.6158 7.31182 3.07197C7.26258 2.73553 7.49235 2.4237 7.82879 2.36626C8.16523 2.31702 8.47706 2.54679 8.5345 2.88323C8.84632 4.86907 10.4547 6.39537 12.4569 6.59231C12.7934 6.62513 13.0396 6.92875 13.0067 7.26515C12.9657 7.57698 12.6949 7.81495 12.3831 7.81495Z" fill="#292D32"/>
<path d="M15.3861 17.4981H0.615444C0.279001 17.4981 0 17.2191 0 16.8827C0 16.5462 0.279001 16.2672 0.615444 16.2672H15.3861C15.7226 16.2672 16.0016 16.5462 16.0016 16.8827C16.0016 17.2191 15.7226 17.4981 15.3861 17.4981Z" fill="#292D32"/>
</svg>
