<svg width="164" height="157" viewBox="0 0 164 157" fill="none" xmlns="http://www.w3.org/2000/svg">
<path d="M51.2458 156.622C49.1201 156.622 46.9183 156.091 44.9444 155.028C40.6169 152.75 37.9599 148.195 37.9599 143.336V132.556C15.0321 130.203 0 113.348 0 89.2054V43.6539C0 17.5375 17.5375 0 43.6539 0H119.574C145.69 0 163.227 17.5375 163.227 43.6539V89.2054C163.227 115.322 145.69 132.859 119.574 132.859H90.9519L58.6098 154.421C56.4082 155.864 53.8271 156.622 51.2458 156.622ZM43.6539 11.312C24.0666 11.312 11.388 23.9906 11.388 43.5779V89.1303C11.388 108.718 24.0666 121.396 43.6539 121.396C46.7666 121.396 49.3478 123.977 49.3478 127.09V143.261C49.3478 144.248 49.9552 144.704 50.3348 144.931C50.7145 145.159 51.4737 145.387 52.3088 144.855L86.093 122.383C87.0041 121.776 88.1429 121.396 89.2816 121.396H119.65C139.237 121.396 151.915 108.718 151.915 89.1303V43.5779C151.915 23.9906 139.237 11.312 119.65 11.312H43.6539Z" fill="#292D32"/>
<path d="M81.6123 79.1081C78.4996 79.1081 75.9183 76.5269 75.9183 73.4142V71.8198C75.9183 63.0131 82.3715 58.6856 84.8009 57.0154C87.6099 55.1174 88.521 53.8269 88.521 51.8529C88.521 48.057 85.4083 44.9439 81.6123 44.9439C77.8163 44.9439 74.7036 48.057 74.7036 51.8529C74.7036 54.9656 72.1223 57.5469 69.0096 57.5469C65.8972 57.5469 63.3159 54.9656 63.3159 51.8529C63.3159 41.7556 71.5149 33.556 81.6123 33.556C91.7096 33.556 99.9089 41.7556 99.9089 51.8529C99.9089 60.5078 93.5317 64.8352 91.1782 66.4295C88.2173 68.4034 87.3063 69.6941 87.3063 71.8198V73.4142C87.3063 76.6028 84.725 79.1081 81.6123 79.1081Z" fill="#292D32"/>
<path d="M81.6138 98.0136C78.4252 98.0136 75.9198 95.4323 75.9198 92.3196C75.9198 89.2069 78.5011 86.6256 81.6138 86.6256C84.7265 86.6256 87.3078 89.2069 87.3078 92.3196C87.3078 95.4323 84.8024 98.0136 81.6138 98.0136Z" fill="#292D32"/>
</svg>
