<svg width="20" height="20" viewBox="0 0 20 20" fill="none" xmlns="http://www.w3.org/2000/svg">
<path d="M9.53491 19.0698C4.27908 19.0698 0 14.7907 0 9.53491C0 4.27908 4.27908 0 9.53491 0C14.7907 0 19.0698 4.27908 19.0698 9.53491C19.0698 14.7907 14.7907 19.0698 9.53491 19.0698ZM9.53491 1.39535C5.04187 1.39535 1.39535 5.05118 1.39535 9.53491C1.39535 14.0186 5.04187 17.6745 9.53491 17.6745C14.0279 17.6745 17.6745 14.0186 17.6745 9.53491C17.6745 5.05118 14.0279 1.39535 9.53491 1.39535Z" fill="#A7A7A7"/>
<path d="M19.3029 20C19.1261 20 18.9494 19.9349 18.8099 19.7954L16.9494 17.9349C16.6796 17.6652 16.6796 17.2186 16.9494 16.9489C17.2192 16.6791 17.6657 16.6791 17.9354 16.9489L19.7959 18.8093C20.0657 19.0791 20.0657 19.5256 19.7959 19.7954C19.6564 19.9349 19.4796 20 19.3029 20Z" fill="#A7A7A7"/>
</svg>
