<svg width="20" height="20" viewBox="0 0 20 20" fill="none" xmlns="http://www.w3.org/2000/svg">
<path fill-rule="evenodd" clip-rule="evenodd" d="M10 20C15.5228 20 20 15.5228 20 10C20 4.47715 15.5228 0 10 0C4.47715 0 0 4.47715 0 10C0 15.5228 4.47715 20 10 20ZM9.14258 12.3467H10.3994L10.5137 5.80859H9.02832L9.14258 12.3467ZM8.99658 13.7432C8.91618 13.8828 8.87598 14.0352 8.87598 14.2002C8.87598 14.361 8.91618 14.5091 8.99658 14.6445C9.08122 14.7799 9.19124 14.8879 9.32666 14.9683C9.46631 15.0487 9.61654 15.0889 9.77734 15.0889C9.93815 15.0889 10.0863 15.0487 10.2217 14.9683C10.3613 14.8836 10.4714 14.7736 10.5518 14.6382C10.6364 14.4985 10.6787 14.3483 10.6787 14.1875C10.6787 14.0267 10.6364 13.8765 10.5518 13.7368C10.4714 13.5972 10.3613 13.4871 10.2217 13.4067C10.0863 13.3263 9.93815 13.2861 9.77734 13.2861C9.6123 13.2861 9.45996 13.3285 9.32031 13.4131C9.1849 13.4935 9.07699 13.6035 8.99658 13.7432Z" fill="#545456"/>
</svg>
