<svg width="221" height="65" viewBox="0 0 221 65" fill="none" xmlns="http://www.w3.org/2000/svg">
<path d="M13.0527 26.88L21.3327 7.74001V26.88H23.2527V3.57001H21.1227L12.0027 24.72L2.85269 3.57001H0.722694V26.88H2.64269V7.74001L10.9227 26.88H13.0527Z" fill="black"/>
<path d="M36.8132 26.88C41.5532 26.88 44.0132 24.84 44.0132 20.55C44.0132 17.43 42.4832 15.42 39.6632 14.88C41.9132 14.28 43.3532 12.48 43.3532 9.57001C43.3532 5.76001 41.0732 3.57001 36.5432 3.57001H28.2032V26.88H36.8132ZM41.4032 9.69001C41.4032 12.6 39.7532 14.07 36.1832 14.07H30.1232V5.31001H36.1832C39.7532 5.31001 41.4032 6.78001 41.4032 9.69001ZM30.1232 25.14V15.78H36.3932C40.5632 15.78 42.0932 17.43 42.0932 20.49C42.0932 23.52 40.5632 25.14 36.3932 25.14H30.1232Z" fill="black"/>
<path d="M45.0618 5.31001H52.0818V26.88H54.0018V5.31001H61.0218V3.57001H45.0618V5.31001Z" fill="black"/>
<path d="M65.9239 3.57001H64.0039V26.88H65.9239V3.57001Z" fill="black"/>
<path d="M71.3994 14.43C71.3994 8.28001 71.9994 4.68001 73.6794 2.97001C74.4594 2.25001 75.3894 1.86001 76.6494 1.86001C77.8794 1.86001 78.8394 2.25001 79.5894 2.97001C81.1494 4.53001 81.7794 7.71001 81.8694 12.99H85.9194V1.98001H87.7194V28.14H85.9194V14.61H81.8694C81.8694 20.67 81.2694 24.24 79.5894 25.89C78.8394 26.64 77.8794 26.94 76.6494 26.94C75.3894 26.94 74.4594 26.64 73.6794 25.89C71.9994 24.21 71.3994 20.61 71.3994 14.43ZM73.1694 14.43C73.1694 20.04 73.5894 23.28 74.8494 24.66C75.3294 25.17 75.8994 25.41 76.6494 25.41C77.3694 25.41 77.9994 25.17 78.4194 24.66C79.6794 23.28 80.0994 20.04 80.0994 14.43C80.0994 8.88001 79.6794 5.61 78.4194 4.23C77.9994 3.72001 77.3694 3.45001 76.6494 3.45001C75.8994 3.45001 75.3294 3.72001 74.8494 4.23C73.5894 5.61 73.1694 8.88001 73.1694 14.43ZM91.6194 1.83001H93.4194V28.44H91.6194V1.83001Z" fill="black"/>
<path d="M120.66 12.27V4.02001H109.56V2.37001H122.49V12.03C122.49 14.73 122.22 17.76 121.8 19.65H119.97C120.42 17.76 120.66 14.82 120.66 12.27ZM129.81 1.86001V13.29H134.28V14.85H129.81V28.41H127.98V24.96C126.54 26.25 123.99 26.85 121.05 26.85H108.51V25.32H112.98V12.33H114.81V25.32H121.29C124.11 25.32 126.51 24.66 127.98 23.43V1.86001H129.81Z" fill="black"/>
<path d="M159.179 9.69001H149.939V13.17H161.039V14.73H137.069V13.17H148.109V9.69001H138.929V2.22001H159.179V9.69001ZM157.349 8.16001V3.75001H140.759V8.16001H157.349ZM140.759 24.12V27.27H159.869V28.77H138.929V22.62H157.349V19.41H138.929V17.91H159.179V24.12H140.759Z" fill="black"/>
<path d="M166.408 8.34001C166.408 6.09001 167.248 4.35001 168.628 3.24001C169.798 2.25001 171.418 1.71001 173.278 1.71001C175.108 1.71001 176.698 2.25001 177.898 3.24001C179.278 4.35001 180.118 6.09001 180.118 8.34001C180.118 10.59 179.278 12.33 177.898 13.44C176.698 14.43 175.108 15.03 173.278 15.03C171.418 15.03 169.798 14.43 168.628 13.44C167.248 12.33 166.408 10.59 166.408 8.34001ZM168.208 8.34001C168.208 9.99001 168.778 11.28 169.768 12.15C170.638 12.96 171.868 13.41 173.278 13.41C174.658 13.41 175.888 12.96 176.758 12.15C177.748 11.28 178.318 9.99001 178.318 8.34001C178.318 6.69001 177.748 5.40001 176.758 4.53001C175.888 3.72001 174.658 3.30001 173.278 3.30001C171.868 3.30001 170.638 3.72001 169.768 4.53001C168.778 5.40001 168.208 6.69001 168.208 8.34001ZM188.158 15.6H186.328V1.86001H188.158V15.6ZM186.328 21.51V17.85H188.158V28.77H168.508V17.85H170.338V21.51H186.328ZM186.328 23.1H170.338V27.21H186.328V23.1Z" fill="black"/>
<path d="M209.337 5.40001H194.247V3.84001H200.907V0.990005H202.707V3.84001H209.337V5.40001ZM196.887 11.58C196.887 12.18 197.127 12.72 197.607 13.11C198.477 13.86 200.037 14.22 201.777 14.22C203.547 14.22 205.107 13.86 205.947 13.11C206.457 12.72 206.697 12.18 206.697 11.58C206.697 10.98 206.457 10.47 205.947 10.05C205.107 9.30001 203.547 8.94001 201.777 8.94001C200.037 8.94001 198.477 9.30001 197.607 10.05C197.127 10.47 196.887 10.98 196.887 11.58ZM195.087 11.58C195.087 10.5 195.567 9.57001 196.407 8.88001C197.577 7.95001 199.467 7.47001 201.777 7.47001C204.087 7.47001 206.007 7.95001 207.177 8.88001C208.017 9.57001 208.497 10.5 208.497 11.58C208.497 12.66 208.017 13.62 207.177 14.28C206.007 15.21 204.087 15.69 201.777 15.69C199.467 15.69 197.577 15.21 196.407 14.28C195.567 13.62 195.087 12.66 195.087 11.58ZM216.207 8.19001H220.407V9.78001H216.207V15.6H214.377V1.86001H216.207V8.19001ZM198.657 24.12V27.39H216.597V28.77H196.827V22.68H214.407V19.47H196.827V18H216.237V24.12H198.657Z" fill="black"/>
<path d="M39.9472 62.88L48.2272 43.74V62.88H50.1472V39.57H48.0172L38.8972 60.72L29.7472 39.57H27.6172V62.88H29.5372V43.74L37.8172 62.88H39.9472Z" fill="black"/>
<path d="M54.0477 61.32V62.88H68.5977V61.17H56.2977L68.4177 41.16V39.57H54.3777V41.31H66.1677L54.0477 61.32Z" fill="black"/>
<path d="M94.5207 39.75H76.1007V44.16H94.6707V45.69H74.2707V38.22H94.5207V39.75ZM72.4107 50.55V48.99H96.3807V50.55H72.4107ZM76.1007 60.12V63.27H95.2107V64.77H74.2707V58.62H92.6907V55.41H74.2707V53.91H94.5207V60.12H76.1007Z" fill="black"/>
<path d="M132.231 52.95H122.841V61.68H133.701V63.21H110.031V61.68H121.011V52.95H111.501V38.37H132.231V52.95ZM130.401 51.33V39.99H113.331V51.33H130.401Z" fill="black"/>
<path d="M151.25 50.43C151.25 45.75 150.74 42.39 149.24 40.71C148.52 39.9 147.53 39.45 146.3 39.45C145.1 39.45 144.11 39.9 143.36 40.71C141.89 42.39 141.38 45.75 141.38 50.43C141.38 55.14 141.89 58.53 143.36 60.21C144.11 60.99 145.1 61.41 146.3 61.41C147.53 61.41 148.52 60.99 149.24 60.21C150.74 58.53 151.25 55.14 151.25 50.43ZM139.55 50.43C139.55 45.33 140.18 41.61 142.04 39.6C143.06 38.46 144.53 37.86 146.3 37.86C148.07 37.86 149.51 38.46 150.56 39.6C151.58 40.68 152.21 42.24 152.6 44.22H159.02V37.86H160.85V64.41H159.02V55.95H152.72C152.36 58.29 151.67 60.09 150.56 61.29C149.51 62.46 148.07 62.94 146.3 62.94C144.53 62.94 143.06 62.46 142.04 61.29C140.18 59.28 139.55 55.53 139.55 50.43ZM152.84 45.81C153.02 47.19 153.08 48.75 153.08 50.43C153.08 51.84 153.02 53.16 152.93 54.36H159.02V45.81H152.84Z" fill="black"/>
<path d="M179.839 62.58H168.409V49.53H178.609V39.99H168.409V38.34H180.439V51.18H170.239V60.99H180.079C183.019 60.99 185.659 60.15 187.189 58.68V37.86H189.019V49.29H193.489V50.85H189.019V64.44H187.189V60.24C185.779 61.77 182.929 62.58 179.839 62.58Z" fill="black"/>
<path d="M199.158 56.1L199.338 43.65V39.57H197.418V43.65L197.568 56.1H199.158ZM199.368 59.85H197.358V62.88H199.368V59.85Z" fill="black"/>
</svg>
