<svg width="27" height="36" viewBox="0 0 27 36" fill="none" xmlns="http://www.w3.org/2000/svg">
<path d="M1.24219 29.44C0.842188 26.04 0.762188 22.44 0.762188 18.44C0.762188 14.44 0.842188 10.84 1.24219 7.48C1.80219 2.36 8.04219 1.04 13.8022 0.999999C19.8822 0.959999 26.2422 2.08 26.2422 8.48C26.2422 11.08 25.2822 11.68 22.1222 10.84C21.0822 10.56 19.8422 10.36 18.8422 10.36C15.9622 10.36 14.0022 10.8 12.2822 11.48C11.4422 11.8 11.7222 12.96 12.6422 12.6C16.1622 11.36 21.3622 11.24 23.5222 12.56C25.3622 13.72 26.2422 15.44 26.2422 18.44C26.2422 21.44 25.3622 23.2 23.5222 24.32C21.3622 25.68 16.1622 25.56 12.6422 24.28C11.7222 23.96 11.4422 25.08 12.2822 25.4C14.0022 26.08 15.9622 26.48 18.8422 26.48C19.8422 26.48 21.0822 26.32 22.1222 26.04C25.2822 25.24 26.2422 25.8 26.2422 28.36C26.2422 34.76 19.8822 35.92 13.8022 35.88C8.04219 35.84 1.80219 34.48 1.24219 29.44Z" fill="black"/>
</svg>
