<svg width="27" height="36" viewBox="0 0 27 36" fill="none" xmlns="http://www.w3.org/2000/svg">
<path d="M12.538 24.64C12.458 26.64 12.338 28.44 12.138 30.2C11.778 33.2 10.178 35.56 6.85797 35.56C3.45797 35.56 1.85797 33.2 1.53797 30.2C1.13797 26.8 0.937969 22.44 0.937969 18.44C0.937969 14.44 1.01797 10.84 1.41797 7.48C1.97797 2.36 8.53797 1.04 14.258 0.999999C23.018 0.959999 26.418 2.6 26.418 7.08C26.418 10.44 25.018 12.24 22.498 11.8C21.418 11.64 20.018 11.52 19.018 11.52C16.138 11.52 14.178 11.92 12.458 12.6C11.618 12.96 11.898 14.04 12.818 13.72C16.338 12.44 21.538 12.32 23.698 13.68C25.538 14.88 26.418 16.2 26.418 19.2C26.418 22.16 25.538 23.56 23.698 24.68C21.538 26.04 16.098 25.92 12.538 24.64Z" fill="black"/>
</svg>
