<svg width="160" height="81" viewBox="0 0 160 81" fill="none" xmlns="http://www.w3.org/2000/svg">
<path d="M95.1341 11.5887C95.1341 5.18846 100.358 0 106.801 0H148.285C154.729 0 159.953 5.18846 159.953 11.5887V11.5887C159.953 17.989 154.729 23.1775 148.285 23.1775H106.801C100.358 23.1775 95.1341 17.989 95.1341 11.5887V11.5887Z" fill="black"/>
<path d="M116.993 4.88714C117.707 4.88714 118.32 5.01715 118.83 5.27717C119.348 5.53188 119.705 5.89272 119.9 6.35969C120.096 6.82666 120.086 7.36527 119.871 7.97551C119.712 8.42656 119.454 8.86966 119.098 9.30479C118.744 9.73461 118.326 10.1061 117.844 10.4192C118.285 10.7163 118.56 11.117 118.67 11.6211C118.786 12.1199 118.738 12.6718 118.525 13.2767C118.295 13.9294 117.922 14.5158 117.407 15.0358C116.899 15.5505 116.307 15.9538 115.63 16.2457C114.959 16.5375 114.274 16.6835 113.577 16.6835C113.126 16.6835 112.727 16.6277 112.378 16.5163C112.031 16.3996 111.742 16.2059 111.511 15.9352L111.415 15.9671L110.057 19.8196H107.643L111.667 8.40534C111.914 7.70488 112.311 7.08933 112.859 6.55868C113.408 6.02273 114.042 5.61147 114.762 5.32492C115.489 5.03307 116.233 4.88714 116.993 4.88714ZM112.47 12.9742C112.358 13.2926 112.331 13.5845 112.39 13.8498C112.448 14.1151 112.594 14.3247 112.826 14.4786C113.059 14.6325 113.367 14.7094 113.749 14.7094C114.121 14.7094 114.472 14.6378 114.804 14.4945C115.141 14.3513 115.429 14.1576 115.667 13.9135C115.913 13.6641 116.089 13.3881 116.195 13.0857C116.308 12.7673 116.321 12.4887 116.237 12.2499C116.16 12.0058 116 11.8201 115.758 11.6927C115.516 11.5654 115.224 11.499 114.883 11.4937H114.073L114.679 9.77441H115.236C115.607 9.77441 115.935 9.70543 116.22 9.56746C116.513 9.42418 116.748 9.24376 116.926 9.0262C117.11 8.80863 117.243 8.58045 117.328 8.34166C117.474 7.92775 117.449 7.59079 117.254 7.33078C117.064 7.07076 116.736 6.94075 116.269 6.94075C115.948 6.94075 115.638 7.00443 115.34 7.13178C115.042 7.25914 114.777 7.44486 114.545 7.68896C114.32 7.92775 114.149 8.21431 114.031 8.54861L112.47 12.9742Z" fill="white"/>
<path d="M123.439 16.7471C122.511 16.7471 121.77 16.5667 121.216 16.2059C120.664 15.8397 120.323 15.3223 120.193 14.6537C120.069 13.9851 120.167 13.1971 120.487 12.2897C120.797 11.4088 121.251 10.6314 121.849 9.95749C122.454 9.27826 123.157 8.75291 123.958 8.38146C124.76 8.0047 125.603 7.81632 126.486 7.81632C127.308 7.81632 127.984 7.98082 128.515 8.30982C129.054 8.63352 129.393 9.12437 129.532 9.78237C129.677 10.4404 129.582 11.2443 129.247 12.1942L129.011 12.8628H122.749C122.597 13.2926 122.55 13.6667 122.607 13.9851C122.669 14.3035 122.826 14.5503 123.08 14.7254C123.341 14.8952 123.685 14.9801 124.113 14.9801C124.531 14.9748 124.916 14.8952 125.269 14.7413C125.623 14.5821 125.909 14.3698 126.126 14.1045H128.506C128.199 14.6405 127.792 15.1074 127.286 15.5054C126.782 15.8981 126.199 16.2032 125.537 16.4208C124.881 16.6384 124.182 16.7471 123.439 16.7471ZM127.17 11.3823C127.292 11.0374 127.32 10.7269 127.254 10.451C127.193 10.1751 127.046 9.96279 126.811 9.81421C126.579 9.66032 126.28 9.58338 125.914 9.58338C125.542 9.58338 125.177 9.66298 124.817 9.82217C124.463 9.98137 124.15 10.1989 123.878 10.4749C123.606 10.7508 123.404 11.0533 123.271 11.3823H127.17Z" fill="white"/>
<path d="M136.958 9.69481H135.236L133.749 13.9135C133.629 14.2372 133.62 14.4627 133.721 14.59C133.83 14.7121 134.023 14.7784 134.301 14.789C134.56 14.789 134.897 14.7731 135.314 14.7413L134.657 16.6039C134.267 16.6569 133.805 16.6835 133.27 16.6835C132.336 16.6835 131.673 16.4818 131.281 16.0785C130.89 15.6699 130.841 15.0597 131.133 14.2478L132.738 9.69481H131.472L132.095 7.92775H133.361L134.09 5.85823H136.589L135.859 7.92775H137.581L136.958 9.69481Z" fill="white"/>
<path d="M136.949 14.1523C137.269 13.2608 137.816 12.6107 138.591 12.2021C139.367 11.7882 140.269 11.5521 141.296 11.4937C141.928 11.4566 142.701 11.4194 143.614 11.3823L143.861 10.6818C143.983 10.321 143.952 10.0424 143.768 9.84605C143.586 9.6444 143.262 9.54093 142.797 9.53562C142.373 9.54093 141.999 9.62848 141.675 9.79829C141.358 9.96279 141.113 10.1936 140.941 10.4908H138.561C138.791 9.98137 139.138 9.52501 139.601 9.12171C140.069 8.71842 140.634 8.40003 141.296 8.16655C141.958 7.93306 142.683 7.81632 143.471 7.81632C144.174 7.81632 144.782 7.9198 145.294 8.12675C145.812 8.3337 146.17 8.6574 146.369 9.09784C146.571 9.53297 146.554 10.0822 146.32 10.7455L144.266 16.572H141.903L142.324 15.3781H142.256C141.872 15.7973 141.412 16.1289 140.876 16.373C140.34 16.6171 139.746 16.7365 139.095 16.7312C138.497 16.7365 138.002 16.641 137.61 16.4447C137.223 16.2483 136.966 15.9565 136.838 15.5691C136.716 15.1817 136.753 14.7094 136.949 14.1523ZM139.369 14.0886C139.255 14.4123 139.291 14.6617 139.476 14.8368C139.668 15.0119 139.968 15.1021 140.377 15.1074C140.748 15.1074 141.105 15.0358 141.449 14.8925C141.797 14.7492 142.093 14.5556 142.337 14.3115C142.588 14.0621 142.767 13.7861 142.874 13.4836L143.095 12.8548C142.33 12.8867 141.693 12.9212 141.185 12.9583C140.728 12.9954 140.338 13.1122 140.015 13.3085C139.7 13.4996 139.485 13.7596 139.369 14.0886Z" fill="white"/>
<path fill-rule="evenodd" clip-rule="evenodd" d="M24.2921 62.7186C23.612 61.4749 22.9103 60.1159 22.2351 58.7057C22.1328 58.4921 22.0312 58.2774 21.9303 58.0618C21.5348 57.216 21.1511 56.3555 20.7895 55.4939C20.2328 54.1673 19.7282 52.838 19.3128 51.5551C19.3121 51.5528 19.3113 51.5506 19.3106 51.5484C19.2957 51.5023 19.2809 51.4562 19.2662 51.4102C19.0154 50.457 17.8512 50.6575 18.0307 51.7353C18.0343 51.7568 18.0384 51.7787 18.0431 51.8009C18.0486 51.8272 18.0549 51.854 18.062 51.8813C18.4488 53.3319 18.915 54.6037 19.485 55.9536C19.8408 56.7962 20.2371 57.6692 20.6797 58.635C20.5781 60.8714 20.4326 62.8666 20.2432 64.9329C20.2429 64.9359 20.2426 64.9389 20.2423 64.942C20.2112 65.2815 20.1789 65.6229 20.1454 65.9676C20.068 66.7635 19.9844 67.5769 19.8944 68.4251C19.5279 72.3517 17.3291 75.4405 12.9837 75.4405C8.53366 75.4405 6.38716 72.3517 6.02068 68.4251C4.97361 58.4779 4.97361 47.536 6.02068 37.6411C6.38716 33.767 8.53366 30.6781 12.9837 30.6781C15.4967 30.6781 17.2767 31.6728 18.4285 33.2434C20.5847 36.329 22.7145 40.497 24.6493 44.6038C24.7879 44.898 24.9255 45.192 25.062 45.4852C25.558 46.5501 26.04 47.6054 26.5049 48.6308C26.5323 48.6912 26.5596 48.7515 26.5869 48.8116C26.6955 49.0514 26.8032 49.2894 26.9098 49.5254C27.2763 50.206 27.7998 50.206 28.1663 49.5254L28.1795 49.4964C28.2818 49.2699 28.385 49.0416 28.4889 48.8118C28.5161 48.7517 28.5433 48.6915 28.5706 48.6312C29.0351 47.6046 29.5152 46.5481 30.0088 45.4819C30.145 45.1878 30.2822 44.8929 30.4203 44.5978C32.3421 40.4929 34.4553 36.3275 36.6476 33.2434C37.747 31.6728 39.5794 30.6781 42.0924 30.6781C46.5425 30.6781 48.6366 33.767 49.0555 37.6411C50.0502 47.536 50.0502 58.4779 49.0555 68.4251C48.6366 72.3517 46.5425 75.4405 42.0924 75.4405C37.747 75.4405 35.5482 72.3517 35.1817 68.4251C35.0918 67.5769 35.0081 66.7635 34.9308 65.9676C34.8973 65.6229 34.8649 65.2815 34.8338 64.942C34.8335 64.9389 34.8333 64.9359 34.833 64.9329C34.6436 62.8666 34.4981 60.8714 34.3964 58.635C34.8391 57.6692 35.2353 56.7962 35.5911 55.9536C36.1611 54.6037 36.6273 53.3319 37.0141 51.8813C37.0212 51.854 37.0275 51.8272 37.0331 51.8009C37.0377 51.7787 37.0419 51.7568 37.0454 51.7353C37.2249 50.6575 36.0608 50.457 35.81 51.4102C35.7953 51.4562 35.7804 51.5023 35.7655 51.5484C35.7648 51.5506 35.7641 51.5528 35.7634 51.5551C35.3479 52.838 34.8434 54.1673 34.2866 55.4939C33.925 56.3555 33.5414 57.216 33.1458 58.0618C33.045 58.2774 32.9433 58.4921 32.8411 58.7057C32.1659 60.1159 31.4641 61.4749 30.784 62.7186C30.4503 63.3264 30.0081 63.7958 29.5067 64.1269C28.3071 64.9192 26.769 64.9192 25.5694 64.1269C25.0681 63.7958 24.6258 63.3264 24.2921 62.7186ZM25.0295 69.5948C26.6643 70.077 28.4118 70.077 30.0466 69.5948C30.3872 72.1325 31.3327 74.7769 33.2566 76.9109C35.4658 79.3613 38.5574 80.6759 42.0924 80.6759C45.6537 80.6759 48.762 79.3787 50.9841 76.8997C51.3749 76.4638 51.7241 76.0073 52.0355 75.5358C52.2831 75.9519 52.5565 76.3527 52.8564 76.736C54.7899 79.2074 57.6442 80.6759 60.8211 80.6759H86.841C90.7116 80.6759 93.5576 78.2044 95.1704 75.8297C96.863 73.3376 97.8352 70.1401 97.8352 66.8022C97.8352 63.4709 96.8793 60.3158 95.1846 57.8422C93.8777 55.9345 91.8714 54.1085 89.2758 53.3471L90.93 51.4709C91.6583 50.6887 92.6102 49.6505 93.5476 48.3656C93.88 48.8154 94.2442 49.2462 94.6407 49.6553C96.5473 51.6219 98.9784 52.8551 101.649 53.3543C100.995 58.1157 100.897 62.7483 101.214 67.2242L101.214 67.232C101.438 70.3279 102.55 73.6522 104.924 76.2837C107.4 79.0284 110.952 80.6759 115.231 80.6759C119.553 80.6759 123.103 79.0339 125.57 76.2483C127.913 73.604 128.953 70.3096 129.238 67.3568L129.247 67.2676L129.252 67.1782C129.48 63.5053 129.362 58.4654 128.726 53.3538C130.689 52.9819 132.515 52.207 134.097 51.0488C134.023 57.0874 134.29 63.1724 134.896 68.9448C135.153 71.6475 136.064 74.5782 138.167 76.9109C140.397 79.3846 143.515 80.6759 147.069 80.6759C150.604 80.6759 153.695 79.3613 155.904 76.9109C157.993 74.5942 158.929 71.676 159.189 68.9457C160.27 58.6513 160.271 47.3626 159.188 37.1166C158.926 34.4009 157.985 31.4964 155.895 29.1911C153.689 26.756 150.603 25.4427 147.069 25.4427C143.516 25.4427 140.404 26.7329 138.176 29.1911C137.619 29.8064 137.145 30.4634 136.744 31.147C136.429 30.7382 136.087 30.3459 135.718 29.972C133.211 27.4314 129.857 26.1342 126.349 25.8757L126.333 25.8745L126.317 25.8734C122.381 25.6075 118.85 25.4427 115.336 25.4427C111.818 25.4427 108.229 25.5512 104.052 25.8764C100.575 26.1326 97.1969 27.3765 94.6648 29.9542C94.6505 29.9688 94.6362 29.9834 94.622 29.998C94.5187 29.8601 94.412 29.7243 94.3017 29.5907C92.3134 27.181 89.5695 25.9648 86.7886 25.7697L86.7844 25.7694L86.7803 25.7691C77.3799 25.1245 70.3869 25.1245 60.9865 25.7691L60.9824 25.7694L60.9782 25.7697C58.2161 25.9635 55.4681 27.1633 53.4559 29.539C53.0438 30.0256 52.6783 30.5424 52.3578 31.0856C51.9682 30.429 51.5104 29.7964 50.9751 29.2023C48.7553 26.7387 45.6527 25.4427 42.0924 25.4427C38.0804 25.4427 34.5611 27.1072 32.3707 30.2239C30.6646 32.6265 29.0318 35.5607 27.5282 38.5522C26.0195 35.5626 24.3928 32.6385 22.7199 30.2446L22.6857 30.1956L22.6504 30.1474C20.4611 27.1621 17.0759 25.4427 12.9837 25.4427C9.43117 25.4427 6.31931 26.7329 4.09151 29.1911C1.9879 31.5124 1.07074 34.429 0.81156 37.1168C-0.270565 47.3624 -0.270318 58.6508 0.811091 68.9449C1.0685 71.6474 1.97942 74.5782 4.08244 76.9109C6.31258 79.3846 9.43019 80.6759 12.9837 80.6759C16.5188 80.6759 19.6104 79.3613 21.8196 76.9109C23.7435 74.7769 24.6889 72.1325 25.0295 69.5948ZM54.9868 48.9009C55.0484 51.4257 55.0532 53.9664 55.001 56.4962C55.4676 55.9531 55.9067 55.4756 56.2845 55.0648C56.3597 54.9831 56.4324 54.904 56.5024 54.8276L60.0251 50.8072C58.1907 50.6318 56.4576 50.001 54.9868 48.9009ZM60.4023 58.3209C58.1511 60.7815 55.3764 63.818 55.3764 68.0063C55.3764 72.7705 57.837 75.4405 60.8211 75.4405H86.841C89.8251 75.4405 92.5999 71.514 92.5999 66.8022C92.5999 62.0903 89.8775 58.3732 86.8933 58.2162C86.1843 58.1646 85.6118 58.1162 85.1101 58.0718C84.9275 58.0556 84.7542 58.0399 84.5872 58.0248C83.3497 57.913 82.4536 57.8321 80.6109 57.7973C80.3102 58.098 79.7186 58.7512 79.0822 59.4713C78.1673 60.5063 77.1595 61.6796 76.789 62.1427C76.5778 62.3984 76.3311 62.5667 76.0827 62.6643C76.0499 62.6771 76.0171 62.6888 75.9844 62.6992C75.0959 62.9824 74.2408 62.3874 74.9567 61.6715L87.0504 47.9548C88.4655 46.4361 90.1082 44.5534 91.0633 42.2316C91.372 41.4811 91.6089 40.6847 91.7431 39.84C91.8234 39.334 91.8669 38.8106 91.8669 38.2694C91.8669 37.181 91.7385 36.221 91.5048 35.3851C90.7153 32.562 88.7246 31.1538 86.4221 30.9922C77.2602 30.364 70.5066 30.364 61.3447 30.9922C58.3605 31.2016 55.7952 33.5052 55.7952 38.2694C55.7952 42.9812 57.6276 45.3371 60.5594 45.5989C62.0291 45.7367 63.1966 45.8442 64.3137 45.9128C65.7435 46.0004 67.0908 46.0242 68.8836 45.9654C69.2902 45.51 69.7422 45.0294 70.1974 44.5533C70.448 44.2912 70.6996 44.0304 70.945 43.776C71.6886 43.0051 72.376 42.2927 72.8102 41.7771C73.0169 41.5582 73.2519 41.4296 73.483 41.3699C73.4965 41.3664 73.5099 41.3632 73.5234 41.3601C74.2718 41.1919 74.9593 41.735 74.4855 42.2483L60.4023 58.3209ZM96.9268 35.7835C96.589 36.5298 96.3521 37.3596 96.2266 38.2694C96.1576 38.769 96.1223 39.2927 96.1223 39.84C96.1223 40.8199 96.2451 41.7393 96.4794 42.5852C97.301 45.551 99.4935 47.6121 102.571 48.2012C103.164 48.3148 103.791 48.3736 104.447 48.3736H107.902C107.483 50.1351 107.152 51.8806 106.901 53.609C106.241 58.1482 106.133 62.57 106.436 66.8545C106.75 71.1999 109.525 75.4405 115.231 75.4405C121.043 75.4405 123.608 71.1999 124.027 66.8545C124.245 63.3333 124.111 58.4582 123.481 53.609C123.266 51.9596 122.994 50.3131 122.66 48.724C122.659 48.721 122.658 48.7181 122.658 48.7151C122.357 47.2899 122.006 45.9108 121.6 44.6172C121.593 44.594 121.586 44.5709 121.578 44.5478C121.54 44.4262 121.501 44.3054 121.462 44.1853C121.245 43.6221 122.176 43.274 122.711 43.7048C122.731 43.7209 122.75 43.7379 122.769 43.7561C122.855 43.8399 122.928 43.9471 122.98 44.0806C123.384 45.2918 123.885 46.8435 124.201 48.22C124.213 48.2714 124.225 48.3227 124.236 48.3736H125.964C126.638 48.3736 127.283 48.3082 127.893 48.1825C131.784 47.3805 134.288 44.1252 134.288 39.7353C134.288 34.657 130.938 31.4634 125.964 31.0969C122.09 30.8351 118.687 30.6781 115.336 30.6781C111.933 30.6781 108.478 30.7828 104.447 31.0969C100.888 31.3564 98.1957 32.9805 96.9268 35.7835ZM153.979 37.6411C153.613 33.767 151.414 30.6781 147.069 30.6781C142.619 30.6781 140.472 33.767 140.106 37.6411C139.059 47.536 139.059 58.4779 140.106 68.4251C140.472 72.3517 142.619 75.4405 147.069 75.4405C151.414 75.4405 153.613 72.3517 153.979 68.4251C155.026 58.4779 155.026 47.536 153.979 37.6411Z" fill="black"/>
</svg>
