<svg width="30" height="35" viewBox="0 0 30 35" fill="none" xmlns="http://www.w3.org/2000/svg">
<path d="M12.403 17.64C12.363 21.16 12.123 25.84 11.763 29.24C11.483 32.24 9.80297 34.6 6.48297 34.6C3.08297 34.6 1.44297 32.24 1.16297 29.24C0.362969 21.64 0.362969 13.28 1.16297 5.72C1.44297 2.76 3.08297 0.399998 6.48297 0.399998C8.40297 0.399998 9.76297 1.16 10.643 2.36C14.243 7 16.123 13.16 19.243 18.28C19.523 18.96 20.363 18.56 19.963 17.8C19.123 16.08 18.483 14.92 17.643 13.4C17.763 10.76 17.923 7.88 18.123 5.72C18.523 2.76 20.123 0.399998 23.483 0.399998C26.843 0.399998 28.443 2.76 28.843 5.72C29.603 13.28 29.603 21.64 28.843 29.24C28.443 32.24 26.843 34.6 23.483 34.6C21.163 34.6 19.763 33.4 18.843 31.76C16.763 28.08 14.803 21.8 12.403 17.64Z" fill="black"/>
</svg>
