<svg width="29" height="36" viewBox="0 0 29 36" fill="none" xmlns="http://www.w3.org/2000/svg">
<path d="M12.1991 24.28C12.0791 26.24 11.9191 28.24 11.7591 30.2C11.4791 33.2 9.79906 35.56 6.47906 35.56C3.07906 35.56 1.43906 33.2 1.15906 30.2C0.359062 22.6 0.399063 14.48 1.15906 6.92C1.59906 3.04 4.07906 1.8 7.15906 1.36C9.03906 1.16 10.9991 0.999999 12.8791 0.999999C20.3591 0.92 28.1991 2.24 28.1991 12.6C28.1991 23.4 20.3591 24.44 12.1991 24.28ZM12.1991 13.44C13.8791 14.32 15.5991 14.64 17.5191 14.44C18.4391 14.32 18.2791 12.96 17.6391 13C15.6791 13.12 14.2791 12.8 12.5591 12.04C11.9191 11.76 11.3591 12.96 12.1991 13.44Z" fill="black"/>
</svg>
