<svg width="30" height="35" viewBox="0 0 30 35" fill="none" xmlns="http://www.w3.org/2000/svg">
<path d="M17.3581 24.76C15.2781 21.04 12.4781 16.96 7.43813 16.96C2.11813 16.96 0.718125 21.2 1.35813 25.44C2.27813 31.48 7.95813 34.88 15.1981 34.88C22.2381 34.88 28.2781 31.52 28.7181 25.64C29.1581 20.08 25.7581 16.96 22.1981 15.52C16.1181 13.04 12.9181 9.64 10.9181 7.4C10.3981 6.88 11.0381 6.16 11.6381 6.76C13.3581 8.48 14.5981 9.44 16.2781 10.92C17.8781 12.32 19.5581 13.48 21.7181 13.48C24.6381 13.48 27.4781 12.12 27.7181 8.16C28.1181 2.04 19.9981 -1.43051e-06 14.4381 -1.43051e-06C7.03813 -1.43051e-06 1.55813 3.32 1.55813 8.44C1.55813 13.12 4.43813 15.48 8.99813 16.24C13.3581 16.88 16.5981 20.88 18.1181 24.24C18.3181 24.76 17.5981 25.04 17.3581 24.76Z" fill="black"/>
</svg>
