<svg width="30" height="35" viewBox="0 0 30 35" fill="none" xmlns="http://www.w3.org/2000/svg">
<path d="M9.41766 13.92C8.25766 18.8 7.97766 23.52 8.29766 28.04C8.53766 31.36 10.6577 34.6 15.0177 34.6C19.4577 34.6 21.4177 31.36 21.7377 28.04C22.0177 23.52 21.5377 16.08 19.7777 10.72C19.5777 10.2 20.6577 9.92 20.9377 10.64C21.2577 11.6 21.6577 12.84 21.8977 13.92H23.2177C27.0177 13.92 29.5777 11.2 29.5777 7.32C29.5777 3.44 27.0177 0.999998 23.2177 0.719999C20.2577 0.519999 17.6577 0.399998 15.0977 0.399998C12.4977 0.399998 9.85766 0.48 6.77766 0.719999C2.93766 0.999998 0.417656 3.36 0.417656 7.4C0.417656 11.28 2.93766 13.92 6.77766 13.92H9.41766Z" fill="black"/>
</svg>
