<svg width="92" height="47" viewBox="0 0 92 47" fill="none" xmlns="http://www.w3.org/2000/svg">
<g id="Group 46">
<g id="Group 37">
<rect id="Rectangle 5" y="7" width="92" height="40" rx="20" fill="#F56326"/>
</g>
<g id="Group 8">
<path id="Rectangle 22" d="M46 5.94663C46 2.6624 48.6624 0 51.9466 0H73.0902C76.3745 0 79.0368 2.6624 79.0368 5.94663C79.0368 9.23087 76.3745 11.8933 73.0902 11.8933H51.9466C48.6624 11.8933 46 9.23087 46 5.94663Z" fill="black"/>
<g id="&#206;&#178;eta">
<path d="M57.141 2.49072C57.5052 2.49072 57.8173 2.55699 58.0775 2.68951C58.3414 2.81933 58.5232 3.00325 58.6228 3.24126C58.7225 3.47926 58.7175 3.75378 58.6078 4.06481C58.5268 4.29471 58.3955 4.52054 58.2141 4.74232C58.0336 4.9614 57.8206 5.15072 57.5751 5.31029C57.7999 5.46175 57.9401 5.66595 57.9958 5.92289C58.0553 6.17713 58.0307 6.45841 57.922 6.76673C57.8047 7.0994 57.6147 7.39826 57.3521 7.66332C57.0933 7.92566 56.7914 8.13122 56.4464 8.27997C56.1043 8.42873 55.7555 8.5031 55.3999 8.5031C55.1704 8.5031 54.9668 8.4747 54.789 8.41791C54.6121 8.3584 54.4647 8.25969 54.347 8.12175L54.2983 8.13798L53.6061 10.1015H52.3758L54.4268 4.28389C54.5526 3.92688 54.755 3.61314 55.0339 3.34268C55.3138 3.06951 55.6371 2.8599 56.0041 2.71385C56.3749 2.5651 56.7538 2.49072 57.141 2.49072ZM54.8361 6.61257C54.7789 6.77485 54.7652 6.9236 54.7949 7.05883C54.8247 7.19406 54.8988 7.3009 55.0174 7.37933C55.1361 7.45776 55.2929 7.49698 55.4879 7.49698C55.6771 7.49698 55.8563 7.46047 56.0255 7.38744C56.1975 7.31442 56.3441 7.2157 56.4654 7.09129C56.5905 6.96417 56.6803 6.82353 56.7346 6.66937C56.7918 6.50709 56.7989 6.3651 56.7557 6.24339C56.7164 6.11898 56.6351 6.02431 56.5117 5.9594C56.3884 5.89449 56.2397 5.86068 56.0657 5.85798H55.6527L55.9617 4.98168H56.2456C56.4349 4.98168 56.6021 4.94652 56.7473 4.8762C56.8964 4.80318 57.0163 4.71122 57.107 4.60033C57.2006 4.48944 57.2688 4.37314 57.3117 4.25143C57.3861 4.04047 57.3735 3.86873 57.274 3.7362C57.1773 3.60368 57.01 3.53741 56.772 3.53741C56.6085 3.53741 56.4508 3.56987 56.2989 3.63478C56.1469 3.69969 56.0118 3.79435 55.8933 3.91876C55.7787 4.04047 55.6914 4.18652 55.6313 4.35691L54.8361 6.61257Z" fill="white"/>
<path d="M60.4265 8.53556C59.9534 8.53556 59.5757 8.4436 59.2935 8.25969C59.0123 8.07307 58.8386 7.80937 58.7723 7.46858C58.7089 7.1278 58.7587 6.72616 58.9218 6.26367C59.0801 5.81471 59.3115 5.41848 59.6162 5.07499C59.9246 4.7288 60.2829 4.46104 60.6909 4.27172C61.0998 4.07969 61.5294 3.98368 61.9797 3.98368C62.3984 3.98368 62.7431 4.06752 63.0137 4.23521C63.2882 4.40019 63.461 4.65036 63.532 4.98574C63.6059 5.32111 63.5576 5.73086 63.3869 6.21499L63.2667 6.55577H60.0749C59.9977 6.77485 59.9735 6.96552 60.0023 7.1278C60.034 7.29008 60.1144 7.41584 60.2435 7.5051C60.3765 7.59164 60.5519 7.63492 60.7699 7.63492C60.983 7.63221 61.1794 7.59164 61.3591 7.51321C61.5397 7.43207 61.6854 7.32389 61.7961 7.18865H63.0092C62.8527 7.46182 62.6455 7.69983 62.3875 7.90268C62.1306 8.10282 61.8334 8.25833 61.4961 8.36922C61.1616 8.48011 60.8051 8.53556 60.4265 8.53556ZM62.3283 5.80118C62.3903 5.62538 62.4045 5.46716 62.3709 5.32652C62.3402 5.18588 62.265 5.0777 62.1455 5.00197C62.0269 4.92353 61.8744 4.88431 61.688 4.88431C61.4987 4.88431 61.3123 4.92488 61.1289 5.00602C60.9483 5.08716 60.7887 5.19805 60.6502 5.33869C60.5118 5.47933 60.4087 5.6335 60.3409 5.80118H62.3283Z" fill="white"/>
<path d="M67.3169 4.94111H66.4394L65.6813 7.09129C65.6203 7.25627 65.6156 7.37122 65.6673 7.43613C65.7228 7.49833 65.8213 7.53214 65.9628 7.53755C66.0947 7.53755 66.2667 7.52944 66.4789 7.51321L66.1443 8.46253C65.9455 8.48958 65.7098 8.5031 65.4374 8.5031C64.9613 8.5031 64.6233 8.40033 64.4234 8.19478C64.2243 7.98652 64.1992 7.67549 64.348 7.26168L65.1661 4.94111H64.5208L64.8383 4.04047H65.4836L65.8555 2.98567H67.1287L66.7569 4.04047H67.6344L67.3169 4.94111Z" fill="white"/>
<path d="M67.3126 7.213C67.4757 6.75862 67.7545 6.4273 68.1491 6.21905C68.5447 6.00809 69.0044 5.88773 69.5282 5.85798C69.8503 5.83905 70.2442 5.82011 70.7097 5.80118L70.8355 5.44417C70.8975 5.26026 70.8816 5.11827 70.7878 5.01819C70.695 4.91542 70.5301 4.86268 70.293 4.85997C70.077 4.86268 69.8863 4.9073 69.721 4.99385C69.5595 5.0777 69.4349 5.19535 69.3471 5.34681H68.134C68.2514 5.08716 68.428 4.85456 68.6639 4.64901C68.9027 4.44346 69.1908 4.28118 69.5281 4.16218C69.8655 4.04318 70.2349 3.98368 70.6364 3.98368C70.9948 3.98368 71.3046 4.03642 71.5657 4.1419C71.8296 4.24738 72.0123 4.41236 72.1139 4.63684C72.2163 4.85862 72.208 5.13855 72.0888 5.47663L71.0418 8.44631H69.8374L70.0519 7.83776H70.0175C69.8217 8.05143 69.5872 8.22047 69.3139 8.34488C69.0406 8.46929 68.7381 8.53015 68.4064 8.52744C68.1015 8.53015 67.8491 8.48147 67.6492 8.38139C67.4522 8.28132 67.3211 8.13257 67.2559 7.93513C67.1936 7.73769 67.2125 7.49698 67.3126 7.213ZM68.5457 7.18054C68.4876 7.34552 68.5059 7.47264 68.6006 7.56189C68.6982 7.65115 68.8511 7.69712 69.0595 7.69983C69.2488 7.69983 69.4309 7.66332 69.6058 7.59029C69.7835 7.51727 69.9344 7.41855 70.0586 7.29413C70.1866 7.16702 70.2777 7.02638 70.3321 6.87221L70.4451 6.55172C70.0551 6.56794 69.7306 6.58552 69.4715 6.60446C69.2383 6.62339 69.0395 6.68289 68.8752 6.78296C68.7147 6.88033 68.6049 7.01285 68.5457 7.18054Z" fill="white"/>
</g>
<g id="MZTI">
<path d="M20.6997 29.0296C20.6336 30.4832 20.5235 31.6946 20.3693 33.1482C20.2152 34.8 19.2901 36.0995 17.4621 36.0995C15.59 36.0995 14.687 34.8 14.5328 33.1482C14.0923 28.9635 14.0923 24.3604 14.5328 20.1977C14.687 18.5679 15.59 17.2685 17.4621 17.2685C18.5193 17.2685 19.2681 17.6869 19.7526 18.3477C21.0301 20.1757 22.2855 22.9068 23.3206 25.1973C23.4748 25.4836 23.695 25.4836 23.8492 25.1973C24.8844 22.9068 26.1177 20.1757 27.4172 18.3477C27.8797 17.6869 28.6506 17.2685 29.7077 17.2685C31.5798 17.2685 32.4608 18.5679 32.637 20.1977C33.0555 24.3604 33.0555 28.9635 32.637 33.1482C32.4608 34.8 31.5798 36.0995 29.7077 36.0995C27.8797 36.0995 26.9547 34.8 26.8005 33.1482C26.6463 31.6946 26.5362 30.4832 26.4701 29.0296C26.9547 27.9724 27.3071 27.1795 27.5714 26.1884C27.7035 25.6818 27.1749 25.5717 27.0648 25.9902C26.5582 27.576 25.7213 29.3379 24.9504 30.7475C24.3338 31.8708 22.8361 31.8708 22.2194 30.7475C21.4485 29.3379 20.6116 27.576 20.105 25.9902C19.9949 25.5717 19.4663 25.6818 19.5985 26.1884C19.8628 27.1795 20.2152 27.9724 20.6997 29.0296Z" fill="white"/>
<path d="M45.912 28.6772C45.6036 28.9855 44.5685 30.1749 44.3042 30.5052C43.8857 31.0118 43.1369 30.7035 43.5333 30.307L48.621 24.5366C49.524 23.5675 50.6473 22.246 50.6473 20.462C50.6473 18.4578 49.6121 17.4887 48.3567 17.4006C44.5024 17.1363 41.6612 17.1363 37.8069 17.4006C36.5515 17.4887 35.4723 18.4578 35.4723 20.462C35.4723 22.4442 36.2432 23.4353 37.4766 23.5455C38.8861 23.6776 39.635 23.7437 40.9785 23.6996C41.5291 23.083 42.2779 22.3561 42.6303 21.9377C43.0047 21.5412 43.5994 21.8496 43.3351 22.1359L37.4105 28.8974C36.4634 29.9326 35.2961 31.21 35.2961 32.972C35.2961 34.9762 36.3313 36.0995 37.5867 36.0995H48.5329C49.7883 36.0995 50.9556 34.4476 50.9556 32.4654C50.9556 30.4832 49.8103 28.9195 48.5549 28.8534C47.3436 28.7653 47.0793 28.6992 45.912 28.6772Z" fill="white"/>
<path d="M57.393 24.7128C56.7543 27.3998 56.6001 29.9987 56.7763 32.4874C56.9084 34.3155 58.0757 36.0995 60.4764 36.0995C62.9211 36.0995 64.0003 34.3155 64.1765 32.4874C64.3307 29.9987 64.0664 25.9021 63.0973 22.9508C62.9872 22.6645 63.5819 22.5103 63.736 22.9068C63.9122 23.4353 64.1325 24.1181 64.2646 24.7128H64.9914C67.0838 24.7128 68.4934 23.2151 68.4934 21.0787C68.4934 18.9423 67.0838 17.5988 64.9914 17.4447C63.3616 17.3345 61.93 17.2685 60.5205 17.2685C59.0889 17.2685 57.6352 17.3125 55.9393 17.4447C53.825 17.5988 52.4374 18.8983 52.4374 21.1228C52.4374 23.2591 53.825 24.7128 55.9393 24.7128H57.393Z" fill="white"/>
<path d="M70.9407 33.1482C70.5002 28.9635 70.5002 24.3604 70.9407 20.1977C71.0948 18.5679 71.9978 17.2685 73.8699 17.2685C75.698 17.2685 76.623 18.5679 76.7772 20.1977C77.2177 24.3604 77.2177 28.9635 76.7772 33.1482C76.623 34.8 75.698 36.0995 73.8699 36.0995C71.9978 36.0995 71.0948 34.8 70.9407 33.1482Z" fill="white"/>
</g>
<path id="MZTI (Stroke)" fill-rule="evenodd" clip-rule="evenodd" d="M22.2194 30.7476C21.9333 30.2244 21.6381 29.6526 21.354 29.0594C21.311 28.9696 21.2682 28.8792 21.2258 28.7885C21.0594 28.4327 20.898 28.0707 20.7459 27.7082C20.5117 27.1502 20.2994 26.5909 20.1246 26.0512C20.1243 26.0503 20.124 26.0493 20.1237 26.0484C20.1175 26.029 20.1112 26.0096 20.105 25.9903C19.9995 25.5893 19.5098 25.6736 19.5853 26.127C19.5868 26.1361 19.5885 26.1453 19.5905 26.1546C19.5928 26.1657 19.5955 26.177 19.5985 26.1885C19.7612 26.7987 19.9573 27.3338 20.1971 27.9016C20.3468 28.2561 20.5135 28.6234 20.6997 29.0296C20.6569 29.9705 20.5957 30.8098 20.516 31.6791C20.5159 31.6804 20.5158 31.6816 20.5157 31.6829C20.5026 31.8257 20.489 31.9694 20.4749 32.1144C20.4424 32.4492 20.4072 32.7914 20.3693 33.1482C20.2152 34.8001 19.2901 36.0995 17.4621 36.0995C15.59 36.0995 14.687 34.8001 14.5328 33.1482C14.0923 28.9636 14.0923 24.3604 14.5328 20.1978C14.687 18.568 15.59 17.2685 17.4621 17.2685C18.5193 17.2685 19.2681 17.687 19.7526 18.3477C20.6597 19.6458 21.5557 21.3992 22.3696 23.1269C22.4279 23.2507 22.4858 23.3743 22.5433 23.4977C22.7519 23.9457 22.9547 24.3896 23.1503 24.821C23.1618 24.8464 23.1733 24.8718 23.1848 24.8971C23.2305 24.9979 23.2758 25.0981 23.3206 25.1974C23.4748 25.4837 23.695 25.4837 23.8492 25.1974L23.8547 25.1851C23.8978 25.0899 23.9412 24.9938 23.9849 24.8972C23.9964 24.8719 24.0078 24.8465 24.0193 24.8212C24.2147 24.3893 24.4167 23.9448 24.6243 23.4963C24.6816 23.3726 24.7393 23.2485 24.7975 23.1244C25.6059 21.3975 26.4949 19.6452 27.4172 18.3477C27.8797 17.687 28.6506 17.2685 29.7078 17.2685C31.5798 17.2685 32.4608 18.568 32.637 20.1978C33.0555 24.3604 33.0555 28.9636 32.637 33.1482C32.4608 34.8001 31.5798 36.0995 29.7078 36.0995C27.8797 36.0995 26.9547 34.8001 26.8005 33.1482C26.7627 32.7914 26.7275 32.4492 26.6949 32.1144C26.6808 31.9694 26.6672 31.8257 26.6541 31.6829C26.654 31.6816 26.6539 31.6804 26.6538 31.6791C26.5741 30.8098 26.5129 29.9705 26.4701 29.0296C26.6564 28.6234 26.8231 28.2561 26.9727 27.9016C27.2125 27.3338 27.4086 26.7987 27.5714 26.1885C27.5744 26.177 27.577 26.1657 27.5794 26.1546C27.5813 26.1453 27.583 26.1361 27.5846 26.127C27.6601 25.6736 27.1703 25.5893 27.0648 25.9903C27.0586 26.0096 27.0524 26.029 27.0461 26.0484C27.0458 26.0493 27.0455 26.0503 27.0452 26.0512C26.8704 26.5909 26.6582 27.1502 26.4239 27.7082C26.2718 28.0707 26.1104 28.4327 25.944 28.7885C25.9016 28.8792 25.8588 28.9696 25.8158 29.0594C25.5318 29.6526 25.2366 30.2244 24.9504 30.7476C24.8101 31.0033 24.624 31.2008 24.4131 31.34C23.9084 31.6733 23.2614 31.6733 22.7567 31.34C22.5458 31.2008 22.3598 31.0033 22.2194 30.7476ZM22.5296 33.6403C23.2174 33.8432 23.9525 33.8432 24.6402 33.6403C24.7835 34.7079 25.1813 35.8204 25.9906 36.7181C26.92 37.749 28.2206 38.302 29.7078 38.302C31.206 38.302 32.5136 37.7563 33.4484 36.7134C33.6128 36.53 33.7597 36.338 33.8907 36.1396C33.9949 36.3147 34.1099 36.4833 34.236 36.6445C35.0494 37.6842 36.2502 38.302 37.5867 38.302H48.5329C50.1612 38.302 51.3585 37.2623 52.037 36.2633C52.749 35.2149 53.1581 33.8697 53.1581 32.4655C53.1581 31.0641 52.7559 29.7367 52.043 28.6961C51.4932 27.8936 50.6492 27.1254 49.5572 26.8051L50.2531 26.0158C50.5595 25.6867 50.96 25.25 51.3543 24.7095C51.4941 24.8987 51.6473 25.0799 51.8142 25.252C52.6162 26.0793 53.639 26.5981 54.7627 26.8082C54.4874 28.8112 54.446 30.7601 54.5793 32.643L54.5796 32.6463C54.6737 33.9487 55.1416 35.3472 56.1402 36.4542C57.1818 37.6089 58.6761 38.302 60.4764 38.302C62.2945 38.302 63.7879 37.6112 64.8259 36.4393C65.8112 35.3269 66.2491 33.941 66.3688 32.6988L66.3725 32.6613L66.3748 32.6237C66.4705 31.0785 66.421 28.9583 66.1532 26.8079C66.9792 26.6515 67.7475 26.3255 68.4129 25.8382C68.3819 28.3786 68.4939 30.9385 68.7491 33.3669C68.8573 34.5038 69.2406 35.7368 70.1253 36.7181C71.0635 37.7587 72.375 38.302 73.8699 38.302C75.3571 38.302 76.6577 37.749 77.5871 36.7181C78.4657 35.7435 78.8593 34.5158 78.9688 33.3673C79.4237 29.0365 79.4238 24.2875 78.9686 19.9771C78.8584 18.8347 78.4621 17.6128 77.5832 16.643C76.6549 15.6186 75.3566 15.0661 73.8699 15.0661C72.3754 15.0661 71.0663 15.6088 70.1291 16.643C69.8945 16.9018 69.695 17.1782 69.5265 17.4658C69.3939 17.2938 69.25 17.1288 69.0948 16.9715C68.0401 15.9027 66.6292 15.357 65.1533 15.2482L65.1466 15.2477L65.1399 15.2473C63.4844 15.1354 61.9987 15.0661 60.5205 15.0661C59.0405 15.0661 57.5308 15.1117 55.7733 15.2485C54.3104 15.3563 52.8895 15.8796 51.8243 16.964C51.8183 16.9701 51.8123 16.9763 51.8063 16.9824C51.7628 16.9244 51.7179 16.8673 51.6716 16.8111C50.8351 15.7973 49.6808 15.2857 48.5109 15.2036L48.5091 15.2035L48.5074 15.2034C44.5527 14.9322 41.6109 14.9322 37.6563 15.2034L37.6545 15.2035L37.6528 15.2036C36.4908 15.2852 35.3347 15.7899 34.4882 16.7894C34.3149 16.994 34.1611 17.2115 34.0263 17.44C33.8624 17.1637 33.6698 16.8976 33.4446 16.6477C32.5107 15.6113 31.2055 15.0661 29.7078 15.0661C28.0199 15.0661 26.5394 15.7663 25.618 17.0775C24.9002 18.0882 24.2133 19.3226 23.5808 20.5811C22.9461 19.3234 22.2617 18.0933 21.558 17.0862L21.5436 17.0656L21.5287 17.0453C20.6077 15.7894 19.1836 15.0661 17.4621 15.0661C15.9676 15.0661 14.6585 15.6088 13.7212 16.643C12.8363 17.6195 12.4504 18.8465 12.3414 19.9772C11.8862 24.2874 11.8863 29.0363 12.3412 33.3669C12.4495 34.5038 12.8327 35.7368 13.7174 36.7181C14.6556 37.7587 15.9672 38.302 17.4621 38.302C18.9492 38.302 20.2498 37.749 21.1792 36.7181C21.9886 35.8204 22.3863 34.7079 22.5296 33.6403ZM35.1323 24.9346C35.1582 25.9968 35.1602 27.0656 35.1382 28.1299C35.3345 27.9014 35.5193 27.7005 35.6782 27.5277C35.7098 27.4933 35.7404 27.4601 35.7698 27.4279L37.2518 25.7366C36.4801 25.6628 35.751 25.3974 35.1323 24.9346ZM37.4105 28.8975C36.4634 29.9327 35.2961 31.2101 35.2961 32.972C35.2961 34.9763 36.3313 36.0995 37.5867 36.0995H48.5329C49.7883 36.0995 50.9556 34.4477 50.9556 32.4655C50.9556 30.4833 49.8103 28.9195 48.5549 28.8535C48.2567 28.8318 48.0158 28.8114 47.8048 28.7927C47.7279 28.7859 47.655 28.7793 47.5848 28.773C47.0642 28.7259 46.6872 28.6919 45.912 28.6773C45.7855 28.8038 45.5366 29.0786 45.2689 29.3815C44.884 29.8169 44.46 30.3105 44.3042 30.5053C44.2153 30.6129 44.1116 30.6837 44.007 30.7247C43.9932 30.7301 43.9795 30.735 43.9657 30.7394C43.5919 30.8585 43.2322 30.6082 43.5333 30.3071L48.621 24.5366C49.2163 23.8977 49.9074 23.1057 50.3092 22.1289C50.4391 21.8132 50.5387 21.4782 50.5952 21.1228C50.629 20.91 50.6473 20.6898 50.6473 20.4621C50.6473 20.0042 50.5932 19.6004 50.4949 19.2487C50.1628 18.0611 49.3253 17.4686 48.3567 17.4007C44.5024 17.1364 41.6612 17.1364 37.8069 17.4007C36.5515 17.4888 35.4723 18.4579 35.4723 20.4621C35.4723 22.4443 36.2432 23.4354 37.4766 23.5455C38.0949 23.6035 38.586 23.6487 39.056 23.6776C39.6575 23.7145 40.2243 23.7244 40.9785 23.6997C41.1495 23.5081 41.3397 23.3059 41.5312 23.1057C41.6366 22.9954 41.7424 22.8857 41.8457 22.7787C42.1585 22.4544 42.4477 22.1546 42.6303 21.9377C42.7173 21.8456 42.8162 21.7916 42.9134 21.7664C42.9191 21.765 42.9247 21.7636 42.9304 21.7623C43.2452 21.6916 43.5344 21.92 43.3351 22.136L37.4105 28.8975ZM52.7759 19.4163C52.6338 19.7303 52.5341 20.0793 52.4813 20.4621C52.4523 20.6723 52.4374 20.8926 52.4374 21.1228C52.4374 21.535 52.4891 21.9219 52.5877 22.2777C52.9333 23.5254 53.8557 24.3925 55.1501 24.6403C55.3999 24.6881 55.6634 24.7128 55.9394 24.7128H57.393C57.2168 25.4538 57.0775 26.1881 56.9719 26.9153C56.6944 28.8249 56.6487 30.6851 56.7763 32.4875C56.9084 34.3155 58.0757 36.0995 60.4764 36.0995C62.9211 36.0995 64.0003 34.3155 64.1765 32.4875C64.2683 31.0062 64.2118 28.9553 63.9467 26.9153C63.8565 26.2214 63.7422 25.5287 63.6014 24.8602C63.6011 24.859 63.6009 24.8577 63.6006 24.8565C63.4742 24.2569 63.3265 23.6768 63.1557 23.1325C63.1526 23.1228 63.1495 23.1131 63.1465 23.1033C63.1303 23.0522 63.1139 23.0014 63.0973 22.9509C63.0062 22.7139 63.3978 22.5675 63.6229 22.7487C63.6313 22.7555 63.6394 22.7626 63.6473 22.7703C63.6835 22.8055 63.7142 22.8507 63.736 22.9068C63.9059 23.4164 64.1167 24.0691 64.25 24.6482C64.255 24.6698 64.2599 24.6914 64.2646 24.7128H64.9915C65.2751 24.7128 65.5462 24.6853 65.8029 24.6324C67.44 24.295 68.4934 22.9256 68.4934 21.0788C68.4934 18.9424 67.0838 17.5989 64.9915 17.4447C63.3616 17.3346 61.93 17.2685 60.5205 17.2685C59.0889 17.2685 57.6352 17.3126 55.9394 17.4447C54.4424 17.5539 53.3097 18.2371 52.7759 19.4163ZM76.7772 20.1978C76.623 18.568 75.698 17.2685 73.8699 17.2685C71.9978 17.2685 71.0948 18.568 70.9407 20.1978C70.5002 24.3604 70.5002 28.9636 70.9407 33.1482C71.0948 34.8001 71.9978 36.0995 73.8699 36.0995C75.698 36.0995 76.623 34.8001 76.7772 33.1482C77.2177 28.9636 77.2177 24.3604 76.7772 20.1978Z" fill="black"/>
</g>
</g>
</svg>
