<svg width="159" height="69" viewBox="0 0 159 69" fill="none" xmlns="http://www.w3.org/2000/svg">
<g id="Group 46">
<g id="Group 37">
<rect id="Rectangle 5" width="158.7" height="69" rx="30" fill="#F56326"/>
</g>
<g id="Group 8">
<g id="MZTI">
<path d="M35.707 38.001C35.593 40.5085 35.403 42.5981 35.1371 45.1056C34.8711 47.955 33.2754 50.1966 30.1221 50.1966C26.8927 50.1966 25.335 47.955 25.0691 45.1056C24.3092 37.887 24.3092 29.9466 25.0691 22.7661C25.335 19.9546 26.8927 17.7131 30.1221 17.7131C31.9457 17.7131 33.2375 18.435 34.0733 19.5747C36.2768 22.7281 38.4424 27.4391 40.2281 31.3904C40.494 31.8843 40.8739 31.8843 41.1399 31.3904C42.9255 27.4391 45.0531 22.7281 47.2946 19.5747C48.0925 18.435 49.4222 17.7131 51.2458 17.7131C54.4752 17.7131 55.9949 19.9546 56.2988 22.7661C57.0207 29.9466 57.0207 37.887 56.2988 45.1056C55.9949 47.955 54.4752 50.1966 51.2458 50.1966C48.0925 50.1966 46.4968 47.955 46.2308 45.1056C45.9649 42.5981 45.7749 40.5085 45.661 38.001C46.4968 36.1774 47.1047 34.8097 47.5606 33.1C47.7885 32.2262 46.8767 32.0362 46.6868 32.7581C45.8129 35.4935 44.3692 38.5329 43.0395 40.9644C41.9757 42.902 39.3922 42.902 38.3284 40.9644C36.9987 38.5329 35.555 35.4935 34.6812 32.7581C34.4912 32.0362 33.5794 32.2262 33.8073 33.1C34.2632 34.8097 34.8711 36.1774 35.707 38.001Z" fill="white"/>
<path d="M79.1981 37.3931C78.6662 37.925 76.8806 39.9766 76.4247 40.5465C75.7028 41.4203 74.4111 40.8884 75.095 40.2046L83.8712 30.2506C85.4289 28.5789 87.3665 26.2994 87.3665 23.222C87.3665 19.7647 85.5809 18.093 83.4153 17.9411C76.7666 17.4851 71.8656 17.4851 65.2169 17.9411C63.0514 18.093 61.1897 19.7647 61.1897 23.222C61.1897 26.6413 62.5195 28.351 64.6471 28.5409C67.0786 28.7689 68.3703 28.8829 70.6878 28.8069C71.6377 27.7431 72.9294 26.4893 73.5373 25.7675C74.1831 25.0836 75.2089 25.6155 74.753 26.1094L64.5331 37.7731C62.8994 39.5587 60.8858 41.7623 60.8858 44.8017C60.8858 48.259 62.6715 50.1966 64.837 50.1966H83.7192C85.8848 50.1966 87.8984 47.3472 87.8984 43.9278C87.8984 40.5085 85.9228 37.8111 83.7572 37.6971C81.6676 37.5451 81.2117 37.4311 79.1981 37.3931Z" fill="white"/>
<path d="M99.0029 30.5545C97.9011 35.1896 97.6351 39.6727 97.9391 43.9658C98.167 47.1192 100.181 50.1966 104.322 50.1966C108.539 50.1966 110.401 47.1192 110.705 43.9658C110.97 39.6727 110.515 32.6061 108.843 27.5151C108.653 27.0212 109.679 26.7553 109.945 27.4391C110.249 28.351 110.629 29.5287 110.856 30.5545H112.11C115.719 30.5545 118.151 27.971 118.151 24.2858C118.151 20.6005 115.719 18.283 112.11 18.017C109.299 17.8271 106.829 17.7131 104.398 17.7131C101.928 17.7131 99.4208 17.7891 96.4954 18.017C92.8481 18.283 90.4546 20.5245 90.4546 24.3618C90.4546 28.047 92.8481 30.5545 96.4954 30.5545H99.0029Z" fill="white"/>
<path d="M122.373 45.1056C121.613 37.887 121.613 29.9466 122.373 22.7661C122.639 19.9546 124.196 17.7131 127.426 17.7131C130.579 17.7131 132.175 19.9546 132.441 22.7661C133.2 29.9466 133.2 37.887 132.441 45.1056C132.175 47.955 130.579 50.1966 127.426 50.1966C124.196 50.1966 122.639 47.955 122.373 45.1056Z" fill="white"/>
</g>
<path id="MZTI (Stroke)" fill-rule="evenodd" clip-rule="evenodd" d="M38.3285 40.9646C37.8349 40.0621 37.3257 39.0759 36.8357 38.0525C36.7615 37.8975 36.6877 37.7417 36.6145 37.5852C36.3275 36.9714 36.0491 36.347 35.7867 35.7218C35.3827 34.7591 35.0165 33.7944 34.715 32.8634C34.7145 32.8618 34.714 32.8602 34.7135 32.8586C34.7026 32.8251 34.6919 32.7916 34.6812 32.7582C34.4992 32.0666 33.6544 32.2121 33.7846 32.9942C33.7872 33.0098 33.7902 33.0257 33.7936 33.0418C33.7976 33.0609 33.8022 33.0804 33.8074 33.1002C34.0881 34.1528 34.4264 35.0758 34.84 36.0554C35.0982 36.6668 35.3858 37.3003 35.707 38.0012C35.6332 39.6242 35.5276 41.072 35.3902 42.5715C35.39 42.5737 35.3898 42.5759 35.3896 42.5781C35.367 42.8245 35.3435 43.0722 35.3192 43.3224C35.2631 43.8999 35.2024 44.4902 35.1371 45.1058C34.8712 47.9552 33.2755 50.1967 30.1221 50.1967C26.8928 50.1967 25.3351 47.9552 25.0691 45.1058C24.3093 37.8872 24.3093 29.9468 25.0691 22.7662C25.3351 19.9548 26.8928 17.7133 30.1221 17.7133C31.9458 17.7133 33.2375 18.4351 34.0733 19.5749C35.6381 21.8141 37.1836 24.8387 38.5876 27.819C38.6882 28.0325 38.7881 28.2458 38.8872 28.4586C39.2471 29.2314 39.5969 29.9972 39.9343 30.7413C39.9541 30.7851 39.974 30.8289 39.9937 30.8725C40.0726 31.0465 40.1507 31.2192 40.2281 31.3905C40.494 31.8844 40.874 31.8844 41.1399 31.3905L41.1494 31.3694C41.2237 31.2051 41.2986 31.0394 41.374 30.8727C41.3937 30.829 41.4135 30.7853 41.4333 30.7416C41.7704 29.9966 42.1188 29.2299 42.477 28.4562C42.5758 28.2427 42.6754 28.0288 42.7756 27.8146C44.1702 24.8357 45.7037 21.813 47.2947 19.5749C48.0925 18.4351 49.4222 17.7133 51.2459 17.7133C54.4752 17.7133 55.9949 19.9548 56.2989 22.7662C57.0207 29.9468 57.0207 37.8872 56.2989 45.1058C55.9949 47.9552 54.4752 50.1967 51.2459 50.1967C48.0925 50.1967 46.4968 47.9552 46.2309 45.1058C46.1656 44.4902 46.1049 43.8999 46.0488 43.3224C46.0245 43.0722 46.001 42.8245 45.9784 42.5781C45.9782 42.5759 45.978 42.5737 45.9778 42.5715C45.8404 41.072 45.7348 39.6242 45.661 38.0012C45.9822 37.3003 46.2698 36.6668 46.528 36.0554C46.9416 35.0758 47.2799 34.1528 47.5606 33.1002C47.5658 33.0804 47.5704 33.0609 47.5744 33.0418C47.5778 33.0257 47.5808 33.0098 47.5834 32.9942C47.7136 32.2121 46.8688 32.0666 46.6868 32.7582C46.6761 32.7916 46.6654 32.8251 46.6545 32.8586C46.654 32.8602 46.6535 32.8618 46.653 32.8634C46.3515 33.7944 45.9854 34.7591 45.5813 35.7218C45.3189 36.347 45.0405 36.9714 44.7535 37.5852C44.6803 37.7417 44.6065 37.8975 44.5323 38.0525C44.0423 39.0759 43.5331 40.0621 43.0395 40.9646C42.7974 41.4057 42.4764 41.7464 42.1126 41.9866C41.2421 42.5615 40.1259 42.5615 39.2554 41.9866C38.8916 41.7464 38.5706 41.4057 38.3285 40.9646ZM38.8636 45.9546C40.0499 46.3045 41.3181 46.3045 42.5044 45.9546C42.7516 47.7961 43.4377 49.7152 44.8338 51.2638C46.437 53.042 48.6806 53.996 51.2459 53.996C53.8303 53.996 56.0859 53.0546 57.6985 51.2557C57.982 50.9393 58.2354 50.608 58.4614 50.2659C58.6411 50.5679 58.8395 50.8587 59.0571 51.1369C60.4603 52.9303 62.5316 53.996 64.8371 53.996H83.7193C86.5282 53.996 88.5935 52.2024 89.7638 50.4792C90.9921 48.6707 91.6977 46.3503 91.6977 43.928C91.6977 41.5106 91.004 39.2209 89.7742 37.4258C88.8257 36.0415 87.3698 34.7164 85.4862 34.1638L86.6866 32.8023C87.2152 32.2347 87.9059 31.4813 88.5862 30.5489C88.8274 30.8753 89.0917 31.1879 89.3794 31.4847C90.763 32.9119 92.5273 33.8068 94.4656 34.1691C93.9908 37.6243 93.9194 40.9861 94.1494 44.2343L94.1498 44.2399C94.3122 46.4866 95.1193 48.899 96.8419 50.8086C98.6386 52.8004 101.216 53.996 104.322 53.996C107.458 53.996 110.034 52.8044 111.825 50.7829C113.524 48.864 114.28 46.4733 114.486 44.3305L114.492 44.2658L114.497 44.2009C114.662 41.5355 114.576 37.8781 114.114 34.1687C115.539 33.8989 116.865 33.3365 118.012 32.496C117.959 36.8781 118.152 41.2939 118.592 45.4829C118.779 47.4442 119.44 49.571 120.966 51.2638C122.584 53.0589 124.847 53.996 127.426 53.996C129.991 53.996 132.234 53.042 133.838 51.2638C135.353 49.5826 136.032 47.4648 136.221 45.4836C137.006 38.0131 137.006 29.821 136.221 22.3856C136.031 20.4148 135.347 18.3071 133.831 16.6342C132.23 14.8671 129.99 13.914 127.426 13.914C124.848 13.914 122.589 14.8503 120.973 16.6342C120.568 17.0807 120.224 17.5575 119.933 18.0536C119.704 17.7569 119.456 17.4722 119.188 17.2009C117.369 15.3572 114.935 14.4158 112.389 14.2282L112.378 14.2274L112.366 14.2266C109.511 14.0336 106.948 13.914 104.398 13.914C101.845 13.914 99.2406 13.9928 96.2089 14.2288C93.6855 14.4147 91.2345 15.3173 89.3969 17.188C89.3865 17.1985 89.3762 17.2091 89.3658 17.2198C89.2909 17.1197 89.2135 17.0211 89.1335 16.9242C87.6905 15.1755 85.6993 14.2929 83.6813 14.1513L83.6783 14.1511L83.6752 14.1509C76.8535 13.6831 71.7788 13.6831 64.9571 14.1509L64.954 14.1511L64.951 14.1513C62.9466 14.292 60.9524 15.1627 59.4922 16.8867C59.1932 17.2398 58.9279 17.6148 58.6953 18.009C58.4126 17.5325 58.0804 17.0735 57.6919 16.6423C56.081 14.8545 53.8296 13.914 51.2459 13.914C48.3344 13.914 45.7805 15.1219 44.191 17.3837C42.9529 19.1272 41.768 21.2565 40.6768 23.4274C39.582 21.2579 38.4015 19.1359 37.1875 17.3987L37.1627 17.3631L37.1371 17.3282C35.5484 15.1618 33.0917 13.914 30.1221 13.914C27.5441 13.914 25.2858 14.8503 23.6692 16.6342C22.1426 18.3187 21.477 20.4353 21.2889 22.3858C20.5037 29.8209 20.5038 38.0127 21.2886 45.4829C21.4754 47.4442 22.1364 49.571 23.6626 51.2638C25.281 53.0589 27.5434 53.996 30.1221 53.996C32.6874 53.996 34.931 53.042 36.5342 51.2638C37.9303 49.7152 38.6164 47.7961 38.8636 45.9546ZM60.6032 30.9373C60.6479 32.7696 60.6513 34.6133 60.6135 36.4491C60.952 36.055 61.2707 35.7084 61.5449 35.4103C61.5994 35.351 61.6522 35.2937 61.703 35.2382L64.2594 32.3207C62.9282 32.1934 61.6705 31.7356 60.6032 30.9373ZM64.5331 37.7732C62.8994 39.5589 60.8859 41.7624 60.8859 44.8018C60.8859 48.2591 62.6715 50.1967 64.8371 50.1967H83.7193C85.8848 50.1967 87.8984 47.3473 87.8984 43.928C87.8984 40.5087 85.9228 37.8112 83.7573 37.6973C83.2428 37.6598 82.8273 37.6247 82.4632 37.5925C82.3307 37.5807 82.2049 37.5694 82.0837 37.5584C81.1857 37.4773 80.5355 37.4185 79.1982 37.3933C78.98 37.6115 78.5507 38.0856 78.0888 38.6081C77.4249 39.3592 76.6936 40.2106 76.4247 40.5467C76.2714 40.7322 76.0925 40.8544 75.9121 40.9252C75.8884 40.9345 75.8646 40.943 75.8408 40.9506C75.1961 41.156 74.5755 40.7242 75.095 40.2048L83.8712 30.2507C84.8982 29.1487 86.0902 27.7824 86.7834 26.0975C87.0074 25.5528 87.1793 24.975 87.2767 24.3619C87.335 23.9947 87.3665 23.6149 87.3665 23.2222C87.3665 22.4323 87.2733 21.7357 87.1037 21.1291C86.5308 19.0804 85.0862 18.0585 83.4153 17.9412C76.7667 17.4853 71.8657 17.4853 65.217 17.9412C63.0514 18.0932 61.1898 19.7649 61.1898 23.2222C61.1898 26.6415 62.5195 28.3511 64.6471 28.5411C65.7136 28.6411 66.5609 28.7191 67.3716 28.7689C68.4092 28.8325 69.3869 28.8497 70.6879 28.807C70.9829 28.4766 71.311 28.1278 71.6413 27.7823C71.8231 27.5921 72.0057 27.4029 72.1838 27.2183C72.7234 26.6588 73.2222 26.1418 73.5373 25.7676C73.6874 25.6088 73.8579 25.5155 74.0256 25.4722C74.0354 25.4696 74.0451 25.4673 74.0549 25.4651C74.598 25.343 75.0969 25.7371 74.7531 26.1096L64.5331 37.7732ZM91.0384 21.4182C90.7933 21.9598 90.6214 22.5619 90.5303 23.2222C90.4802 23.5847 90.4546 23.9648 90.4546 24.3619C90.4546 25.073 90.5437 25.7402 90.7138 26.3541C91.31 28.5063 92.901 30.0021 95.134 30.4295C95.5648 30.512 96.0194 30.5547 96.4954 30.5547H99.0029C98.6991 31.8329 98.4588 33.0996 98.2765 34.3539C97.7978 37.648 97.719 40.8568 97.9391 43.966C98.1671 47.1194 100.181 50.1967 104.322 50.1967C108.539 50.1967 110.401 47.1194 110.705 43.966C110.863 41.4107 110.765 37.8729 110.308 34.3539C110.153 33.1569 109.955 31.9621 109.712 30.8089C109.712 30.8068 109.712 30.8046 109.711 30.8025C109.493 29.7682 109.238 28.7675 108.944 27.8287C108.938 27.8119 108.933 27.7951 108.928 27.7783C108.9 27.6901 108.872 27.6024 108.843 27.5153C108.686 27.1065 109.361 26.8539 109.75 27.1666C109.764 27.1782 109.778 27.1906 109.792 27.2038C109.854 27.2646 109.907 27.3424 109.945 27.4393C110.238 28.3183 110.601 29.4443 110.831 30.4432C110.84 30.4805 110.848 30.5177 110.857 30.5547H112.11C112.6 30.5547 113.067 30.5072 113.51 30.416C116.334 29.834 118.151 27.4716 118.151 24.2859C118.151 20.6007 115.72 18.2831 112.11 18.0172C109.299 17.8272 106.829 17.7133 104.398 17.7133C101.928 17.7133 99.4208 17.7892 96.4954 18.0172C93.9131 18.2055 91.9593 19.3841 91.0384 21.4182ZM132.441 22.7662C132.175 19.9548 130.579 17.7133 127.426 17.7133C124.196 17.7133 122.639 19.9548 122.373 22.7662C121.613 29.9468 121.613 37.8872 122.373 45.1058C122.639 47.9552 124.196 50.1967 127.426 50.1967C130.579 50.1967 132.175 47.9552 132.441 45.1058C133.2 37.8872 133.2 29.9468 132.441 22.7662Z" fill="black"/>
</g>
</g>
</svg>
