<svg width="176" height="97" viewBox="0 0 176 97" fill="none" xmlns="http://www.w3.org/2000/svg">
<path d="M98.9055 13.8768C98.9055 6.21285 105.118 0 112.782 0H162.122C169.786 0 175.999 6.21285 175.999 13.8768C175.999 21.5407 169.786 27.7536 162.122 27.7536H112.782C105.118 27.7536 98.9055 21.5407 98.9055 13.8768Z" fill="black"/>
<path d="M124.903 5.8125C125.753 5.8125 126.482 5.96713 127.089 6.27639C127.705 6.57933 128.129 7.00851 128.362 7.56391C128.594 8.11931 128.582 8.75992 128.326 9.48573C128.137 10.0222 127.831 10.5492 127.408 11.0667C126.987 11.5779 126.489 12.0197 125.917 12.3921C126.441 12.7456 126.768 13.2221 126.898 13.8216C127.037 14.4149 126.98 15.0713 126.726 15.7908C126.452 16.5671 126.009 17.2645 125.396 17.883C124.792 18.4952 124.088 18.9749 123.283 19.322C122.484 19.6691 121.67 19.8427 120.841 19.8427C120.305 19.8427 119.83 19.7764 119.415 19.6439C119.002 19.505 118.658 19.2747 118.384 18.9528L118.27 18.9907L116.655 23.5727H113.784L118.57 9.99695C118.863 9.16385 119.336 8.43172 119.987 7.80059C120.64 7.16314 121.394 6.674 122.251 6.33319C123.116 5.98606 124 5.8125 124.903 5.8125ZM119.525 15.4311C119.391 15.8097 119.359 16.1569 119.429 16.4724C119.498 16.788 119.671 17.0373 119.948 17.2203C120.225 17.4034 120.591 17.4949 121.046 17.4949C121.488 17.4949 121.906 17.4097 122.3 17.2393C122.702 17.0689 123.044 16.8385 123.327 16.5482C123.619 16.2515 123.828 15.9233 123.955 15.5636C124.089 15.1849 124.105 14.8536 124.005 14.5695C123.913 14.2792 123.723 14.0583 123.435 13.9069C123.147 13.7554 122.8 13.6765 122.394 13.6702H121.431L122.152 11.6253H122.814C123.256 11.6253 123.646 11.5432 123.985 11.3791C124.333 11.2087 124.613 10.9941 124.824 10.7354C125.043 10.4766 125.202 10.2052 125.302 9.92121C125.476 9.42892 125.446 9.02815 125.214 8.71889C124.988 8.40963 124.598 8.25501 124.042 8.25501C123.661 8.25501 123.293 8.33074 122.938 8.48222C122.584 8.63369 122.268 8.85459 121.992 9.14491C121.725 9.42892 121.521 9.76974 121.381 10.1674L119.525 15.4311Z" fill="white"/>
<path d="M132.571 19.9184C131.466 19.9184 130.585 19.7039 129.927 19.2747C129.27 18.8392 128.865 18.2238 128.71 17.4286C128.562 16.6334 128.679 15.6961 129.059 14.6169C129.428 13.5692 129.969 12.6446 130.679 11.843C131.399 11.0352 132.235 10.4103 133.187 9.96855C134.142 9.52044 135.144 9.29638 136.195 9.29638C137.172 9.29638 137.976 9.49204 138.608 9.88334C139.248 10.2683 139.652 10.8521 139.817 11.6348C139.99 12.4174 139.877 13.3735 139.479 14.5033L139.198 15.2985H131.75C131.57 15.8097 131.513 16.2547 131.58 16.6334C131.654 17.0121 131.842 17.3055 132.143 17.5138C132.454 17.7158 132.863 17.8168 133.372 17.8168C133.869 17.8104 134.327 17.7158 134.747 17.5327C135.168 17.3434 135.508 17.0909 135.767 16.7754H138.597C138.232 17.4128 137.748 17.9682 137.147 18.4416C136.547 18.9086 135.854 19.2715 135.066 19.5303C134.286 19.7891 133.454 19.9184 132.571 19.9184ZM137.008 13.5376C137.153 13.1274 137.186 12.7582 137.108 12.43C137.036 12.1018 136.861 11.8493 136.582 11.6726C136.305 11.4896 135.949 11.3981 135.514 11.3981C135.072 11.3981 134.638 11.4927 134.209 11.6821C133.788 11.8714 133.416 12.1302 133.093 12.4584C132.769 12.7866 132.529 13.1463 132.371 13.5376H137.008Z" fill="white"/>
<path d="M148.65 11.5306H146.602L144.833 16.5482C144.69 16.9332 144.679 17.2014 144.8 17.3529C144.93 17.498 145.159 17.5769 145.49 17.5895C145.797 17.5895 146.199 17.5706 146.694 17.5327L145.913 19.748C145.449 19.8112 144.899 19.8427 144.264 19.8427C143.153 19.8427 142.364 19.6029 141.897 19.1232C141.433 18.6372 141.374 17.9114 141.721 16.9458L143.63 11.5306H142.125L142.866 9.42892H144.371L145.239 6.96748H148.21L147.343 9.42892H149.39L148.65 11.5306Z" fill="white"/>
<path d="M148.64 16.8322C149.02 15.7719 149.671 14.9987 150.592 14.5127C151.515 14.0205 152.587 13.7396 153.81 13.6702C154.561 13.626 155.48 13.5818 156.567 13.5376L156.86 12.7045C157.005 12.2754 156.968 11.944 156.749 11.7105C156.533 11.4707 156.148 11.3476 155.594 11.3413C155.09 11.3476 154.645 11.4517 154.26 11.6537C153.883 11.8493 153.592 12.1239 153.387 12.4773H150.556C150.83 11.8714 151.242 11.3287 151.793 10.849C152.35 10.3693 153.022 9.99064 153.81 9.71294C154.597 9.43523 155.459 9.29638 156.396 9.29638C157.232 9.29638 157.955 9.41946 158.564 9.6656C159.18 9.91174 159.607 10.2967 159.843 10.8206C160.083 11.3381 160.063 11.9913 159.785 12.7803L157.342 19.7102H154.531L155.032 18.2901H154.952C154.495 18.7887 153.947 19.1832 153.31 19.4735C152.672 19.7638 151.966 19.9058 151.192 19.8995C150.48 19.9058 149.891 19.7922 149.425 19.5587C148.965 19.3252 148.659 18.978 148.507 18.5173C148.362 18.0566 148.406 17.4949 148.64 16.8322ZM151.517 16.7564C151.381 17.1414 151.424 17.4381 151.645 17.6463C151.873 17.8546 152.23 17.9619 152.716 17.9682C153.158 17.9682 153.583 17.883 153.991 17.7126C154.405 17.5422 154.758 17.3118 155.047 17.0215C155.346 16.7249 155.559 16.3967 155.686 16.0369L155.949 15.289C155.039 15.3269 154.282 15.3679 153.677 15.4121C153.133 15.4563 152.669 15.5951 152.286 15.8287C151.911 16.0559 151.655 16.3651 151.517 16.7564Z" fill="white"/>
<path d="M22.7477 71.8843C22.5749 75.6852 22.287 78.8526 21.8839 82.6535C21.4807 86.9727 19.062 90.3704 14.2821 90.3704C9.38703 90.3704 7.02587 86.9727 6.62275 82.6535C5.47097 71.7116 5.47097 59.6754 6.62275 48.7911C7.02587 44.5295 9.38703 41.1318 14.2821 41.1318C17.0464 41.1318 19.0044 42.2259 20.2714 43.9536C23.6115 48.7335 26.8941 55.8746 29.6008 61.8638C30.0039 62.6125 30.5798 62.6125 30.9829 61.8638C33.6896 55.8746 36.9146 48.7335 40.3124 43.9536C41.5218 42.2259 43.5374 41.1318 46.3017 41.1318C51.1967 41.1318 53.5003 44.5295 53.961 48.7911C55.0552 59.6754 55.0552 71.7116 53.961 82.6535C53.5003 86.9727 51.1967 90.3704 46.3017 90.3704C41.5218 90.3704 39.103 86.9727 38.6999 82.6535C38.2968 78.8526 38.0088 75.6852 37.8361 71.8843C39.103 69.1201 40.0244 67.0469 40.7155 64.4553C41.061 63.1308 39.6789 62.8429 39.391 63.937C38.0664 68.0835 35.878 72.6906 33.8624 76.3763C32.2499 79.3133 28.3338 79.3133 26.7214 76.3763C24.7057 72.6906 22.5173 68.0835 21.1928 63.937C20.9049 62.8429 19.5227 63.1308 19.8682 64.4553C20.5593 67.0469 21.4807 69.1201 22.7477 71.8843Z" fill="white"/>
<path d="M88.6719 70.9629C87.8657 71.7692 85.159 74.879 84.4679 75.7428C83.3737 77.0674 81.4157 76.2611 82.4523 75.2245L95.7554 60.1362C98.1166 57.6022 101.054 54.1469 101.054 49.4822C101.054 44.2416 98.3469 41.7076 95.0643 41.4773C84.9862 40.7862 77.5572 40.7862 67.4791 41.4773C64.1966 41.7076 61.3747 44.2416 61.3747 49.4822C61.3747 54.6652 63.3903 57.2567 66.6153 57.5447C70.301 57.8902 72.259 58.063 75.772 57.9478C77.2117 56.3353 79.1697 54.4348 80.0912 53.3406C81.0702 52.304 82.6251 53.1103 81.934 53.8589L66.4425 71.5388C63.9662 74.2455 60.914 77.5857 60.914 82.1928C60.914 87.4334 63.6207 90.3704 66.9033 90.3704H95.5251C98.8076 90.3704 101.86 86.0513 101.86 80.8682C101.86 75.6852 98.8652 71.5964 95.5826 71.4236C92.4152 71.1933 91.7242 71.0205 88.6719 70.9629Z" fill="white"/>
<path d="M118.692 60.5969C117.022 67.6227 116.619 74.4183 117.08 80.9258C117.425 85.7057 120.477 90.3704 126.755 90.3704C133.147 90.3704 135.969 85.7057 136.43 80.9258C136.833 74.4183 136.142 63.7067 133.608 55.9897C133.32 55.2411 134.875 54.838 135.278 55.8746C135.738 57.2567 136.314 59.042 136.66 60.5969H138.56C144.031 60.5969 147.717 56.6808 147.717 51.0947C147.717 45.5085 144.031 41.9956 138.56 41.5925C134.299 41.3045 130.555 41.1318 126.87 41.1318C123.126 41.1318 119.326 41.2469 114.891 41.5925C109.363 41.9956 105.735 45.3933 105.735 51.2098C105.735 56.796 109.363 60.5969 114.891 60.5969H118.692Z" fill="white"/>
<path d="M154.116 82.6535C152.964 71.7116 152.964 59.6754 154.116 48.7911C154.519 44.5295 156.88 41.1318 161.775 41.1318C166.555 41.1318 168.974 44.5295 169.377 48.7911C170.529 59.6754 170.529 71.7116 169.377 82.6535C168.974 86.9727 166.555 90.3704 161.775 90.3704C156.88 90.3704 154.519 86.9727 154.116 82.6535Z" fill="white"/>
<path fill-rule="evenodd" clip-rule="evenodd" d="M26.7214 76.3764C25.9732 75.0084 25.2013 73.5135 24.4586 71.9622C24.3461 71.7273 24.2343 71.4912 24.1234 71.254C23.6882 70.3235 23.2662 69.3771 22.8685 68.4293C22.2561 66.9701 21.7011 65.5078 21.2441 64.0966C21.2433 64.0941 21.2425 64.0917 21.2417 64.0892C21.2253 64.0385 21.209 63.9878 21.1928 63.9372C20.9169 62.8887 19.6364 63.1093 19.8338 64.2948C19.8377 64.3185 19.8422 64.3425 19.8474 64.367C19.8535 64.3959 19.8604 64.4254 19.8682 64.4555C20.2937 66.051 20.8065 67.4501 21.4335 68.935C21.8249 69.8618 22.2608 70.8221 22.7477 71.8845C22.6359 74.3446 22.4758 76.5393 22.2675 78.8121C22.2672 78.8155 22.2669 78.8188 22.2666 78.8222C22.2323 79.1956 22.1968 79.5712 22.1599 79.9504C22.0748 80.8258 21.9828 81.7206 21.8839 82.6536C21.4807 86.9728 19.062 90.3706 14.2821 90.3706C9.38703 90.3706 7.02587 86.9728 6.62275 82.6536C5.47097 71.7117 5.47097 59.6756 6.62275 48.7912C7.02587 44.5296 9.38703 41.1319 14.2821 41.1319C17.0464 41.1319 19.0044 42.2261 20.2714 43.9537C22.6432 47.3479 24.986 51.9327 27.1142 56.4502C27.2667 56.7738 27.418 57.0972 27.5682 57.4197C28.1138 58.5911 28.644 59.7519 29.1554 60.8799C29.1856 60.9463 29.2156 61.0126 29.2456 61.0788C29.365 61.3425 29.4835 61.6043 29.6008 61.864C30.0039 62.6126 30.5798 62.6126 30.9829 61.864L30.9974 61.832C31.11 61.5829 31.2234 61.3318 31.3378 61.079C31.3677 61.0129 31.3977 60.9466 31.4277 60.8803C31.9386 59.751 32.4667 58.5889 33.0097 57.4161C33.1595 57.0925 33.3104 56.7682 33.4624 56.4435C35.5763 51.9282 37.9008 47.3463 40.3124 43.9537C41.5218 42.2261 43.5374 41.1319 46.3017 41.1319C51.1967 41.1319 53.5003 44.5296 53.961 48.7912C55.0552 59.6756 55.0552 71.7117 53.961 82.6536C53.5003 86.9728 51.1967 90.3706 46.3017 90.3706C41.5218 90.3706 39.103 86.9728 38.6999 82.6536C38.6009 81.7206 38.5089 80.8258 38.4238 79.9504C38.387 79.5712 38.3514 79.1956 38.3172 78.8222C38.3169 78.8188 38.3166 78.8155 38.3163 78.8121C38.1079 76.5393 37.9479 74.3446 37.8361 71.8845C38.323 70.8221 38.7588 69.8618 39.1502 68.935C39.7772 67.4501 40.29 66.051 40.7155 64.4555C40.7233 64.4254 40.7303 64.3959 40.7364 64.367C40.7415 64.3425 40.7461 64.3185 40.75 64.2948C40.9474 63.1093 39.6669 62.8887 39.391 63.9372C39.3748 63.9878 39.3585 64.0385 39.3421 64.0892C39.3413 64.0917 39.3405 64.0941 39.3397 64.0966C38.8827 65.5078 38.3277 66.9701 37.7153 68.4293C37.3175 69.3771 36.8955 70.3235 36.4604 71.254C36.3495 71.4912 36.2377 71.7273 36.1252 71.9622C35.3825 73.5135 34.6105 75.0084 33.8624 76.3764C33.4953 77.045 33.0089 77.5614 32.4574 77.9256C31.1378 78.7971 29.4459 78.7971 28.1264 77.9256C27.5749 77.5614 27.0884 77.045 26.7214 76.3764ZM27.5325 83.9403C29.3308 84.4707 31.253 84.4707 33.0513 83.9403C33.4259 86.7317 34.466 89.6406 36.5822 91.988C39.0124 94.6835 42.4131 96.1295 46.3017 96.1295C50.2191 96.1295 53.6382 94.7025 56.0825 91.9757C56.5123 91.4962 56.8965 90.994 57.239 90.4754C57.5114 90.9331 57.8121 91.374 58.142 91.7956C60.2689 94.5141 63.4086 96.1295 66.9033 96.1295H95.5251C99.7828 96.1295 102.913 93.4108 104.687 90.7987C106.549 88.0574 107.619 84.5401 107.619 80.8684C107.619 77.204 106.567 73.7333 104.703 71.0124C103.265 68.9139 101.059 66.9054 98.2034 66.0678L100.023 64.004C100.824 63.1435 101.871 62.0016 102.902 60.5882C103.268 61.083 103.669 61.5568 104.105 62.0068C106.202 64.1701 108.876 65.5266 111.814 66.0758C111.095 71.3132 110.986 76.4091 111.335 81.3327L111.336 81.3412C111.582 84.7466 112.805 88.4034 115.416 91.2981C118.14 94.3173 122.047 96.1295 126.755 96.1295C131.508 96.1295 135.413 94.3233 138.127 91.2591C140.704 88.3504 141.849 84.7265 142.162 81.4785L142.171 81.3804L142.177 81.282C142.428 77.2418 142.298 71.6979 141.598 66.0751C143.758 65.6661 145.767 64.8137 147.507 63.5397C147.425 70.1821 147.719 76.8756 148.386 83.2253C148.669 86.1982 149.671 89.422 151.984 91.988C154.437 94.709 157.867 96.1295 161.775 96.1295C165.664 96.1295 169.065 94.6835 171.495 91.988C173.792 89.4396 174.821 86.2295 175.108 83.2263C176.297 71.9025 176.298 59.4848 175.107 48.2142C174.819 45.227 173.783 42.032 171.485 39.4962C169.057 36.8176 165.663 35.373 161.775 35.373C157.868 35.373 154.445 36.7922 151.994 39.4962C151.381 40.173 150.859 40.8958 150.418 41.6477C150.072 41.198 149.695 40.7665 149.29 40.3552C146.532 37.5605 142.843 36.1336 138.984 35.8492L138.966 35.848L138.949 35.8468C134.62 35.5543 130.735 35.373 126.87 35.373C123 35.373 119.052 35.4923 114.457 35.8501C110.632 36.1319 106.917 37.5001 104.131 40.3356C104.116 40.3517 104.1 40.3677 104.084 40.3838C103.971 40.2321 103.853 40.0827 103.732 39.9358C101.545 37.285 98.5265 35.9473 95.4675 35.7326L95.4629 35.7323L95.4583 35.732C85.1179 35.0229 77.4256 35.0229 67.0852 35.732L67.0806 35.7323L67.076 35.7326C64.0378 35.9458 61.0149 37.2657 58.8015 39.8789C58.3482 40.4141 57.9461 40.9827 57.5935 41.5801C57.165 40.8578 56.6615 40.1621 56.0726 39.5085C53.6308 36.7986 50.218 35.373 46.3017 35.373C41.8884 35.373 38.0172 37.2039 35.6078 40.6323C33.7311 43.2751 31.9349 46.5028 30.281 49.7934C28.6215 46.5048 26.8321 43.2883 24.9919 40.655L24.9543 40.6011L24.9154 40.5481C22.5073 37.2643 18.7835 35.373 14.2821 35.373C10.3743 35.373 6.95124 36.7922 4.50066 39.4962C2.18669 42.0496 1.17781 45.2579 0.892716 48.2145C-0.297622 59.4847 -0.29735 71.9018 0.892201 83.2253C1.17535 86.1982 2.17736 89.422 4.49069 91.988C6.94384 94.709 10.3732 96.1295 14.2821 96.1295C18.1706 96.1295 21.5714 94.6835 24.0015 91.988C26.1178 89.6406 27.1578 86.7317 27.5325 83.9403ZM60.4855 61.1769C60.5533 63.9543 60.5585 66.749 60.5011 69.5318C61.0143 68.9344 61.4974 68.4091 61.913 67.9572C61.9956 67.8674 62.0756 67.7804 62.1526 67.6963L66.0277 63.2739C64.0097 63.081 62.1033 62.3871 60.4855 61.1769ZM66.4425 71.5389C63.9662 74.2456 60.914 77.5858 60.914 82.1929C60.914 87.4335 63.6207 90.3706 66.9033 90.3706H95.5251C98.8076 90.3706 101.86 86.0514 101.86 80.8684C101.86 75.6853 98.8652 71.5965 95.5826 71.4238C94.8028 71.367 94.173 71.3138 93.6212 71.2649C93.4202 71.2471 93.2296 71.2299 93.0459 71.2133C91.6846 71.0903 90.699 71.0013 88.6719 70.963C88.3412 71.2938 87.6905 72.0123 86.9904 72.8044C85.984 73.943 84.8755 75.2335 84.4679 75.7429C84.2356 76.0242 83.9643 76.2094 83.6909 76.3167C83.6549 76.3308 83.6188 76.3436 83.5828 76.3551C82.6055 76.6666 81.6649 76.0121 82.4523 75.2246L95.7554 60.1363C97.312 58.4657 99.119 56.3947 100.17 53.8407C100.509 53.0152 100.77 52.1392 100.917 51.21C101.006 50.6534 101.054 50.0777 101.054 49.4823C101.054 48.2851 100.912 47.2291 100.655 46.3096C99.7869 43.2042 97.597 41.6551 95.0643 41.4774C84.9862 40.7863 77.5572 40.7863 67.4791 41.4774C64.1966 41.7078 61.3747 44.2417 61.3747 49.4823C61.3747 54.6653 63.3903 57.2568 66.6153 57.5448C68.232 57.6963 69.5162 57.8147 70.7451 57.89C72.3179 57.9865 73.7999 58.0126 75.772 57.9479C76.2192 57.447 76.7165 56.9183 77.2171 56.3946C77.4928 56.1063 77.7695 55.8194 78.0395 55.5396C78.8575 54.6916 79.6136 53.9079 80.0912 53.3408C80.3186 53.1 80.5771 52.9586 80.8313 52.8929C80.8461 52.889 80.8609 52.8855 80.8757 52.8821C81.699 52.6971 82.4552 53.2945 81.934 53.8591L66.4425 71.5389ZM106.619 46.7479C106.248 47.5687 105.987 48.4815 105.849 49.4823C105.773 50.0319 105.735 50.608 105.735 51.21C105.735 52.2878 105.87 53.2992 106.127 54.2297C107.031 57.4921 109.443 59.7593 112.828 60.4073C113.481 60.5323 114.17 60.597 114.891 60.597H118.692C118.232 62.5346 117.867 64.4546 117.591 66.3559C116.865 71.349 116.746 76.213 117.08 80.926C117.425 85.7059 120.477 90.3706 126.755 90.3706C133.147 90.3706 135.969 85.7059 136.43 80.926C136.669 77.0526 136.522 71.69 135.829 66.3559C135.593 64.5415 135.294 62.7304 134.926 60.9824C134.925 60.9791 134.924 60.9759 134.924 60.9726C134.593 59.4049 134.207 57.8879 133.76 56.4649C133.752 56.4394 133.744 56.414 133.736 56.3886C133.694 56.2548 133.651 56.1219 133.608 55.9899C133.369 55.3703 134.393 54.9874 134.982 55.4613C135.004 55.4789 135.025 55.4977 135.046 55.5177C135.14 55.6099 135.221 55.7278 135.278 55.8747C135.722 57.207 136.273 58.9139 136.622 60.4279C136.635 60.4846 136.647 60.5409 136.66 60.597H138.56C139.302 60.597 140.011 60.525 140.682 60.3867C144.963 59.5046 147.717 55.9237 147.717 51.0948C147.717 45.5086 144.031 41.9957 138.56 41.5926C134.299 41.3046 130.555 41.1319 126.87 41.1319C123.126 41.1319 119.326 41.2471 114.891 41.5926C110.977 41.878 108.015 43.6646 106.619 46.7479ZM169.377 48.7912C168.974 44.5296 166.555 41.1319 161.775 41.1319C156.88 41.1319 154.519 44.5296 154.116 48.7912C152.964 59.6756 152.964 71.7117 154.116 82.6536C154.519 86.9728 156.88 90.3706 161.775 90.3706C166.555 90.3706 168.974 86.9728 169.377 82.6536C170.529 71.7117 170.529 59.6756 169.377 48.7912Z" fill="black"/>
</svg>
