<svg width="30" height="30" viewBox="0 0 30 30" fill="none" xmlns="http://www.w3.org/2000/svg">
<path d="M10.0131 5.00098H20.0131C22.8131 5.00098 25.0131 7.20098 25.0131 10.001V20.001C25.0131 22.801 22.8131 25.001 20.0131 25.001H10.0131C7.21306 25.001 5.01306 22.801 5.01306 20.001V10.001C5.01306 7.20098 7.21306 5.00098 10.0131 5.00098Z" fill="#231F20"/>
<path d="M15.0131 12.2007C13.4131 12.2007 12.213 13.501 12.213 15.001C12.213 16.601 13.5131 17.8008 15.0131 17.8008C16.6131 17.8008 17.813 16.501 17.813 15.001C17.813 13.401 16.5131 12.2007 15.0131 12.2007ZM15.0131 9.70068C17.9131 9.70068 20.313 12.101 20.313 15.001C20.313 17.901 17.9131 20.3008 15.0131 20.3008C12.1131 20.3008 9.71301 17.901 9.71301 15.001C9.71301 12.101 12.0131 9.70068 15.0131 9.70068Z" fill="white"/>
<path d="M20.313 10.6006C21.031 10.6006 21.613 10.0188 21.613 9.30078C21.613 8.58281 21.031 8.00098 20.313 8.00098C19.595 8.00098 19.0131 8.58281 19.0131 9.30078C19.0131 10.0188 19.595 10.6006 20.313 10.6006Z" fill="white"/>
</svg>
