<?xml version="1.0" encoding="utf-8"?>
<!-- Generator: Adobe Illustrator 22.0.1, SVG Export Plug-In . SVG Version: 6.00 Build 0)  -->
<svg version="1.1" id="Layer_1" xmlns="http://www.w3.org/2000/svg" xmlns:xlink="http://www.w3.org/1999/xlink" x="0px" y="0px"
	 width="30px" height="30px" viewBox="0 0 30 30" style="enable-background:new 0 0 30 30;" xml:space="preserve">
<g>
	<path d="M17.8,12.2c-0.2-0.2-0.6-0.4-0.9-0.4c-0.3,0-0.7,0.1-0.9,0.4c-0.2,0.2-0.4,0.6-0.4,0.9c0,0.3,0.1,0.7,0.4,0.9
		c0.5,0.5,0.8,1.2,0.8,1.9s-0.3,1.4-0.8,1.9l0,0h0l-3.8,3.8c-0.5,0.5-1.2,0.8-1.9,0.8s-1.4-0.3-1.9-0.8c-1.1-1.1-1.1-2.8,0-3.8
		l0.9-0.9c0.5-0.5,0.5-1.3,0-1.8c-0.2-0.2-0.6-0.4-0.9-0.4s-0.7,0.1-0.9,0.4L6.5,16c-1,1-1.6,2.3-1.6,3.8s0.6,2.8,1.6,3.8
		c1,1,2.3,1.6,3.8,1.6c1.4,0,2.8-0.6,3.8-1.6l3.8-3.8c1-1,1.6-2.3,1.6-3.8S18.8,13.2,17.8,12.2L17.8,12.2z M17,12.1
		C16.9,12.1,16.9,12.1,17,12.1L17,12.1C16.9,12.1,16.9,12.1,17,12.1z"/>
	<path d="M23.5,6.5c-1-1-2.3-1.6-3.8-1.6S17,5.5,16,6.5l-3.8,3.8v0c-1,1-1.6,2.3-1.6,3.8s0.6,2.8,1.6,3.8c0.2,0.2,0.6,0.4,0.9,0.4
		c0.3,0,0.7-0.1,0.9-0.4c0.5-0.5,0.5-1.3,0-1.8h0v0c-0.5-0.5-0.8-1.2-0.8-1.9s0.3-1.4,0.8-1.9l3.8-3.8c0.5-0.5,1.2-0.8,1.9-0.8
		s1.4,0.3,1.9,0.8c1.1,1.1,1.1,2.8,0,3.8l-0.9,0.9c-0.5,0.5-0.5,1.3,0,1.8c0.2,0.2,0.6,0.4,0.9,0.4s0.7-0.1,0.9-0.4l0,0l0.9-0.9h0
		C25.6,12,25.6,8.6,23.5,6.5z M19.7,5.3L19.7,5.3c-0.3,0-0.6,0-1,0.1C19.1,5.3,19.4,5.3,19.7,5.3z"/>
</g>
</svg>
